font.ufo
<glyph name="anusvara" format="1">
  <advance width="364"/>
  <unicode hex="0D82"/>
  <outline>
    <contour>
      <point x="70" y="179" type="curve" smooth="yes"/>
      <point x="70" y="124"/>
      <point x="116" y="80"/>
      <point x="173" y="80" type="curve" smooth="yes"/>
      <point x="230" y="80"/>
      <point x="276" y="124"/>
      <point x="276" y="179" type="curve" smooth="yes"/>
      <point x="276" y="233"/>
      <point x="230" y="278"/>
      <point x="173" y="278" type="curve" smooth="yes"/>
      <point x="116" y="278"/>
      <point x="70" y="233"/>
    </contour>
    <contour>
      <point x="30" y="165" type="curve" smooth="yes"/>
      <point x="30" y="242"/>
      <point x="94" y="305"/>
      <point x="173" y="305" type="curve" smooth="yes"/>
      <point x="252" y="305"/>
      <point x="316" y="242"/>
      <point x="316" y="165" type="curve" smooth="yes"/>
      <point x="316" y="88"/>
      <point x="252" y="25"/>
      <point x="173" y="25" type="curve" smooth="yes"/>
      <point x="94" y="25"/>
      <point x="30" y="88"/>
    </contour>
  </outline>
</glyph>
<glyph name="uni0D85" format="1">
  <advance width="573"/>
  <unicode hex="0D85"/>
  <outline>
    <contour>
      <point x="384" y="206" type="curve"/>
      <point x="384" y="235" type="line"/>
      <point x="393" y="230"/>
      <point x="403" y="229"/>
      <point x="410" y="229" type="curve" smooth="yes"/>
      <point x="439" y="229"/>
      <point x="462" y="250"/>
      <point x="462" y="288" type="curve" smooth="yes"/>
      <point x="462" y="312"/>
      <point x="458" y="327"/>
      <point x="446" y="345" type="curve" smooth="yes"/>
      <point x="435" y="362"/>
      <point x="421" y="372"/>
      <point x="421" y="397" type="curve" smooth="yes"/>
      <point x="421" y="399"/>
      <point x="422" y="402"/>
      <point x="422" y="404" type="curve"/>
      <point x="438" y="418" type="line" smooth="yes"/>
      <point x="457" y="422" type="line"/>
      <point x="450" y="418"/>
      <point x="445" y="414"/>
      <point x="445" y="403" type="curve" smooth="yes"/>
      <point x="445" y="369"/>
      <point x="527" y="355"/>
      <point x="527" y="281" type="curve" smooth="yes"/>
      <point x="527" y="228"/>
      <point x="479" y="200"/>
      <point x="428" y="200" type="curve" smooth="yes"/>
      <point x="414" y="200"/>
      <point x="399" y="202"/>
    </contour>
    <contour>
      <point x="358" y="-215" type="line"/>
      <point x="358" y="-39"/>
      <point x="358" y="137"/>
      <point x="358" y="313" type="curve" smooth="yes"/>
      <point x="358" y="350"/>
      <point x="367" y="380"/>
      <point x="385" y="401" type="curve" smooth="yes"/>
      <point x="400" y="418"/>
      <point x="419" y="430"/>
      <point x="439" y="435" type="curve"/>
      <point x="462" y="424" type="line"/>
      <point x="392" y="393"/>
      <point x="388" y="352"/>
      <point x="388" y="314" type="curve" smooth="yes"/>
      <point x="388" y="-215" type="line"/>
    </contour>
    <contour>
      <point x="33" y="160" type="curve" smooth="yes"/>
      <point x="33" y="248"/>
      <point x="94" y="309"/>
      <point x="202" y="309" type="curve" smooth="yes"/>
      <point x="315" y="309" type="line"/>
      <point x="314" y="352"/>
      <point x="286" y="392"/>
      <point x="242" y="392" type="curve" smooth="yes"/>
      <point x="206" y="392"/>
      <point x="197" y="375"/>
      <point x="190" y="358" type="curve" smooth="yes"/>
      <point x="184" y="346"/>
      <point x="173" y="330"/>
      <point x="147" y="330" type="curve" smooth="yes"/>
      <point x="125" y="330"/>
      <point x="106" y="345"/>
      <point x="106" y="369" type="curve" smooth="yes"/>
      <point x="106" y="410"/>
      <point x="154" y="433"/>
      <point x="211" y="433" type="curve" smooth="yes"/>
      <point x="295" y="433"/>
      <point x="346" y="382"/>
      <point x="346" y="290" type="curve" smooth="yes"/>
      <point x="346" y="289"/>
      <point x="346" y="288"/>
      <point x="346" y="287" type="curve"/>
      <point x="263" y="287" type="line" smooth="yes"/>
      <point x="143" y="287"/>
      <point x="127" y="200"/>
      <point x="127" y="164" type="curve" smooth="yes"/>
      <point x="127" y="88"/>
      <point x="176" y="25"/>
      <point x="304" y="25" type="curve" smooth="yes"/>
      <point x="411" y="25"/>
      <point x="480" y="50"/>
      <point x="523" y="83" type="curve"/>
      <point x="523" y="51" type="line"/>
      <point x="472" y="17"/>
      <point x="386" y="-4"/>
      <point x="282" y="-4" type="curve" smooth="yes"/>
      <point x="118" y="-4"/>
      <point x="33" y="62"/>
    </contour>
  </outline>
</glyph>
<glyph name="si_I" format="1">
  <advance width="593"/>
  <unicode hex="0D89"/>
  <outline>
    <contour>
      <point x="33" y="221" type="curve" smooth="yes"/>
      <point x="33" y="357"/>
      <point x="148" y="432"/>
      <point x="284" y="432" type="curve" smooth="yes"/>
      <point x="436" y="432"/>
      <point x="544" y="353"/>
      <point x="544" y="198" type="curve" smooth="yes"/>
      <point x="544" y="92"/>
      <point x="473" y="10"/>
      <point x="384" y="-6" type="curve"/>
      <point x="417" y="-12"/>
      <point x="439" y="-36"/>
      <point x="439" y="-75" type="curve" smooth="yes"/>
      <point x="439" y="-134"/>
      <point x="364" y="-160"/>
      <point x="298" y="-160" type="curve" smooth="yes"/>
      <point x="236" y="-160"/>
      <point x="173" y="-139"/>
      <point x="173" y="-76" type="curve" smooth="yes"/>
      <point x="173" y="-50"/>
      <point x="190" y="-38"/>
      <point x="207" y="-38" type="curve" smooth="yes"/>
      <point x="222" y="-38"/>
      <point x="236" y="-48"/>
      <point x="236" y="-65" type="curve" smooth="yes"/>
      <point x="236" y="-71"/>
      <point x="232" y="-82"/>
      <point x="232" y="-94" type="curve" smooth="yes"/>
      <point x="232" y="-114"/>
      <point x="243" y="-137"/>
      <point x="300" y="-137" type="curve" smooth="yes"/>
      <point x="339" y="-137"/>
      <point x="373" y="-120"/>
      <point x="373" y="-83" type="curve" smooth="yes"/>
      <point x="373" y="-42"/>
      <point x="334" y="-15"/>
      <point x="267" y="-15" type="curve" smooth="yes"/>
      <point x="259" y="-15"/>
      <point x="259" y="-15"/>
      <point x="249" y="-16" type="curve"/>
      <point x="249" y="12" type="line"/>
      <point x="261" y="13"/>
      <point x="262" y="13"/>
      <point x="273" y="13" type="curve" smooth="yes"/>
      <point x="290" y="13"/>
      <point x="307" y="11"/>
      <point x="324" y="11" type="curve" smooth="yes"/>
      <point x="422" y="11"/>
      <point x="499" y="75"/>
      <point x="499" y="176" type="curve" smooth="yes"/>
      <point x="499" y="284"/>
      <point x="406" y="350"/>
      <point x="285" y="350" type="curve" smooth="yes"/>
      <point x="175" y="350"/>
      <point x="80" y="302"/>
      <point x="80" y="201" type="curve" smooth="yes"/>
      <point x="80" y="136"/>
      <point x="139" y="81"/>
      <point x="225" y="81" type="curve" smooth="yes"/>
      <point x="276" y="81"/>
      <point x="316" y="95"/>
      <point x="332" y="118" type="curve"/>
      <point x="317" y="107"/>
      <point x="299" y="104"/>
      <point x="285" y="104" type="curve" smooth="yes"/>
      <point x="243" y="104"/>
      <point x="208" y="138"/>
      <point x="208" y="178" type="curve" smooth="yes"/>
      <point x="208" y="224"/>
      <point x="242" y="259"/>
      <point x="286" y="259" type="curve" smooth="yes"/>
      <point x="344" y="259"/>
      <point x="376" y="221"/>
      <point x="376" y="169" type="curve" smooth="yes"/>
      <point x="376" y="89"/>
      <point x="310" y="54"/>
      <point x="220" y="54" type="curve" smooth="yes"/>
      <point x="113" y="54"/>
      <point x="33" y="117"/>
    </contour>
    <contour>
      <point x="237" y="181" type="curve" smooth="yes"/>
      <point x="237" y="153"/>
      <point x="261" y="131"/>
      <point x="288" y="131" type="curve" smooth="yes"/>
      <point x="316" y="131"/>
      <point x="339" y="154"/>
      <point x="339" y="181" type="curve" smooth="yes"/>
      <point x="339" y="209"/>
      <point x="315" y="231"/>
      <point x="288" y="231" type="curve" smooth="yes"/>
      <point x="260" y="231"/>
      <point x="237" y="208"/>
    </contour>
  </outline>
</glyph>
<glyph name="si_Ii" format="1">
  <advance width="528"/>
  <unicode hex="0D8A"/>
  <outline>
    <contour>
      <point x="410" y="468" type="curve" smooth="yes"/>
      <point x="410" y="447"/>
      <point x="427" y="430"/>
      <point x="448" y="430" type="curve" smooth="yes"/>
      <point x="469" y="430"/>
      <point x="486" y="447"/>
      <point x="486" y="468" type="curve" smooth="yes"/>
      <point x="486" y="489"/>
      <point x="469" y="506"/>
      <point x="448" y="506" type="curve" smooth="yes"/>
      <point x="427" y="506"/>
      <point x="410" y="489"/>
    </contour>
    <contour>
      <point x="383" y="468" type="curve" smooth="yes"/>
      <point x="383" y="504"/>
      <point x="412" y="532"/>
      <point x="448" y="532" type="curve" smooth="yes"/>
      <point x="483" y="532"/>
      <point x="512" y="504"/>
      <point x="512" y="468" type="curve" smooth="yes"/>
      <point x="512" y="432"/>
      <point x="483" y="404"/>
      <point x="448" y="404" type="curve" smooth="yes"/>
      <point x="412" y="404"/>
      <point x="383" y="432"/>
    </contour>
    <contour>
      <point x="145" y="538" type="curve" smooth="yes"/>
      <point x="145" y="517"/>
      <point x="162" y="500"/>
      <point x="183" y="500" type="curve" smooth="yes"/>
      <point x="204" y="500"/>
      <point x="221" y="517"/>
      <point x="221" y="538" type="curve" smooth="yes"/>
      <point x="221" y="559"/>
      <point x="204" y="576"/>
      <point x="183" y="576" type="curve" smooth="yes"/>
      <point x="162" y="576"/>
      <point x="145" y="559"/>
    </contour>
    <contour>
      <point x="118" y="538" type="curve" smooth="yes"/>
      <point x="118" y="574"/>
      <point x="147" y="602"/>
      <point x="183" y="602" type="curve" smooth="yes"/>
      <point x="218" y="602"/>
      <point x="247" y="574"/>
      <point x="247" y="538" type="curve" smooth="yes"/>
      <point x="247" y="502"/>
      <point x="218" y="474"/>
      <point x="183" y="474" type="curve" smooth="yes"/>
      <point x="147" y="474"/>
      <point x="118" y="502"/>
    </contour>
    <contour>
      <point x="31" y="213" type="curve" smooth="yes"/>
      <point x="31" y="323"/>
      <point x="95" y="381"/>
      <point x="170" y="422" type="curve" smooth="yes"/>
      <point x="223" y="450"/>
      <point x="251" y="468"/>
      <point x="304" y="517" type="curve" smooth="yes"/>
      <point x="348" y="559"/>
      <point x="367" y="624"/>
      <point x="405" y="624" type="curve" smooth="yes"/>
      <point x="423" y="624"/>
      <point x="432" y="615"/>
      <point x="432" y="603" type="curve" smooth="yes"/>
      <point x="432" y="583"/>
      <point x="409" y="555"/>
      <point x="360" y="514" type="curve" smooth="yes"/>
      <point x="327" y="487"/>
      <point x="291" y="461"/>
      <point x="247" y="436" type="curve"/>
      <point x="252" y="437"/>
      <point x="253" y="437"/>
      <point x="262" y="437" type="curve" smooth="yes"/>
      <point x="333" y="437"/>
      <point x="388" y="413"/>
      <point x="430" y="366" type="curve" smooth="yes"/>
      <point x="465" y="326"/>
      <point x="482" y="281"/>
      <point x="482" y="225" type="curve" smooth="yes"/>
      <point x="482" y="102"/>
      <point x="384" y="0"/>
      <point x="248" y="0" type="curve" smooth="yes"/>
      <point x="124" y="0"/>
      <point x="31" y="89"/>
    </contour>
    <contour>
      <point x="68" y="241" type="curve" smooth="yes"/>
      <point x="68" y="154"/>
      <point x="130" y="85"/>
      <point x="238" y="85" type="curve" smooth="yes"/>
      <point x="343" y="85"/>
      <point x="426" y="157"/>
      <point x="426" y="261" type="curve" smooth="yes"/>
      <point x="426" y="357"/>
      <point x="355" y="413"/>
      <point x="263" y="413" type="curve" smooth="yes"/>
      <point x="170" y="413"/>
      <point x="68" y="341"/>
    </contour>
  </outline>
</glyph>
<glyph name="si_U" format="1">
  <advance width="651"/>
  <unicode hex="0D8B"/>
  <outline>
    <contour>
      <point x="32" y="99" type="curve" smooth="yes"/>
      <point x="32" y="210"/>
      <point x="121" y="296"/>
      <point x="264" y="296" type="curve" smooth="yes"/>
      <point x="506" y="296" type="line"/>
      <point x="503" y="346"/>
      <point x="460" y="389"/>
      <point x="409" y="389" type="curve" smooth="yes"/>
      <point x="383" y="389"/>
      <point x="364" y="377"/>
      <point x="350" y="354" type="curve" smooth="yes"/>
      <point x="342" y="342"/>
      <point x="332" y="327"/>
      <point x="306" y="327" type="curve" smooth="yes"/>
      <point x="283" y="327"/>
      <point x="267" y="345"/>
      <point x="267" y="365" type="curve" smooth="yes"/>
      <point x="267" y="410"/>
      <point x="313" y="432"/>
      <point x="376" y="432" type="curve" smooth="yes"/>
      <point x="469" y="432"/>
      <point x="539" y="370"/>
      <point x="539" y="276" type="curve" smooth="yes"/>
      <point x="539" y="274"/>
      <point x="539" y="272"/>
      <point x="539" y="270" type="curve"/>
      <point x="309" y="270" type="line" smooth="yes"/>
      <point x="185" y="270"/>
      <point x="124" y="205"/>
      <point x="124" y="111" type="curve" smooth="yes"/>
      <point x="124" y="-29"/>
      <point x="228" y="-122"/>
      <point x="351" y="-122" type="curve" smooth="yes"/>
      <point x="469" y="-122"/>
      <point x="573" y="-39"/>
      <point x="573" y="69" type="curve"/>
      <point x="603" y="69" type="line"/>
      <point x="603" y="-64"/>
      <point x="480" y="-161"/>
      <point x="328" y="-161" type="curve" smooth="yes"/>
      <point x="177" y="-161"/>
      <point x="32" y="-62"/>
    </contour>
  </outline>
</glyph>
<glyph name="uni0D8D" format="1">
  <advance width="894"/>
  <unicode hex="0D8D"/>
  <outline>
    <contour>
      <point x="31" y="154" type="curve" smooth="yes"/>
      <point x="31" y="255"/>
      <point x="108" y="316"/>
      <point x="208" y="316" type="curve" smooth="yes"/>
      <point x="222" y="316"/>
      <point x="249" y="314"/>
      <point x="262" y="310" type="curve"/>
      <point x="262" y="312"/>
      <point x="262" y="311"/>
      <point x="262" y="313" type="curve" smooth="yes"/>
      <point x="262" y="357"/>
      <point x="230" y="394"/>
      <point x="194" y="394" type="curve" smooth="yes"/>
      <point x="154" y="394"/>
      <point x="143" y="370"/>
      <point x="138" y="354" type="curve" smooth="yes"/>
      <point x="131" y="335"/>
      <point x="121" y="323"/>
      <point x="98" y="323" type="curve" smooth="yes"/>
      <point x="81" y="323"/>
      <point x="62" y="333"/>
      <point x="62" y="359" type="curve" smooth="yes"/>
      <point x="62" y="406"/>
      <point x="112" y="432"/>
      <point x="167" y="432" type="curve" smooth="yes"/>
      <point x="255" y="432"/>
      <point x="293" y="369"/>
      <point x="293" y="296" type="curve" smooth="yes"/>
      <point x="293" y="293"/>
      <point x="293" y="288"/>
      <point x="293" y="281" type="curve"/>
      <point x="274" y="285"/>
      <point x="239" y="290"/>
      <point x="210" y="290" type="curve" smooth="yes"/>
      <point x="143" y="290"/>
      <point x="74" y="257"/>
      <point x="74" y="182" type="curve" smooth="yes"/>
      <point x="74" y="127"/>
      <point x="124" y="84"/>
      <point x="194" y="84" type="curve" smooth="yes"/>
      <point x="250" y="84"/>
      <point x="301" y="112"/>
      <point x="301" y="161" type="curve" smooth="yes"/>
      <point x="301" y="188" type="line"/>
      <point x="328" y="188" type="line"/>
      <point x="328" y="161" type="line" smooth="yes"/>
      <point x="328" y="107"/>
      <point x="384" y="84"/>
      <point x="446" y="84" type="curve" smooth="yes"/>
      <point x="516" y="84"/>
      <point x="565" y="125"/>
      <point x="565" y="183" type="curve" smooth="yes"/>
      <point x="565" y="254"/>
      <point x="510" y="290"/>
      <point x="432" y="290" type="curve" smooth="yes"/>
      <point x="400" y="290"/>
      <point x="371" y="288"/>
      <point x="333" y="281" type="curve"/>
      <point x="333" y="285"/>
      <point x="333" y="287"/>
      <point x="333" y="291" type="curve" smooth="yes"/>
      <point x="333" y="375"/>
      <point x="381" y="432"/>
      <point x="456" y="432" type="curve" smooth="yes"/>
      <point x="510" y="432"/>
      <point x="559" y="408"/>
      <point x="559" y="350" type="curve" smooth="yes"/>
      <point x="559" y="329"/>
      <point x="545" y="306"/>
      <point x="530" y="297" type="curve"/>
      <point x="578" y="274"/>
      <point x="608" y="221"/>
      <point x="608" y="166" type="curve" smooth="yes"/>
      <point x="608" y="58"/>
      <point x="538" y="0"/>
      <point x="440" y="0" type="curve" smooth="yes"/>
      <point x="375" y="0"/>
      <point x="332" y="31"/>
      <point x="313" y="82" type="curve"/>
      <point x="292" y="30"/>
      <point x="251" y="-1"/>
      <point x="183" y="-1" type="curve" smooth="yes"/>
      <point x="88" y="-1"/>
      <point x="31" y="76"/>
    </contour>
    <contour>
      <point x="363" y="310" type="curve"/>
      <point x="374" y="313"/>
      <point x="401" y="316"/>
      <point x="425" y="316" type="curve" smooth="yes"/>
      <point x="459" y="316"/>
      <point x="482" y="313"/>
      <point x="504" y="306" type="curve"/>
      <point x="516" y="318"/>
      <point x="519" y="333"/>
      <point x="519" y="345" type="curve" smooth="yes"/>
      <point x="519" y="378"/>
      <point x="486" y="392"/>
      <point x="450" y="392" type="curve" smooth="yes"/>
      <point x="398" y="392"/>
      <point x="367" y="364"/>
    </contour>
    <component base="uni0DD8" xOffset="584"/>
  </outline>
</glyph>
<glyph name="si_E" format="1">
  <advance width="595"/>
  <unicode hex="0D91"/>
  <outline>
    <contour>
      <point x="45" y="165" type="curve" smooth="yes"/>
      <point x="45" y="196"/>
      <point x="55" y="228"/>
      <point x="78" y="248" type="curve" smooth="yes"/>
      <point x="94" y="262"/>
      <point x="113" y="273"/>
      <point x="139" y="278" type="curve"/>
      <point x="173" y="290"/>
      <point x="214" y="302"/>
      <point x="251" y="302" type="curve" smooth="yes"/>
      <point x="263" y="302" type="line"/>
      <point x="263" y="304"/>
      <point x="263" y="306"/>
      <point x="263" y="308" type="curve" smooth="yes"/>
      <point x="263" y="356"/>
      <point x="228" y="394"/>
      <point x="191" y="394" type="curve" smooth="yes"/>
      <point x="155" y="394"/>
      <point x="145" y="373"/>
      <point x="140" y="356" type="curve" smooth="yes"/>
      <point x="135" y="335"/>
      <point x="124" y="323"/>
      <point x="101" y="323" type="curve" smooth="yes"/>
      <point x="85" y="323"/>
      <point x="64" y="333"/>
      <point x="64" y="360" type="curve" smooth="yes"/>
      <point x="64" y="404"/>
      <point x="108" y="432"/>
      <point x="166" y="432" type="curve" smooth="yes"/>
      <point x="254" y="432"/>
      <point x="295" y="363"/>
      <point x="295" y="290" type="curve" smooth="yes"/>
      <point x="295" y="287"/>
      <point x="295" y="280"/>
      <point x="295" y="277" type="curve"/>
      <point x="231" y="277" type="line" smooth="yes"/>
      <point x="187" y="277"/>
      <point x="149" y="266"/>
      <point x="124" y="250" type="curve" smooth="yes"/>
      <point x="99" y="234"/>
      <point x="87" y="210"/>
      <point x="87" y="185" type="curve" smooth="yes"/>
      <point x="87" y="104"/>
      <point x="191" y="84"/>
      <point x="279" y="84" type="curve" smooth="yes"/>
      <point x="432" y="84"/>
      <point x="510" y="160"/>
      <point x="510" y="273" type="curve" smooth="yes"/>
      <point x="510" y="329"/>
      <point x="494" y="378"/>
      <point x="471" y="412" type="curve"/>
      <point x="456" y="379"/>
      <point x="426" y="359"/>
      <point x="383" y="359" type="curve" smooth="yes"/>
      <point x="320" y="359"/>
      <point x="283" y="414"/>
      <point x="283" y="480" type="curve" smooth="yes"/>
      <point x="283" y="530"/>
      <point x="298" y="566"/>
      <point x="325" y="597" type="curve"/>
      <point x="386" y="564"/>
      <point x="457" y="492"/>
      <point x="493" y="430" type="curve" smooth="yes"/>
      <point x="532" y="363"/>
      <point x="545" y="315"/>
      <point x="545" y="245" type="curve" smooth="yes"/>
      <point x="545" y="117"/>
      <point x="459" y="0"/>
      <point x="276" y="0" type="curve" smooth="yes"/>
      <point x="155" y="0"/>
      <point x="45" y="46"/>
    </contour>
    <contour>
      <point x="16" y="270" type="curve"/>
      <point x="16" y="302" type="line"/>
      <point x="261" y="302" type="line"/>
      <point x="291" y="277" type="line"/>
      <point x="129" y="277" type="line" smooth="yes"/>
      <point x="58" y="276"/>
      <point x="32" y="273"/>
    </contour>
    <contour>
      <point x="314" y="485" type="curve" smooth="yes"/>
      <point x="314" y="436"/>
      <point x="336" y="397"/>
      <point x="391" y="397" type="curve" smooth="yes"/>
      <point x="414" y="397"/>
      <point x="441" y="408"/>
      <point x="451" y="440" type="curve"/>
      <point x="421" y="486"/>
      <point x="372" y="531"/>
      <point x="334" y="559" type="curve"/>
      <point x="323" y="542"/>
      <point x="314" y="519"/>
    </contour>
  </outline>
</glyph>
<glyph name="uni0D92" format="1">
  <advance width="595"/>
  <unicode hex="0D92"/>
  <outline>
    <contour>
      <point x="440" y="444" type="line"/>
      <point x="440" y="694" type="line"/>
      <point x="496" y="649"/>
      <point x="595" y="650"/>
      <point x="595" y="555" type="curve" smooth="yes"/>
      <point x="595" y="513"/>
      <point x="562" y="483"/>
      <point x="514" y="483" type="curve" smooth="yes"/>
      <point x="499" y="483"/>
      <point x="484" y="486"/>
      <point x="469" y="492" type="curve"/>
      <point x="469" y="427" type="line"/>
    </contour>
    <contour>
      <point x="469" y="515" type="line"/>
      <point x="478" y="511"/>
      <point x="488" y="509"/>
      <point x="501" y="509" type="curve" smooth="yes"/>
      <point x="543" y="509"/>
      <point x="554" y="534"/>
      <point x="554" y="557" type="curve" smooth="yes"/>
      <point x="554" y="598"/>
      <point x="524" y="618"/>
      <point x="469" y="648" type="curve"/>
    </contour>
    <contour>
      <point x="45" y="165" type="curve" smooth="yes"/>
      <point x="45" y="196"/>
      <point x="55" y="228"/>
      <point x="78" y="248" type="curve" smooth="yes"/>
      <point x="94" y="262"/>
      <point x="113" y="273"/>
      <point x="139" y="278" type="curve"/>
      <point x="173" y="290"/>
      <point x="208" y="302"/>
      <point x="245" y="302" type="curve" smooth="yes"/>
      <point x="257" y="302" type="line"/>
      <point x="257" y="304"/>
      <point x="257" y="306"/>
      <point x="257" y="308" type="curve" smooth="yes"/>
      <point x="257" y="347"/>
      <point x="231" y="388"/>
      <point x="194" y="388" type="curve" smooth="yes"/>
      <point x="158" y="388"/>
      <point x="146" y="365"/>
      <point x="140" y="349" type="curve" smooth="yes"/>
      <point x="133" y="329"/>
      <point x="123" y="317"/>
      <point x="101" y="317" type="curve" smooth="yes"/>
      <point x="84" y="317"/>
      <point x="64" y="327"/>
      <point x="64" y="353" type="curve" smooth="yes"/>
      <point x="64" y="400"/>
      <point x="113" y="426"/>
      <point x="168" y="426" type="curve" smooth="yes"/>
      <point x="256" y="426"/>
      <point x="289" y="354"/>
      <point x="289" y="290" type="curve" smooth="yes"/>
      <point x="289" y="287"/>
      <point x="289" y="280"/>
      <point x="289" y="277" type="curve"/>
      <point x="231" y="277" type="line" smooth="yes"/>
      <point x="187" y="277"/>
      <point x="149" y="266"/>
      <point x="124" y="250" type="curve" smooth="yes"/>
      <point x="99" y="234"/>
      <point x="87" y="210"/>
      <point x="87" y="185" type="curve" smooth="yes"/>
      <point x="87" y="104"/>
      <point x="191" y="84"/>
      <point x="279" y="84" type="curve" smooth="yes"/>
      <point x="432" y="84"/>
      <point x="510" y="163"/>
      <point x="510" y="268" type="curve" smooth="yes"/>
      <point x="510" y="324"/>
      <point x="494" y="360"/>
      <point x="471" y="394" type="curve"/>
      <point x="456" y="361"/>
      <point x="426" y="341"/>
      <point x="383" y="341" type="curve" smooth="yes"/>
      <point x="320" y="341"/>
      <point x="283" y="396"/>
      <point x="283" y="462" type="curve" smooth="yes"/>
      <point x="283" y="512"/>
      <point x="298" y="548"/>
      <point x="325" y="579" type="curve"/>
      <point x="386" y="546"/>
      <point x="455" y="472"/>
      <point x="493" y="412" type="curve" smooth="yes"/>
      <point x="530" y="354"/>
      <point x="545" y="310"/>
      <point x="545" y="240" type="curve" smooth="yes"/>
      <point x="545" y="119"/>
      <point x="459" y="0"/>
      <point x="276" y="0" type="curve" smooth="yes"/>
      <point x="155" y="0"/>
      <point x="45" y="46"/>
    </contour>
    <contour>
      <point x="16" y="270" type="curve"/>
      <point x="16" y="302" type="line"/>
      <point x="255" y="302" type="line"/>
      <point x="285" y="277" type="line"/>
      <point x="129" y="277" type="line" smooth="yes"/>
      <point x="58" y="276"/>
      <point x="32" y="273"/>
    </contour>
    <contour>
      <point x="314" y="467" type="curve" smooth="yes"/>
      <point x="314" y="418"/>
      <point x="336" y="379"/>
      <point x="391" y="379" type="curve" smooth="yes"/>
      <point x="414" y="379"/>
      <point x="441" y="390"/>
      <point x="451" y="422" type="curve"/>
      <point x="421" y="468"/>
      <point x="372" y="513"/>
      <point x="334" y="541" type="curve"/>
      <point x="323" y="524"/>
      <point x="314" y="501"/>
    </contour>
  </outline>
</glyph>
<glyph name="si_Os" format="1">
  <advance width="636"/>
  <unicode hex="0D94"/>
  <outline>
    <contour>
      <point x="274" y="363" type="curve" smooth="yes"/>
      <point x="274" y="337"/>
      <point x="295" y="316"/>
      <point x="321" y="316" type="curve" smooth="yes"/>
      <point x="347" y="316"/>
      <point x="368" y="337"/>
      <point x="368" y="363" type="curve" smooth="yes"/>
      <point x="368" y="388"/>
      <point x="347" y="409"/>
      <point x="321" y="409" type="curve" smooth="yes"/>
      <point x="295" y="409"/>
      <point x="274" y="388"/>
    </contour>
    <contour>
      <point x="30" y="224" type="curve" smooth="yes"/>
      <point x="30" y="332"/>
      <point x="74" y="432"/>
      <point x="148" y="432" type="curve" smooth="yes"/>
      <point x="167" y="432"/>
      <point x="173" y="428"/>
      <point x="180" y="423" type="curve" smooth="yes"/>
      <point x="191" y="415"/>
      <point x="199" y="401"/>
      <point x="199" y="371" type="curve" smooth="yes"/>
      <point x="199" y="357"/>
      <point x="199" y="340"/>
      <point x="199" y="337" type="curve" smooth="yes"/>
      <point x="199" y="284"/>
      <point x="240" y="254"/>
      <point x="295" y="254" type="curve" smooth="yes"/>
      <point x="348" y="254"/>
      <point x="389" y="281"/>
      <point x="389" y="326" type="curve" smooth="yes"/>
      <point x="389" y="327"/>
      <point x="389" y="329"/>
      <point x="388" y="331" type="curve"/>
      <point x="382" y="318"/>
      <point x="360" y="288"/>
      <point x="318" y="288" type="curve" smooth="yes"/>
      <point x="271" y="288"/>
      <point x="245" y="324"/>
      <point x="245" y="360" type="curve" smooth="yes"/>
      <point x="245" y="402"/>
      <point x="276" y="434"/>
      <point x="322" y="434" type="curve" smooth="yes"/>
      <point x="382" y="434"/>
      <point x="418" y="389"/>
      <point x="418" y="330" type="curve" smooth="yes"/>
      <point x="418" y="267"/>
      <point x="367" y="224"/>
      <point x="296" y="224" type="curve" smooth="yes"/>
      <point x="224" y="224"/>
      <point x="172" y="266"/>
      <point x="172" y="339" type="curve" smooth="yes"/>
      <point x="172" y="344"/>
      <point x="172" y="363"/>
      <point x="172" y="372" type="curve" smooth="yes"/>
      <point x="172" y="392"/>
      <point x="167" y="405"/>
      <point x="145" y="405" type="curve" smooth="yes"/>
      <point x="95" y="405"/>
      <point x="63" y="327"/>
      <point x="63" y="259" type="curve" smooth="yes"/>
      <point x="63" y="159"/>
      <point x="118" y="83"/>
      <point x="200" y="83" type="curve" smooth="yes"/>
      <point x="273" y="83"/>
      <point x="293" y="120"/>
      <point x="293" y="153" type="curve" smooth="yes"/>
      <point x="293" y="175" type="line"/>
      <point x="317" y="175" type="line"/>
      <point x="317" y="152" type="line" smooth="yes"/>
      <point x="317" y="110"/>
      <point x="353" y="84"/>
      <point x="409" y="84" type="curve" smooth="yes"/>
      <point x="505" y="84"/>
      <point x="550" y="191"/>
      <point x="550" y="293" type="curve" smooth="yes"/>
      <point x="550" y="434"/>
      <point x="458" y="555"/>
      <point x="298" y="555" type="curve" smooth="yes"/>
      <point x="199" y="555"/>
      <point x="140" y="524"/>
      <point x="93" y="466" type="curve"/>
      <point x="62" y="466" type="line"/>
      <point x="107" y="531"/>
      <point x="175" y="578"/>
      <point x="302" y="578" type="curve" smooth="yes"/>
      <point x="486" y="578"/>
      <point x="590" y="431"/>
      <point x="590" y="254" type="curve" smooth="yes"/>
      <point x="590" y="127"/>
      <point x="543" y="0"/>
      <point x="406" y="0" type="curve" smooth="yes"/>
      <point x="365" y="0"/>
      <point x="321" y="16"/>
      <point x="305" y="55" type="curve"/>
      <point x="283" y="15"/>
      <point x="246" y="0"/>
      <point x="196" y="0" type="curve" smooth="yes"/>
      <point x="78" y="0"/>
      <point x="30" y="127"/>
    </contour>
  </outline>
</glyph>
<glyph name="uni0D9A" format="1">
  <advance width="746"/>
  <unicode hex="0D9A"/>
  <outline>
    <contour>
      <point x="21" y="22" type="line"/>
      <point x="29" y="91"/>
      <point x="74" y="184"/>
      <point x="109" y="232" type="curve" smooth="yes"/>
      <point x="135" y="268"/>
      <point x="150" y="282"/>
      <point x="169" y="302" type="curve"/>
      <point x="180" y="314"/>
      <point x="193" y="330"/>
      <point x="193" y="352" type="curve" smooth="yes"/>
      <point x="193" y="373"/>
      <point x="183" y="391"/>
      <point x="158" y="391" type="curve" smooth="yes"/>
      <point x="144" y="391"/>
      <point x="123" y="383"/>
      <point x="117" y="363" type="curve" smooth="yes"/>
      <point x="111" y="340"/>
      <point x="115" y="340"/>
      <point x="107" y="323" type="curve" smooth="yes"/>
      <point x="100" y="305"/>
      <point x="85" y="297"/>
      <point x="70" y="297" type="curve" smooth="yes"/>
      <point x="35" y="297"/>
      <point x="29" y="328"/>
      <point x="29" y="340" type="curve" smooth="yes"/>
      <point x="29" y="394"/>
      <point x="79" y="433"/>
      <point x="136" y="433" type="curve" smooth="yes"/>
      <point x="186" y="433"/>
      <point x="220" y="401"/>
      <point x="220" y="356" type="curve" smooth="yes"/>
      <point x="220" y="351"/>
      <point x="220" y="347"/>
      <point x="219" y="341" type="curve"/>
      <point x="280" y="400"/>
      <point x="366" y="434"/>
      <point x="453" y="434" type="curve" smooth="yes"/>
      <point x="603" y="434"/>
      <point x="701" y="328"/>
      <point x="701" y="192" type="curve" smooth="yes"/>
      <point x="701" y="110"/>
      <point x="659" y="-1"/>
      <point x="555" y="-1" type="curve" smooth="yes"/>
      <point x="541" y="-1"/>
      <point x="519" y="2"/>
      <point x="506" y="11" type="curve"/>
      <point x="506" y="38" type="line"/>
      <point x="516" y="31"/>
      <point x="533" y="27"/>
      <point x="554" y="27" type="curve" smooth="yes"/>
      <point x="603" y="27"/>
      <point x="639" y="79"/>
      <point x="639" y="147" type="curve" smooth="yes"/>
      <point x="639" y="286"/>
      <point x="522" y="364"/>
      <point x="392" y="364" type="curve" smooth="yes"/>
      <point x="321" y="364"/>
      <point x="262" y="345"/>
      <point x="218" y="307" type="curve"/>
      <point x="243" y="314"/>
      <point x="276" y="316"/>
      <point x="303" y="316" type="curve" smooth="yes"/>
      <point x="423" y="316"/>
      <point x="515" y="251"/>
      <point x="515" y="126" type="curve" smooth="yes"/>
      <point x="515" y="68"/>
      <point x="482" y="-1"/>
      <point x="397" y="-1" type="curve" smooth="yes"/>
      <point x="351" y="-1"/>
      <point x="317" y="20"/>
      <point x="296" y="63" type="curve"/>
      <point x="279" y="22"/>
      <point x="246" y="-1"/>
      <point x="204" y="-1" type="curve" smooth="yes"/>
      <point x="117" y="-1"/>
      <point x="120" y="73"/>
      <point x="87" y="73" type="curve" smooth="yes"/>
      <point x="65" y="73"/>
      <point x="50" y="51"/>
      <point x="47" y="11" type="curve"/>
    </contour>
    <contour>
      <point x="74" y="104" type="curve"/>
      <point x="81" y="108"/>
      <point x="88" y="111"/>
      <point x="96" y="111" type="curve" smooth="yes"/>
      <point x="126" y="111"/>
      <point x="148" y="84"/>
      <point x="201" y="84" type="curve" smooth="yes"/>
      <point x="251" y="84"/>
      <point x="281" y="112"/>
      <point x="281" y="172" type="curve" smooth="yes"/>
      <point x="281" y="174"/>
      <point x="281" y="171"/>
      <point x="281" y="173" type="curve"/>
      <point x="307" y="173" type="line"/>
      <point x="307" y="172"/>
      <point x="307" y="173"/>
      <point x="307" y="172" type="curve" smooth="yes"/>
      <point x="307" y="108"/>
      <point x="334" y="84"/>
      <point x="389" y="84" type="curve" smooth="yes"/>
      <point x="447" y="84"/>
      <point x="468" y="132"/>
      <point x="468" y="167" type="curve" smooth="yes"/>
      <point x="468" y="243"/>
      <point x="401" y="290"/>
      <point x="299" y="290" type="curve" smooth="yes"/>
      <point x="242" y="290"/>
      <point x="203" y="282"/>
      <point x="182" y="272" type="curve"/>
      <point x="165" y="257"/>
      <point x="145" y="235"/>
      <point x="129" y="212" type="curve" smooth="yes"/>
      <point x="101" y="171"/>
      <point x="85" y="138"/>
    </contour>
  </outline>
</glyph>
<glyph name="si_Kha" format="1">
  <advance width="630"/>
  <unicode hex="0D9B"/>
  <outline>
    <contour>
      <point x="93" y="72" type="curve" smooth="yes"/>
      <point x="93" y="48"/>
      <point x="112" y="29"/>
      <point x="136" y="29" type="curve" smooth="yes"/>
      <point x="160" y="29"/>
      <point x="179" y="48"/>
      <point x="179" y="72" type="curve" smooth="yes"/>
      <point x="179" y="96"/>
      <point x="160" y="115"/>
      <point x="136" y="115" type="curve" smooth="yes"/>
      <point x="112" y="115"/>
      <point x="93" y="96"/>
    </contour>
    <contour>
      <point x="32" y="183" type="curve" smooth="yes"/>
      <point x="32" y="322"/>
      <point x="124" y="396"/>
      <point x="240" y="396" type="curve" smooth="yes"/>
      <point x="333" y="396"/>
      <point x="413" y="343"/>
      <point x="413" y="258" type="curve" smooth="yes"/>
      <point x="413" y="201"/>
      <point x="386" y="157"/>
      <point x="353" y="124" type="curve"/>
      <point x="356" y="125"/>
      <point x="359" y="125"/>
      <point x="362" y="125" type="curve" smooth="yes"/>
      <point x="391" y="125"/>
      <point x="394" y="80"/>
      <point x="436" y="80" type="curve" smooth="yes"/>
      <point x="501" y="80"/>
      <point x="543" y="201"/>
      <point x="543" y="304" type="curve" smooth="yes"/>
      <point x="543" y="465"/>
      <point x="445" y="576"/>
      <point x="294" y="576" type="curve" smooth="yes"/>
      <point x="205" y="576"/>
      <point x="139" y="542"/>
      <point x="97" y="470" type="curve"/>
      <point x="64" y="470" type="line"/>
      <point x="109" y="553"/>
      <point x="186" y="601"/>
      <point x="298" y="601" type="curve" smooth="yes"/>
      <point x="464" y="601"/>
      <point x="584" y="473"/>
      <point x="584" y="286" type="curve" smooth="yes"/>
      <point x="584" y="150"/>
      <point x="524" y="0"/>
      <point x="416" y="0" type="curve" smooth="yes"/>
      <point x="352" y="0"/>
      <point x="348" y="54"/>
      <point x="321" y="54" type="curve" smooth="yes"/>
      <point x="308" y="54"/>
      <point x="282" y="34"/>
      <point x="240" y="-21" type="curve"/>
      <point x="204" y="-18" type="line"/>
      <point x="217" y="-5"/>
      <point x="246" y="34"/>
      <point x="288" y="84" type="curve" smooth="yes"/>
      <point x="340" y="146"/>
      <point x="363" y="191"/>
      <point x="363" y="226" type="curve" smooth="yes"/>
      <point x="363" y="277"/>
      <point x="328" y="312"/>
      <point x="236" y="312" type="curve" smooth="yes"/>
      <point x="155" y="312"/>
      <point x="64" y="263"/>
      <point x="64" y="153" type="curve" smooth="yes"/>
      <point x="64" y="141"/>
      <point x="67" y="118"/>
      <point x="72" y="102" type="curve"/>
      <point x="80" y="130"/>
      <point x="108" y="146"/>
      <point x="135" y="146" type="curve" smooth="yes"/>
      <point x="181" y="146"/>
      <point x="210" y="117"/>
      <point x="210" y="72" type="curve" smooth="yes"/>
      <point x="210" y="37"/>
      <point x="180" y="-1"/>
      <point x="141" y="-1" type="curve" smooth="yes"/>
      <point x="56" y="-1"/>
      <point x="32" y="108"/>
    </contour>
  </outline>
</glyph>
<glyph name="si_Ga" format="1">
  <advance width="636"/>
  <unicode hex="0D9C"/>
  <outline>
    <contour>
      <point x="34" y="207" type="curve" smooth="yes"/>
      <point x="34" y="330"/>
      <point x="109" y="432"/>
      <point x="220" y="432" type="curve" smooth="yes"/>
      <point x="224" y="432"/>
      <point x="229" y="431"/>
      <point x="233" y="431" type="curve"/>
      <point x="233" y="407" type="line"/>
      <point x="230" y="407"/>
      <point x="225" y="407"/>
      <point x="222" y="407" type="curve" smooth="yes"/>
      <point x="136" y="407"/>
      <point x="73" y="331"/>
      <point x="73" y="235" type="curve" smooth="yes"/>
      <point x="73" y="154"/>
      <point x="122" y="84"/>
      <point x="207" y="84" type="curve" smooth="yes"/>
      <point x="266" y="84"/>
      <point x="314" y="111"/>
      <point x="314" y="164" type="curve" smooth="yes"/>
      <point x="314" y="200"/>
      <point x="294" y="218"/>
      <point x="267" y="218" type="curve" smooth="yes"/>
      <point x="260" y="218"/>
      <point x="250" y="215"/>
      <point x="244" y="211" type="curve"/>
      <point x="243" y="205"/>
      <point x="242" y="195"/>
      <point x="242" y="192" type="curve"/>
      <point x="216" y="192" type="line"/>
      <point x="226" y="318"/>
      <point x="288" y="432"/>
      <point x="410" y="432" type="curve" smooth="yes"/>
      <point x="522" y="432"/>
      <point x="586" y="332"/>
      <point x="586" y="217" type="curve" smooth="yes"/>
      <point x="586" y="95"/>
      <point x="500" y="-1"/>
      <point x="369" y="-1" type="curve" smooth="yes"/>
      <point x="359" y="-1"/>
      <point x="349" y="0"/>
      <point x="338" y="1" type="curve"/>
      <point x="338" y="27" type="line"/>
      <point x="346" y="26"/>
      <point x="354" y="25"/>
      <point x="362" y="25" type="curve" smooth="yes"/>
      <point x="468" y="25"/>
      <point x="535" y="102"/>
      <point x="535" y="195" type="curve" smooth="yes"/>
      <point x="535" y="292"/>
      <point x="480" y="362"/>
      <point x="387" y="362" type="curve" smooth="yes"/>
      <point x="312" y="362"/>
      <point x="262" y="306"/>
      <point x="248" y="237" type="curve"/>
      <point x="255" y="241"/>
      <point x="263" y="242"/>
      <point x="270" y="242" type="curve" smooth="yes"/>
      <point x="318" y="242"/>
      <point x="352" y="202"/>
      <point x="352" y="136" type="curve" smooth="yes"/>
      <point x="352" y="56"/>
      <point x="295" y="-2"/>
      <point x="208" y="-2" type="curve" smooth="yes"/>
      <point x="97" y="-2"/>
      <point x="34" y="96"/>
    </contour>
  </outline>
</glyph>
<glyph name="si_Gha" format="1">
  <advance width="677"/>
  <unicode hex="0D9D"/>
  <outline>
    <contour>
      <point x="51" y="154" type="curve" smooth="yes"/>
      <point x="51" y="226"/>
      <point x="92" y="269"/>
      <point x="144" y="285" type="curve"/>
      <point x="178" y="297"/>
      <point x="232" y="308"/>
      <point x="269" y="308" type="curve" smooth="yes"/>
      <point x="280" y="308" type="line"/>
      <point x="280" y="310"/>
      <point x="280" y="310"/>
      <point x="280" y="312" type="curve" smooth="yes"/>
      <point x="280" y="359"/>
      <point x="249" y="394"/>
      <point x="212" y="394" type="curve" smooth="yes"/>
      <point x="176" y="394"/>
      <point x="165" y="372"/>
      <point x="158" y="355" type="curve" smooth="yes"/>
      <point x="152" y="336"/>
      <point x="141" y="322"/>
      <point x="119" y="322" type="curve" smooth="yes"/>
      <point x="101" y="322"/>
      <point x="82" y="333"/>
      <point x="82" y="359" type="curve" smooth="yes"/>
      <point x="82" y="406"/>
      <point x="132" y="432"/>
      <point x="187" y="432" type="curve" smooth="yes"/>
      <point x="275" y="432"/>
      <point x="313" y="369"/>
      <point x="313" y="295" type="curve" smooth="yes"/>
      <point x="313" y="292"/>
      <point x="313" y="285"/>
      <point x="313" y="282" type="curve"/>
      <point x="217" y="282" type="line" smooth="yes"/>
      <point x="163" y="282"/>
      <point x="93" y="247"/>
      <point x="93" y="180" type="curve" smooth="yes"/>
      <point x="93" y="124"/>
      <point x="143" y="83"/>
      <point x="206" y="83" type="curve" smooth="yes"/>
      <point x="225" y="83"/>
      <point x="240" y="86"/>
      <point x="244" y="90" type="curve"/>
      <point x="243" y="99"/>
      <point x="242" y="110"/>
      <point x="243" y="118" type="curve" smooth="yes"/>
      <point x="245" y="186"/>
      <point x="294" y="206"/>
      <point x="332" y="206" type="curve" smooth="yes"/>
      <point x="370" y="206"/>
      <point x="419" y="186"/>
      <point x="421" y="118" type="curve" smooth="yes"/>
      <point x="422" y="110"/>
      <point x="421" y="99"/>
      <point x="420" y="90" type="curve"/>
      <point x="424" y="86"/>
      <point x="439" y="83"/>
      <point x="458" y="83" type="curve" smooth="yes"/>
      <point x="522" y="83"/>
      <point x="589" y="118"/>
      <point x="589" y="185" type="curve" smooth="yes"/>
      <point x="589" y="249"/>
      <point x="540" y="290"/>
      <point x="448" y="290" type="curve" smooth="yes"/>
      <point x="412" y="290"/>
      <point x="386" y="288"/>
      <point x="353" y="281" type="curve"/>
      <point x="353" y="285"/>
      <point x="353" y="287"/>
      <point x="353" y="291" type="curve" smooth="yes"/>
      <point x="353" y="375"/>
      <point x="401" y="432"/>
      <point x="476" y="432" type="curve" smooth="yes"/>
      <point x="530" y="432"/>
      <point x="579" y="407"/>
      <point x="579" y="350" type="curve" smooth="yes"/>
      <point x="579" y="329"/>
      <point x="566" y="306"/>
      <point x="550" y="297" type="curve"/>
      <point x="597" y="274"/>
      <point x="628" y="221"/>
      <point x="628" y="166" type="curve" smooth="yes"/>
      <point x="628" y="58"/>
      <point x="557" y="-1"/>
      <point x="465" y="-1" type="curve" smooth="yes"/>
      <point x="445" y="-1"/>
      <point x="417" y="2"/>
      <point x="386" y="11" type="curve"/>
      <point x="383" y="17"/>
      <point x="382" y="30"/>
      <point x="382" y="37" type="curve" smooth="yes"/>
      <point x="382" y="72"/>
      <point x="392" y="75"/>
      <point x="392" y="111" type="curve" smooth="yes"/>
      <point x="392" y="156"/>
      <point x="361" y="176"/>
      <point x="332" y="176" type="curve" smooth="yes"/>
      <point x="303" y="176"/>
      <point x="272" y="156"/>
      <point x="272" y="111" type="curve" smooth="yes"/>
      <point x="272" y="75"/>
      <point x="282" y="72"/>
      <point x="282" y="37" type="curve" smooth="yes"/>
      <point x="282" y="30"/>
      <point x="281" y="17"/>
      <point x="278" y="11" type="curve"/>
      <point x="247" y="2"/>
      <point x="219" y="-1"/>
      <point x="199" y="-1" type="curve" smooth="yes"/>
      <point x="108" y="-1"/>
      <point x="51" y="76"/>
    </contour>
    <contour>
      <point x="5" y="275" type="curve"/>
      <point x="5" y="308" type="line"/>
      <point x="278" y="308" type="line"/>
      <point x="309" y="282" type="line"/>
      <point x="147" y="282" type="line" smooth="yes"/>
      <point x="76" y="281"/>
      <point x="21" y="278"/>
    </contour>
    <contour>
      <point x="383" y="310" type="curve"/>
      <point x="396" y="314"/>
      <point x="419" y="316"/>
      <point x="445" y="316" type="curve" smooth="yes"/>
      <point x="479" y="316"/>
      <point x="511" y="311"/>
      <point x="524" y="306" type="curve"/>
      <point x="536" y="318"/>
      <point x="539" y="333"/>
      <point x="539" y="346" type="curve" smooth="yes"/>
      <point x="539" y="378"/>
      <point x="505" y="392"/>
      <point x="470" y="392" type="curve" smooth="yes"/>
      <point x="418" y="392"/>
      <point x="388" y="365"/>
    </contour>
  </outline>
</glyph>
<glyph name="uni0DA0" format="1">
  <advance width="597"/>
  <unicode hex="0DA0"/>
  <outline>
    <contour>
      <point x="64" y="165" type="curve" smooth="yes"/>
      <point x="64" y="196"/>
      <point x="74" y="228"/>
      <point x="97" y="248" type="curve" smooth="yes"/>
      <point x="113" y="262"/>
      <point x="132" y="273"/>
      <point x="158" y="278" type="curve"/>
      <point x="192" y="290"/>
      <point x="233" y="302"/>
      <point x="270" y="302" type="curve" smooth="yes"/>
      <point x="286" y="302" type="line"/>
      <point x="286" y="304"/>
      <point x="286" y="306"/>
      <point x="286" y="308" type="curve" smooth="yes"/>
      <point x="286" y="361"/>
      <point x="253" y="394"/>
      <point x="217" y="394" type="curve" smooth="yes"/>
      <point x="174" y="394"/>
      <point x="165" y="371"/>
      <point x="160" y="355" type="curve" smooth="yes"/>
      <point x="153" y="336"/>
      <point x="143" y="322"/>
      <point x="119" y="322" type="curve" smooth="yes"/>
      <point x="103" y="322"/>
      <point x="83" y="333"/>
      <point x="83" y="359" type="curve" smooth="yes"/>
      <point x="83" y="406"/>
      <point x="133" y="432"/>
      <point x="188" y="432" type="curve" smooth="yes"/>
      <point x="276" y="432"/>
      <point x="319" y="376"/>
      <point x="319" y="290" type="curve" smooth="yes"/>
      <point x="319" y="287"/>
      <point x="319" y="279"/>
      <point x="319" y="276" type="curve"/>
      <point x="254" y="276" type="line" smooth="yes"/>
      <point x="208" y="276"/>
      <point x="169" y="265"/>
      <point x="145" y="250" type="curve" smooth="yes"/>
      <point x="118" y="233"/>
      <point x="106" y="209"/>
      <point x="106" y="185" type="curve" smooth="yes"/>
      <point x="106" y="106"/>
      <point x="208" y="84"/>
      <point x="298" y="84" type="curve" smooth="yes"/>
      <point x="451" y="84"/>
      <point x="537" y="169"/>
      <point x="537" y="305" type="curve" smooth="yes"/>
      <point x="537" y="442"/>
      <point x="437" y="553"/>
      <point x="303" y="553" type="curve" smooth="yes"/>
      <point x="224" y="553"/>
      <point x="161" y="524"/>
      <point x="117" y="470" type="curve"/>
      <point x="84" y="470" type="line"/>
      <point x="133" y="540"/>
      <point x="205" y="577"/>
      <point x="303" y="577" type="curve" smooth="yes"/>
      <point x="463" y="577"/>
      <point x="575" y="443"/>
      <point x="575" y="274" type="curve" smooth="yes"/>
      <point x="575" y="114"/>
      <point x="478" y="0"/>
      <point x="295" y="0" type="curve" smooth="yes"/>
      <point x="174" y="0"/>
      <point x="64" y="46"/>
    </contour>
    <contour>
      <point x="14" y="269" type="curve"/>
      <point x="14" y="302" type="line"/>
      <point x="284" y="302" type="line"/>
      <point x="315" y="276" type="line"/>
      <point x="148" y="276" type="line" smooth="yes"/>
      <point x="77" y="275"/>
      <point x="30" y="272"/>
    </contour>
  </outline>
</glyph>
<glyph name="si_Ja" format="1">
  <advance width="598"/>
  <unicode hex="0DA2"/>
  <outline>
    <contour>
      <point x="33" y="170" type="curve" smooth="yes"/>
      <point x="33" y="249"/>
      <point x="96" y="312"/>
      <point x="208" y="312" type="curve" smooth="yes"/>
      <point x="226" y="312"/>
      <point x="227" y="312"/>
      <point x="235" y="311" type="curve"/>
      <point x="236" y="318"/>
      <point x="237" y="324"/>
      <point x="237" y="331" type="curve" smooth="yes"/>
      <point x="237" y="361"/>
      <point x="221" y="390"/>
      <point x="184" y="390" type="curve" smooth="yes"/>
      <point x="162" y="390"/>
      <point x="146" y="376"/>
      <point x="139" y="361" type="curve" smooth="yes"/>
      <point x="128" y="337"/>
      <point x="118" y="322"/>
      <point x="92" y="322" type="curve" smooth="yes"/>
      <point x="72" y="322"/>
      <point x="55" y="336"/>
      <point x="55" y="361" type="curve" smooth="yes"/>
      <point x="55" y="410"/>
      <point x="107" y="432"/>
      <point x="154" y="432" type="curve" smooth="yes"/>
      <point x="221" y="432"/>
      <point x="266" y="393"/>
      <point x="266" y="326" type="curve" smooth="yes"/>
      <point x="266" y="314"/>
      <point x="265" y="300"/>
      <point x="262" y="287" type="curve"/>
      <point x="250" y="288"/>
      <point x="238" y="289"/>
      <point x="229" y="289" type="curve" smooth="yes"/>
      <point x="110" y="289"/>
      <point x="75" y="235"/>
      <point x="75" y="191" type="curve" smooth="yes"/>
      <point x="75" y="108"/>
      <point x="189" y="84"/>
      <point x="292" y="84" type="curve" smooth="yes"/>
      <point x="398" y="84"/>
      <point x="509" y="109"/>
      <point x="509" y="192" type="curve" smooth="yes"/>
      <point x="509" y="238"/>
      <point x="470" y="289"/>
      <point x="355" y="289" type="curve" smooth="yes"/>
      <point x="333" y="289"/>
      <point x="314" y="286"/>
      <point x="300" y="285" type="curve"/>
      <point x="295" y="301"/>
      <point x="293" y="316"/>
      <point x="293" y="331" type="curve" smooth="yes"/>
      <point x="293" y="409"/>
      <point x="350" y="434"/>
      <point x="419" y="434" type="curve" smooth="yes"/>
      <point x="460" y="434"/>
      <point x="520" y="412"/>
      <point x="520" y="353" type="curve" smooth="yes"/>
      <point x="520" y="324"/>
      <point x="503" y="285"/>
      <point x="438" y="285" type="curve" smooth="yes"/>
      <point x="384" y="285"/>
      <point x="363" y="332"/>
      <point x="363" y="374" type="curve" smooth="yes"/>
      <point x="363" y="462"/>
      <point x="411" y="532"/>
      <point x="455" y="572" type="curve" smooth="yes"/>
      <point x="491" y="605"/>
      <point x="522" y="617"/>
      <point x="542" y="617" type="curve" smooth="yes"/>
      <point x="560" y="617"/>
      <point x="568" y="605"/>
      <point x="568" y="594" type="curve" smooth="yes"/>
      <point x="568" y="566"/>
      <point x="502" y="558"/>
      <point x="452" y="510" type="curve" smooth="yes"/>
      <point x="427" y="487"/>
      <point x="391" y="443"/>
      <point x="391" y="373" type="curve" smooth="yes"/>
      <point x="391" y="339"/>
      <point x="407" y="311"/>
      <point x="440" y="311" type="curve" smooth="yes"/>
      <point x="469" y="311"/>
      <point x="489" y="329"/>
      <point x="489" y="355" type="curve" smooth="yes"/>
      <point x="489" y="388"/>
      <point x="459" y="407"/>
      <point x="415" y="407" type="curve" smooth="yes"/>
      <point x="344" y="407"/>
      <point x="323" y="374"/>
      <point x="323" y="334" type="curve" smooth="yes"/>
      <point x="323" y="327"/>
      <point x="324" y="318"/>
      <point x="326" y="309" type="curve"/>
      <point x="334" y="310"/>
      <point x="343" y="311"/>
      <point x="356" y="311" type="curve" smooth="yes"/>
      <point x="447" y="311"/>
      <point x="549" y="283"/>
      <point x="549" y="168" type="curve" smooth="yes"/>
      <point x="549" y="45"/>
      <point x="424" y="0"/>
      <point x="298" y="0" type="curve" smooth="yes"/>
      <point x="160" y="0"/>
      <point x="33" y="44"/>
    </contour>
  </outline>
</glyph>
<glyph name="si_Jha" format="1">
  <advance width="1087"/>
  <unicode hex="0DA3"/>
  <outline>
    <contour>
      <point x="74" y="104" type="curve"/>
      <point x="81" y="108"/>
      <point x="88" y="111"/>
      <point x="96" y="111" type="curve" smooth="yes"/>
      <point x="126" y="111"/>
      <point x="148" y="84"/>
      <point x="201" y="84" type="curve" smooth="yes"/>
      <point x="251" y="84"/>
      <point x="281" y="112"/>
      <point x="281" y="172" type="curve" smooth="yes"/>
      <point x="281" y="174"/>
      <point x="281" y="171"/>
      <point x="281" y="173" type="curve"/>
      <point x="307" y="173" type="line"/>
      <point x="307" y="172"/>
      <point x="307" y="173"/>
      <point x="307" y="172" type="curve" smooth="yes"/>
      <point x="307" y="108"/>
      <point x="334" y="84"/>
      <point x="389" y="84" type="curve" smooth="yes"/>
      <point x="447" y="84"/>
      <point x="468" y="132"/>
      <point x="468" y="167" type="curve" smooth="yes"/>
      <point x="468" y="243"/>
      <point x="401" y="290"/>
      <point x="299" y="290" type="curve" smooth="yes"/>
      <point x="242" y="290"/>
      <point x="203" y="282"/>
      <point x="182" y="272" type="curve"/>
      <point x="165" y="257"/>
      <point x="145" y="235"/>
      <point x="129" y="212" type="curve" smooth="yes"/>
      <point x="101" y="171"/>
      <point x="85" y="138"/>
    </contour>
    <contour>
      <point x="21" y="22" type="line"/>
      <point x="29" y="91"/>
      <point x="74" y="184"/>
      <point x="109" y="232" type="curve" smooth="yes"/>
      <point x="135" y="268"/>
      <point x="150" y="282"/>
      <point x="169" y="302" type="curve"/>
      <point x="180" y="314"/>
      <point x="193" y="330"/>
      <point x="193" y="352" type="curve" smooth="yes"/>
      <point x="193" y="373"/>
      <point x="183" y="391"/>
      <point x="158" y="391" type="curve" smooth="yes"/>
      <point x="144" y="391"/>
      <point x="123" y="383"/>
      <point x="117" y="363" type="curve" smooth="yes"/>
      <point x="111" y="340"/>
      <point x="115" y="340"/>
      <point x="107" y="323" type="curve" smooth="yes"/>
      <point x="100" y="305"/>
      <point x="85" y="297"/>
      <point x="70" y="297" type="curve" smooth="yes"/>
      <point x="35" y="297"/>
      <point x="29" y="328"/>
      <point x="29" y="340" type="curve" smooth="yes"/>
      <point x="29" y="394"/>
      <point x="79" y="433"/>
      <point x="136" y="433" type="curve" smooth="yes"/>
      <point x="186" y="433"/>
      <point x="220" y="401"/>
      <point x="220" y="356" type="curve" smooth="yes"/>
      <point x="220" y="351"/>
      <point x="220" y="347"/>
      <point x="219" y="341" type="curve"/>
      <point x="280" y="397"/>
      <point x="372" y="434"/>
      <point x="473" y="434" type="curve" smooth="yes"/>
      <point x="574" y="434"/>
      <point x="643" y="412"/>
      <point x="671" y="398" type="curve"/>
      <point x="670" y="398"/>
      <point x="614" y="389"/>
      <point x="612" y="389" type="curve"/>
      <point x="569" y="401"/>
      <point x="518" y="405"/>
      <point x="473" y="405" type="curve" smooth="yes"/>
      <point x="340" y="405"/>
      <point x="264" y="347"/>
      <point x="218" y="307" type="curve"/>
      <point x="244" y="314"/>
      <point x="276" y="316"/>
      <point x="303" y="316" type="curve" smooth="yes"/>
      <point x="423" y="316"/>
      <point x="515" y="251"/>
      <point x="515" y="126" type="curve" smooth="yes"/>
      <point x="515" y="68"/>
      <point x="482" y="-1"/>
      <point x="397" y="-1" type="curve" smooth="yes"/>
      <point x="351" y="-1"/>
      <point x="317" y="20"/>
      <point x="296" y="63" type="curve"/>
      <point x="279" y="22"/>
      <point x="246" y="-1"/>
      <point x="204" y="-1" type="curve" smooth="yes"/>
      <point x="117" y="-1"/>
      <point x="120" y="73"/>
      <point x="87" y="73" type="curve" smooth="yes"/>
      <point x="65" y="73"/>
      <point x="50" y="51"/>
      <point x="47" y="11" type="curve"/>
    </contour>
    <contour>
      <point x="483" y="195" type="curve" smooth="yes"/>
      <point x="483" y="288"/>
      <point x="536" y="364"/>
      <point x="602" y="387" type="curve" smooth="yes"/>
      <point x="623" y="394"/>
      <point x="646" y="398"/>
      <point x="671" y="398" type="curve"/>
      <point x="671" y="373" type="line"/>
      <point x="668" y="373"/>
      <point x="664" y="373"/>
      <point x="661" y="373" type="curve" smooth="yes"/>
      <point x="582" y="373"/>
      <point x="521" y="302"/>
      <point x="521" y="218" type="curve" smooth="yes"/>
      <point x="521" y="145"/>
      <point x="566" y="84"/>
      <point x="639" y="84" type="curve" smooth="yes"/>
      <point x="690" y="84"/>
      <point x="740" y="105"/>
      <point x="740" y="169" type="curve" smooth="yes"/>
      <point x="740" y="206" type="line"/>
      <point x="768" y="206" type="line"/>
      <point x="768" y="169" type="line" smooth="yes"/>
      <point x="768" y="105"/>
      <point x="817" y="84"/>
      <point x="866" y="84" type="curve" smooth="yes"/>
      <point x="962" y="84"/>
      <point x="1000" y="190"/>
      <point x="1000" y="288" type="curve" smooth="yes"/>
      <point x="1000" y="439"/>
      <point x="891" y="556"/>
      <point x="744" y="556" type="curve" smooth="yes"/>
      <point x="663" y="556"/>
      <point x="600" y="527"/>
      <point x="547" y="468" type="curve"/>
      <point x="515" y="468" type="line"/>
      <point x="572" y="543"/>
      <point x="650" y="580"/>
      <point x="749" y="580" type="curve" smooth="yes"/>
      <point x="912" y="580"/>
      <point x="1039" y="446"/>
      <point x="1039" y="261" type="curve" smooth="yes"/>
      <point x="1039" y="139"/>
      <point x="998" y="0"/>
      <point x="872" y="0" type="curve" smooth="yes"/>
      <point x="823" y="0"/>
      <point x="783" y="20"/>
      <point x="753" y="59" type="curve"/>
      <point x="722" y="20"/>
      <point x="685" y="0"/>
      <point x="640" y="0" type="curve" smooth="yes"/>
      <point x="538" y="0"/>
      <point x="483" y="96"/>
    </contour>
  </outline>
</glyph>
<glyph name="uni0DA7" format="1">
  <advance width="603"/>
  <unicode hex="0DA7"/>
  <outline>
    <contour>
      <point x="32" y="208" type="curve" smooth="yes"/>
      <point x="32" y="323"/>
      <point x="126" y="391"/>
      <point x="232" y="391" type="curve" smooth="yes"/>
      <point x="259" y="391"/>
      <point x="292" y="386"/>
      <point x="321" y="375" type="curve"/>
      <point x="321" y="345" type="line"/>
      <point x="294" y="358"/>
      <point x="266" y="364"/>
      <point x="234" y="364" type="curve" smooth="yes"/>
      <point x="149" y="364"/>
      <point x="72" y="315"/>
      <point x="72" y="226" type="curve" smooth="yes"/>
      <point x="72" y="127"/>
      <point x="178" y="84"/>
      <point x="276" y="84" type="curve" smooth="yes"/>
      <point x="415" y="84"/>
      <point x="517" y="159"/>
      <point x="517" y="302" type="curve" smooth="yes"/>
      <point x="517" y="432"/>
      <point x="416" y="553"/>
      <point x="275" y="553" type="curve" smooth="yes"/>
      <point x="195" y="553"/>
      <point x="133" y="525"/>
      <point x="91" y="470" type="curve"/>
      <point x="57" y="470" type="line"/>
      <point x="104" y="539"/>
      <point x="177" y="577"/>
      <point x="273" y="577" type="curve" smooth="yes"/>
      <point x="446" y="577"/>
      <point x="557" y="433"/>
      <point x="557" y="271" type="curve" smooth="yes"/>
      <point x="557" y="115"/>
      <point x="447" y="-1"/>
      <point x="285" y="-1" type="curve" smooth="yes"/>
      <point x="133" y="-1"/>
      <point x="32" y="81"/>
    </contour>
  </outline>
</glyph>
<glyph name="uni0DA9" format="1">
  <advance width="647"/>
  <unicode hex="0DA9"/>
  <outline>
    <contour>
      <point x="15" y="287" type="line"/>
      <point x="15" y="315" type="line"/>
      <point x="260" y="315" type="line"/>
      <point x="258" y="357"/>
      <point x="229" y="390"/>
      <point x="198" y="390" type="curve" smooth="yes"/>
      <point x="181" y="390"/>
      <point x="166" y="387"/>
      <point x="152" y="362" type="curve" smooth="yes"/>
      <point x="141" y="344"/>
      <point x="127" y="338"/>
      <point x="113" y="338" type="curve" smooth="yes"/>
      <point x="92" y="338"/>
      <point x="75" y="353"/>
      <point x="75" y="374" type="curve" smooth="yes"/>
      <point x="75" y="414"/>
      <point x="123" y="432"/>
      <point x="165" y="432" type="curve" smooth="yes"/>
      <point x="248" y="432"/>
      <point x="294" y="376"/>
      <point x="295" y="287" type="curve"/>
      <point x="221" y="287" type="line" smooth="yes"/>
      <point x="128" y="287"/>
      <point x="88" y="231"/>
      <point x="88" y="181" type="curve" smooth="yes"/>
      <point x="88" y="130"/>
      <point x="128" y="84"/>
      <point x="199" y="84" type="curve" smooth="yes"/>
      <point x="251" y="84"/>
      <point x="299" y="107"/>
      <point x="299" y="154" type="curve" smooth="yes"/>
      <point x="299" y="186" type="line"/>
      <point x="326" y="186" type="line"/>
      <point x="326" y="154" type="line" smooth="yes"/>
      <point x="326" y="109"/>
      <point x="370" y="84"/>
      <point x="422" y="84" type="curve" smooth="yes"/>
      <point x="514" y="84"/>
      <point x="558" y="173"/>
      <point x="558" y="277" type="curve" smooth="yes"/>
      <point x="558" y="427"/>
      <point x="457" y="556"/>
      <point x="298" y="556" type="curve" smooth="yes"/>
      <point x="218" y="556"/>
      <point x="153" y="524"/>
      <point x="107" y="468" type="curve"/>
      <point x="73" y="468" type="line"/>
      <point x="127" y="546"/>
      <point x="210" y="582"/>
      <point x="304" y="582" type="curve" smooth="yes"/>
      <point x="479" y="582"/>
      <point x="598" y="444"/>
      <point x="598" y="258" type="curve" smooth="yes"/>
      <point x="598" y="123"/>
      <point x="547" y="0"/>
      <point x="428" y="0" type="curve" smooth="yes"/>
      <point x="363" y="0"/>
      <point x="335" y="29"/>
      <point x="313" y="59" type="curve"/>
      <point x="283" y="22"/>
      <point x="250" y="0"/>
      <point x="199" y="0" type="curve" smooth="yes"/>
      <point x="98" y="0"/>
      <point x="46" y="81"/>
      <point x="46" y="162" type="curve" smooth="yes"/>
      <point x="46" y="212"/>
      <point x="71" y="263"/>
      <point x="125" y="287" type="curve"/>
    </contour>
  </outline>
</glyph>
<glyph name="uni0DAA" format="1">
  <advance width="647"/>
  <unicode hex="0DAA"/>
  <outline>
    <contour>
      <point x="15" y="287" type="line"/>
      <point x="15" y="315" type="line"/>
      <point x="258" y="315" type="line"/>
      <point x="255" y="357"/>
      <point x="226" y="390"/>
      <point x="195" y="390" type="curve" smooth="yes"/>
      <point x="179" y="390"/>
      <point x="163" y="387"/>
      <point x="149" y="362" type="curve" smooth="yes"/>
      <point x="138" y="344"/>
      <point x="125" y="338"/>
      <point x="111" y="338" type="curve" smooth="yes"/>
      <point x="90" y="338"/>
      <point x="73" y="353"/>
      <point x="73" y="374" type="curve" smooth="yes"/>
      <point x="73" y="414"/>
      <point x="120" y="432"/>
      <point x="162" y="432" type="curve" smooth="yes"/>
      <point x="245" y="432"/>
      <point x="291" y="375"/>
      <point x="292" y="287" type="curve"/>
      <point x="221" y="287" type="line" smooth="yes"/>
      <point x="128" y="287"/>
      <point x="88" y="231"/>
      <point x="88" y="181" type="curve" smooth="yes"/>
      <point x="88" y="130"/>
      <point x="128" y="84"/>
      <point x="199" y="84" type="curve" smooth="yes"/>
      <point x="251" y="84"/>
      <point x="299" y="107"/>
      <point x="299" y="154" type="curve" smooth="yes"/>
      <point x="299" y="186" type="line"/>
      <point x="326" y="186" type="line"/>
      <point x="326" y="154" type="line" smooth="yes"/>
      <point x="326" y="109"/>
      <point x="370" y="84"/>
      <point x="422" y="84" type="curve" smooth="yes"/>
      <point x="514" y="84"/>
      <point x="557" y="167"/>
      <point x="557" y="269" type="curve" smooth="yes"/>
      <point x="557" y="325"/>
      <point x="539" y="378"/>
      <point x="514" y="422" type="curve"/>
      <point x="497" y="394"/>
      <point x="470" y="363"/>
      <point x="422" y="363" type="curve" smooth="yes"/>
      <point x="356" y="363"/>
      <point x="318" y="411"/>
      <point x="318" y="477" type="curve" smooth="yes"/>
      <point x="318" y="541"/>
      <point x="348" y="586"/>
      <point x="359" y="603" type="curve"/>
      <point x="473" y="558"/>
      <point x="598" y="406"/>
      <point x="598" y="250" type="curve" smooth="yes"/>
      <point x="598" y="121"/>
      <point x="552" y="0"/>
      <point x="426" y="0" type="curve" smooth="yes"/>
      <point x="364" y="0"/>
      <point x="335" y="29"/>
      <point x="313" y="59" type="curve"/>
      <point x="283" y="22"/>
      <point x="250" y="0"/>
      <point x="199" y="0" type="curve" smooth="yes"/>
      <point x="98" y="0"/>
      <point x="46" y="81"/>
      <point x="46" y="162" type="curve" smooth="yes"/>
      <point x="46" y="212"/>
      <point x="71" y="263"/>
      <point x="125" y="287" type="curve"/>
    </contour>
    <contour>
      <point x="348" y="481" type="curve" smooth="yes"/>
      <point x="348" y="422"/>
      <point x="376" y="394"/>
      <point x="424" y="394" type="curve" smooth="yes"/>
      <point x="459" y="394"/>
      <point x="484" y="423"/>
      <point x="496" y="450" type="curve"/>
      <point x="457" y="508"/>
      <point x="406" y="549"/>
      <point x="373" y="565" type="curve"/>
      <point x="361" y="551"/>
      <point x="348" y="514"/>
    </contour>
  </outline>
</glyph>
<glyph name="uni0DAB" format="1">
  <advance width="963"/>
  <unicode hex="0DAB"/>
  <outline>
    <contour>
      <point x="22" y="178" type="line"/>
      <point x="217" y="309"/>
      <point x="441" y="411"/>
      <point x="654" y="486" type="curve" smooth="yes"/>
      <point x="725" y="511"/>
      <point x="790" y="527"/>
      <point x="824" y="527" type="curve" smooth="yes"/>
      <point x="850" y="527"/>
      <point x="863" y="516"/>
      <point x="863" y="497" type="curve" smooth="yes"/>
      <point x="863" y="482"/>
      <point x="852" y="470"/>
      <point x="826" y="465" type="curve" smooth="yes"/>
      <point x="796" y="461"/>
      <point x="738" y="451"/>
      <point x="668" y="438" type="curve" smooth="yes"/>
      <point x="478" y="402"/>
      <point x="272" y="299"/>
      <point x="115" y="208" type="curve"/>
      <point x="176" y="208"/>
      <point x="194" y="83"/>
      <point x="348" y="83" type="curve" smooth="yes"/>
      <point x="457" y="83"/>
      <point x="538" y="146"/>
      <point x="538" y="243" type="curve" smooth="yes"/>
      <point x="538" y="327"/>
      <point x="478" y="407"/>
      <point x="357" y="407" type="curve" smooth="yes"/>
      <point x="269" y="407"/>
      <point x="200" y="361"/>
      <point x="200" y="290" type="curve" smooth="yes"/>
      <point x="200" y="215"/>
      <point x="265" y="185"/>
      <point x="322" y="185" type="curve"/>
      <point x="405" y="181" type="line"/>
      <point x="384" y="167"/>
      <point x="362" y="159"/>
      <point x="321" y="159" type="curve" smooth="yes"/>
      <point x="232" y="159"/>
      <point x="170" y="210"/>
      <point x="170" y="285" type="curve" smooth="yes"/>
      <point x="170" y="382"/>
      <point x="257" y="433"/>
      <point x="359" y="433" type="curve" smooth="yes"/>
      <point x="440" y="433"/>
      <point x="584" y="390"/>
      <point x="584" y="213" type="curve" smooth="yes"/>
      <point x="584" y="114"/>
      <point x="520" y="0"/>
      <point x="365" y="0" type="curve" smooth="yes"/>
      <point x="167" y="0"/>
      <point x="180" y="181"/>
      <point x="99" y="181" type="curve" smooth="yes"/>
      <point x="71" y="181"/>
      <point x="54" y="168"/>
      <point x="33" y="154" type="curve"/>
    </contour>
    <contour>
      <point x="267" y="255" type="curve" smooth="yes"/>
      <point x="267" y="304"/>
      <point x="307" y="344"/>
      <point x="356" y="344" type="curve" smooth="yes"/>
      <point x="405" y="344"/>
      <point x="446" y="304"/>
      <point x="446" y="255" type="curve" smooth="yes"/>
      <point x="446" y="206"/>
      <point x="405" y="166"/>
      <point x="356" y="166" type="curve" smooth="yes"/>
      <point x="307" y="166"/>
      <point x="267" y="206"/>
    </contour>
    <contour>
      <point x="296" y="256" type="curve" smooth="yes"/>
      <point x="296" y="222"/>
      <point x="323" y="196"/>
      <point x="356" y="196" type="curve" smooth="yes"/>
      <point x="390" y="196"/>
      <point x="416" y="222"/>
      <point x="416" y="256" type="curve" smooth="yes"/>
      <point x="416" y="289"/>
      <point x="390" y="316"/>
      <point x="356" y="316" type="curve" smooth="yes"/>
      <point x="323" y="316"/>
      <point x="296" y="289"/>
    </contour>
    <contour>
      <point x="549" y="161" type="curve" smooth="yes"/>
      <point x="549" y="230"/>
      <point x="591" y="286"/>
      <point x="645" y="286" type="curve" smooth="yes"/>
      <point x="678" y="286"/>
      <point x="703" y="274"/>
      <point x="719" y="251" type="curve"/>
      <point x="723" y="300"/>
      <point x="753" y="348"/>
      <point x="814" y="348" type="curve" smooth="yes"/>
      <point x="881" y="348"/>
      <point x="915" y="265"/>
      <point x="915" y="168" type="curve" smooth="yes"/>
      <point x="915" y="73"/>
      <point x="883" y="-1"/>
      <point x="800" y="-1" type="curve" smooth="yes"/>
      <point x="748" y="-1"/>
      <point x="719" y="33"/>
      <point x="714" y="68" type="curve"/>
      <point x="697" y="48"/>
      <point x="674" y="36"/>
      <point x="645" y="36" type="curve" smooth="yes"/>
      <point x="591" y="36"/>
      <point x="549" y="92"/>
    </contour>
    <contour>
      <point x="577" y="162" type="curve" smooth="yes"/>
      <point x="577" y="110"/>
      <point x="607" y="68"/>
      <point x="644" y="68" type="curve" smooth="yes"/>
      <point x="686" y="68"/>
      <point x="710" y="105"/>
      <point x="710" y="162" type="curve" smooth="yes"/>
      <point x="710" y="222"/>
      <point x="689" y="256"/>
      <point x="644" y="256" type="curve" smooth="yes"/>
      <point x="607" y="256"/>
      <point x="577" y="214"/>
    </contour>
    <contour>
      <point x="734" y="105" type="curve" smooth="yes"/>
      <point x="734" y="47"/>
      <point x="769" y="37"/>
      <point x="789" y="37" type="curve" smooth="yes"/>
      <point x="838" y="37"/>
      <point x="846" y="95"/>
      <point x="846" y="169" type="curve" smooth="yes"/>
      <point x="846" y="245"/>
      <point x="831" y="305"/>
      <point x="795" y="305" type="curve" smooth="yes"/>
      <point x="756" y="305"/>
      <point x="741" y="261"/>
      <point x="738" y="200" type="curve" smooth="yes"/>
      <point x="740" y="189"/>
      <point x="741" y="175"/>
      <point x="741" y="161" type="curve" smooth="yes"/>
      <point x="741" y="142"/>
      <point x="739" y="124"/>
      <point x="734" y="109" type="curve" smooth="yes"/>
      <point x="734" y="108"/>
      <point x="734" y="107"/>
    </contour>
  </outline>
</glyph>
<glyph name="si_Ta" format="1">
  <advance width="704"/>
  <unicode hex="0DAD"/>
  <outline>
    <contour>
      <point x="22" y="25" type="line"/>
      <point x="35" y="130"/>
      <point x="103" y="243"/>
      <point x="160" y="307" type="curve"/>
      <point x="168" y="316"/>
      <point x="179" y="330"/>
      <point x="179" y="348" type="curve" smooth="yes"/>
      <point x="179" y="371"/>
      <point x="169" y="387"/>
      <point x="151" y="387" type="curve" smooth="yes"/>
      <point x="134" y="387"/>
      <point x="121" y="376"/>
      <point x="120" y="356" type="curve" smooth="yes"/>
      <point x="119" y="326"/>
      <point x="111" y="295"/>
      <point x="76" y="295" type="curve" smooth="yes"/>
      <point x="50" y="295"/>
      <point x="37" y="317"/>
      <point x="37" y="342" type="curve" smooth="yes"/>
      <point x="37" y="392"/>
      <point x="78" y="433"/>
      <point x="127" y="433" type="curve" smooth="yes"/>
      <point x="177" y="433"/>
      <point x="206" y="399"/>
      <point x="206" y="355" type="curve" smooth="yes"/>
      <point x="206" y="351"/>
      <point x="206" y="352"/>
      <point x="205" y="347" type="curve"/>
      <point x="271" y="420"/>
      <point x="359" y="435"/>
      <point x="423" y="435" type="curve" smooth="yes"/>
      <point x="562" y="435"/>
      <point x="664" y="334"/>
      <point x="664" y="185" type="curve" smooth="yes"/>
      <point x="664" y="84"/>
      <point x="612" y="-1"/>
      <point x="519" y="-1" type="curve" smooth="yes"/>
      <point x="492" y="-1"/>
      <point x="470" y="5"/>
      <point x="455" y="13" type="curve"/>
      <point x="455" y="43" type="line"/>
      <point x="467" y="36"/>
      <point x="487" y="28"/>
      <point x="507" y="28" type="curve" smooth="yes"/>
      <point x="570" y="28"/>
      <point x="599" y="87"/>
      <point x="599" y="150" type="curve" smooth="yes"/>
      <point x="599" y="276"/>
      <point x="499" y="375"/>
      <point x="362" y="375" type="curve" smooth="yes"/>
      <point x="297" y="375"/>
      <point x="240" y="353"/>
      <point x="201" y="306" type="curve"/>
      <point x="222" y="315"/>
      <point x="249" y="320"/>
      <point x="281" y="320" type="curve" smooth="yes"/>
      <point x="382" y="320"/>
      <point x="459" y="268"/>
      <point x="459" y="162" type="curve" smooth="yes"/>
      <point x="459" y="70"/>
      <point x="392" y="-2"/>
      <point x="282" y="-2" type="curve" smooth="yes"/>
      <point x="134" y="-2"/>
      <point x="140" y="79"/>
      <point x="89" y="79" type="curve" smooth="yes"/>
      <point x="65" y="79"/>
      <point x="53" y="53"/>
      <point x="44" y="9" type="curve"/>
    </contour>
    <contour>
      <point x="75" y="110" type="curve"/>
      <point x="84" y="117"/>
      <point x="97" y="119"/>
      <point x="108" y="119" type="curve" smooth="yes"/>
      <point x="145" y="119"/>
      <point x="180" y="85"/>
      <point x="256" y="85" type="curve" smooth="yes"/>
      <point x="340" y="85"/>
      <point x="412" y="114"/>
      <point x="412" y="193" type="curve" smooth="yes"/>
      <point x="412" y="259"/>
      <point x="350" y="296"/>
      <point x="283" y="296" type="curve" smooth="yes"/>
      <point x="234" y="296"/>
      <point x="189" y="284"/>
      <point x="157" y="260" type="curve"/>
      <point x="126" y="222"/>
      <point x="96" y="170"/>
    </contour>
  </outline>
</glyph>
<glyph name="uni0DB0" format="1">
  <advance width="638"/>
  <unicode hex="0DB0"/>
  <outline>
    <contour>
      <point x="33" y="195" type="curve" smooth="yes"/>
      <point x="33" y="288"/>
      <point x="86" y="364"/>
      <point x="152" y="387" type="curve" smooth="yes"/>
      <point x="173" y="394"/>
      <point x="196" y="398"/>
      <point x="221" y="398" type="curve"/>
      <point x="221" y="373" type="line"/>
      <point x="218" y="373"/>
      <point x="214" y="373"/>
      <point x="211" y="373" type="curve" smooth="yes"/>
      <point x="132" y="373"/>
      <point x="71" y="302"/>
      <point x="71" y="218" type="curve" smooth="yes"/>
      <point x="71" y="145"/>
      <point x="116" y="84"/>
      <point x="189" y="84" type="curve" smooth="yes"/>
      <point x="240" y="84"/>
      <point x="290" y="105"/>
      <point x="290" y="169" type="curve" smooth="yes"/>
      <point x="290" y="206" type="line"/>
      <point x="318" y="206" type="line"/>
      <point x="318" y="169" type="line" smooth="yes"/>
      <point x="318" y="105"/>
      <point x="367" y="84"/>
      <point x="416" y="84" type="curve" smooth="yes"/>
      <point x="512" y="84"/>
      <point x="550" y="190"/>
      <point x="550" y="288" type="curve" smooth="yes"/>
      <point x="550" y="439"/>
      <point x="441" y="556"/>
      <point x="294" y="556" type="curve" smooth="yes"/>
      <point x="213" y="556"/>
      <point x="150" y="527"/>
      <point x="97" y="468" type="curve"/>
      <point x="65" y="468" type="line"/>
      <point x="122" y="543"/>
      <point x="200" y="580"/>
      <point x="299" y="580" type="curve" smooth="yes"/>
      <point x="462" y="580"/>
      <point x="589" y="446"/>
      <point x="589" y="261" type="curve" smooth="yes"/>
      <point x="589" y="139"/>
      <point x="548" y="0"/>
      <point x="422" y="0" type="curve" smooth="yes"/>
      <point x="373" y="0"/>
      <point x="333" y="20"/>
      <point x="303" y="59" type="curve"/>
      <point x="272" y="20"/>
      <point x="235" y="0"/>
      <point x="190" y="0" type="curve" smooth="yes"/>
      <point x="88" y="0"/>
      <point x="33" y="96"/>
    </contour>
  </outline>
</glyph>
<glyph name="uni0DB3" format="1">
  <advance width="528"/>
  <unicode hex="0DB3"/>
  <outline>
    <contour>
      <point x="115" y="169" type="curve" smooth="yes"/>
      <point x="115" y="274"/>
      <point x="188" y="317"/>
      <point x="307" y="317" type="curve" smooth="yes"/>
      <point x="426" y="317" type="line"/>
      <point x="416" y="362"/>
      <point x="374" y="393"/>
      <point x="334" y="393" type="curve" smooth="yes"/>
      <point x="315" y="393"/>
      <point x="299" y="382"/>
      <point x="290" y="365" type="curve" smooth="yes"/>
      <point x="280" y="343"/>
      <point x="264" y="335"/>
      <point x="248" y="335" type="curve" smooth="yes"/>
      <point x="223" y="335"/>
      <point x="209" y="351"/>
      <point x="209" y="372" type="curve" smooth="yes"/>
      <point x="209" y="409"/>
      <point x="247" y="432"/>
      <point x="300" y="432" type="curve" smooth="yes"/>
      <point x="383" y="432"/>
      <point x="444" y="388"/>
      <point x="463" y="293" type="curve"/>
      <point x="340" y="293" type="line" smooth="yes"/>
      <point x="252" y="293"/>
      <point x="206" y="257"/>
      <point x="206" y="173" type="curve" smooth="yes"/>
      <point x="206" y="89"/>
      <point x="273" y="30"/>
      <point x="350" y="30" type="curve" smooth="yes"/>
      <point x="393" y="30"/>
      <point x="427" y="46"/>
      <point x="467" y="92" type="curve"/>
      <point x="491" y="75" type="line"/>
      <point x="460" y="39"/>
      <point x="395" y="-26"/>
      <point x="395" y="-102" type="curve" smooth="yes"/>
      <point x="395" y="-163"/>
      <point x="429" y="-193"/>
      <point x="493" y="-209" type="curve"/>
      <point x="493" y="-238" type="line"/>
      <point x="478" y="-241"/>
      <point x="459" y="-243"/>
      <point x="438" y="-243" type="curve" smooth="yes"/>
      <point x="365" y="-241"/>
      <point x="330" y="-198"/>
      <point x="330" y="-141" type="curve" smooth="yes"/>
      <point x="330" y="-99"/>
      <point x="355" y="-51"/>
      <point x="402" y="10" type="curve"/>
      <point x="369" y="0"/>
      <point x="345" y="-1"/>
      <point x="318" y="-1" type="curve" smooth="yes"/>
      <point x="187" y="-1"/>
      <point x="115" y="69"/>
    </contour>
    <contour>
      <point x="27" y="221" type="curve" smooth="yes"/>
      <point x="27" y="350"/>
      <point x="98" y="435"/>
      <point x="257" y="435" type="curve" smooth="yes"/>
      <point x="266" y="435"/>
      <point x="305" y="434"/>
      <point x="334" y="428" type="curve"/>
      <point x="317" y="418"/>
      <point x="266" y="411"/>
      <point x="231" y="405" type="curve"/>
      <point x="130" y="399"/>
      <point x="57" y="347"/>
      <point x="57" y="218" type="curve" smooth="yes"/>
      <point x="57" y="137"/>
      <point x="84" y="76"/>
      <point x="135" y="31" type="curve"/>
      <point x="135" y="0" type="line"/>
      <point x="69" y="33"/>
      <point x="27" y="120"/>
    </contour>
  </outline>
</glyph>
<glyph name="uni0DB5" format="1">
  <advance width="580"/>
  <unicode hex="0DB5"/>
  <outline>
    <contour>
      <point x="33" y="165" type="curve" smooth="yes"/>
      <point x="33" y="271"/>
      <point x="118" y="309"/>
      <point x="230" y="309" type="curve" smooth="yes"/>
      <point x="249" y="309" type="line"/>
      <point x="249" y="311"/>
      <point x="249" y="313"/>
      <point x="249" y="315" type="curve" smooth="yes"/>
      <point x="249" y="358"/>
      <point x="218" y="394"/>
      <point x="182" y="394" type="curve" smooth="yes"/>
      <point x="146" y="394"/>
      <point x="134" y="371"/>
      <point x="128" y="355" type="curve" smooth="yes"/>
      <point x="121" y="335"/>
      <point x="111" y="323"/>
      <point x="88" y="323" type="curve" smooth="yes"/>
      <point x="72" y="323"/>
      <point x="52" y="333"/>
      <point x="52" y="359" type="curve" smooth="yes"/>
      <point x="52" y="406"/>
      <point x="102" y="432"/>
      <point x="157" y="432" type="curve" smooth="yes"/>
      <point x="245" y="432"/>
      <point x="281" y="364"/>
      <point x="281" y="297" type="curve" smooth="yes"/>
      <point x="281" y="294"/>
      <point x="281" y="287"/>
      <point x="281" y="284" type="curve"/>
      <point x="221" y="284" type="line" smooth="yes"/>
      <point x="133" y="284"/>
      <point x="76" y="249"/>
      <point x="76" y="186" type="curve" smooth="yes"/>
      <point x="76" y="106"/>
      <point x="179" y="84"/>
      <point x="267" y="84" type="curve" smooth="yes"/>
      <point x="420" y="84"/>
      <point x="498" y="160"/>
      <point x="498" y="273" type="curve" smooth="yes"/>
      <point x="498" y="329"/>
      <point x="482" y="378"/>
      <point x="459" y="412" type="curve"/>
      <point x="444" y="379"/>
      <point x="414" y="359"/>
      <point x="371" y="359" type="curve" smooth="yes"/>
      <point x="308" y="359"/>
      <point x="271" y="414"/>
      <point x="271" y="480" type="curve" smooth="yes"/>
      <point x="271" y="530"/>
      <point x="286" y="566"/>
      <point x="313" y="597" type="curve"/>
      <point x="374" y="564"/>
      <point x="445" y="492"/>
      <point x="481" y="430" type="curve" smooth="yes"/>
      <point x="520" y="363"/>
      <point x="533" y="315"/>
      <point x="533" y="245" type="curve" smooth="yes"/>
      <point x="533" y="117"/>
      <point x="447" y="0"/>
      <point x="264" y="0" type="curve" smooth="yes"/>
      <point x="143" y="0"/>
      <point x="33" y="46"/>
    </contour>
    <contour>
      <point x="302" y="485" type="curve" smooth="yes"/>
      <point x="302" y="436"/>
      <point x="324" y="397"/>
      <point x="379" y="397" type="curve" smooth="yes"/>
      <point x="402" y="397"/>
      <point x="429" y="408"/>
      <point x="439" y="440" type="curve"/>
      <point x="409" y="486"/>
      <point x="360" y="531"/>
      <point x="322" y="559" type="curve"/>
      <point x="311" y="542"/>
      <point x="302" y="519"/>
    </contour>
  </outline>
</glyph>
<glyph name="uni0DB6" format="1">
  <advance width="619"/>
  <unicode hex="0DB6"/>
  <outline>
    <contour>
      <point x="101" y="76" type="curve" smooth="yes"/>
      <point x="101" y="50"/>
      <point x="124" y="27"/>
      <point x="150" y="27" type="curve" smooth="yes"/>
      <point x="176" y="27"/>
      <point x="199" y="50"/>
      <point x="199" y="76" type="curve" smooth="yes"/>
      <point x="199" y="102"/>
      <point x="176" y="125"/>
      <point x="150" y="125" type="curve" smooth="yes"/>
      <point x="124" y="125"/>
      <point x="101" y="102"/>
    </contour>
    <contour>
      <point x="33" y="187" type="curve" smooth="yes"/>
      <point x="33" y="314"/>
      <point x="121" y="396"/>
      <point x="245" y="396" type="curve" smooth="yes"/>
      <point x="337" y="396"/>
      <point x="419" y="347"/>
      <point x="419" y="259" type="curve" smooth="yes"/>
      <point x="419" y="132"/>
      <point x="302" y="169"/>
      <point x="302" y="106" type="curve" smooth="yes"/>
      <point x="302" y="82"/>
      <point x="319" y="71"/>
      <point x="348" y="71" type="curve" smooth="yes"/>
      <point x="456" y="71"/>
      <point x="525" y="207"/>
      <point x="525" y="321" type="curve" smooth="yes"/>
      <point x="525" y="461"/>
      <point x="439" y="560"/>
      <point x="292" y="560" type="curve" smooth="yes"/>
      <point x="198" y="560"/>
      <point x="134" y="530"/>
      <point x="95" y="470" type="curve"/>
      <point x="64" y="470" type="line"/>
      <point x="99" y="542"/>
      <point x="179" y="585"/>
      <point x="292" y="585" type="curve" smooth="yes"/>
      <point x="470" y="585"/>
      <point x="575" y="465"/>
      <point x="575" y="284" type="curve" smooth="yes"/>
      <point x="575" y="141"/>
      <point x="518" y="-2"/>
      <point x="381" y="-2" type="curve" smooth="yes"/>
      <point x="317" y="-2"/>
      <point x="270" y="38"/>
      <point x="270" y="97" type="curve" smooth="yes"/>
      <point x="270" y="187"/>
      <point x="377" y="159"/>
      <point x="377" y="236" type="curve" smooth="yes"/>
      <point x="377" y="288"/>
      <point x="309" y="312"/>
      <point x="237" y="312" type="curve" smooth="yes"/>
      <point x="146" y="312"/>
      <point x="65" y="259"/>
      <point x="65" y="158" type="curve" smooth="yes"/>
      <point x="65" y="135"/>
      <point x="70" y="106"/>
      <point x="77" y="91" type="curve"/>
      <point x="81" y="126"/>
      <point x="109" y="153"/>
      <point x="150" y="153" type="curve" smooth="yes"/>
      <point x="193" y="153"/>
      <point x="229" y="119"/>
      <point x="229" y="77" type="curve" smooth="yes"/>
      <point x="229" y="29"/>
      <point x="190" y="-1"/>
      <point x="150" y="-1" type="curve" smooth="yes"/>
      <point x="68" y="-1"/>
      <point x="33" y="91"/>
    </contour>
  </outline>
</glyph>
<glyph name="si_Bha" format="1">
  <advance width="670"/>
  <unicode hex="0DB7"/>
  <outline>
    <contour>
      <point x="6" y="270" type="curve"/>
      <point x="6" y="303" type="line"/>
      <point x="213" y="303" type="line"/>
      <point x="171" y="277" type="line"/>
      <point x="140" y="277" type="line" smooth="yes"/>
      <point x="69" y="276"/>
      <point x="22" y="273"/>
    </contour>
    <contour>
      <point x="49" y="155" type="curve" smooth="yes"/>
      <point x="49" y="252"/>
      <point x="146" y="303"/>
      <point x="217" y="303" type="curve" smooth="yes"/>
      <point x="221" y="303"/>
      <point x="218" y="303"/>
      <point x="222" y="303" type="curve"/>
      <point x="222" y="344"/>
      <point x="198" y="382"/>
      <point x="161" y="382" type="curve" smooth="yes"/>
      <point x="142" y="382"/>
      <point x="130" y="372"/>
      <point x="123" y="355" type="curve" smooth="yes"/>
      <point x="117" y="339"/>
      <point x="104" y="326"/>
      <point x="83" y="326" type="curve" smooth="yes"/>
      <point x="63" y="326"/>
      <point x="49" y="340"/>
      <point x="49" y="364" type="curve" smooth="yes"/>
      <point x="49" y="394"/>
      <point x="78" y="432"/>
      <point x="134" y="432" type="curve" smooth="yes"/>
      <point x="213" y="432"/>
      <point x="254" y="360"/>
      <point x="255" y="278" type="curve"/>
      <point x="243" y="279"/>
      <point x="233" y="280"/>
      <point x="228" y="280" type="curve" smooth="yes"/>
      <point x="160" y="280"/>
      <point x="90" y="245"/>
      <point x="90" y="181" type="curve" smooth="yes"/>
      <point x="90" y="115"/>
      <point x="154" y="84"/>
      <point x="225" y="84" type="curve" smooth="yes"/>
      <point x="286" y="84"/>
      <point x="344" y="110"/>
      <point x="344" y="169" type="curve" smooth="yes"/>
      <point x="344" y="197"/>
      <point x="330" y="213"/>
      <point x="311" y="213" type="curve" smooth="yes"/>
      <point x="298" y="213"/>
      <point x="285" y="204"/>
      <point x="278" y="183" type="curve"/>
      <point x="255" y="193" type="line"/>
      <point x="264" y="318"/>
      <point x="345" y="432"/>
      <point x="446" y="432" type="curve" smooth="yes"/>
      <point x="558" y="432"/>
      <point x="621" y="329"/>
      <point x="621" y="211" type="curve" smooth="yes"/>
      <point x="621" y="92"/>
      <point x="532" y="-1"/>
      <point x="409" y="-1" type="curve" smooth="yes"/>
      <point x="396" y="-1"/>
      <point x="382" y="0"/>
      <point x="368" y="2" type="curve"/>
      <point x="368" y="29" type="line"/>
      <point x="380" y="27"/>
      <point x="392" y="26"/>
      <point x="404" y="26" type="curve" smooth="yes"/>
      <point x="501" y="26"/>
      <point x="562" y="97"/>
      <point x="562" y="188" type="curve" smooth="yes"/>
      <point x="562" y="277"/>
      <point x="513" y="353"/>
      <point x="423" y="353" type="curve" smooth="yes"/>
      <point x="349" y="353"/>
      <point x="307" y="308"/>
      <point x="287" y="230" type="curve"/>
      <point x="297" y="236"/>
      <point x="307" y="238"/>
      <point x="316" y="238" type="curve" smooth="yes"/>
      <point x="355" y="238"/>
      <point x="382" y="199"/>
      <point x="382" y="145" type="curve" smooth="yes"/>
      <point x="382" y="53"/>
      <point x="312" y="-1"/>
      <point x="217" y="-1" type="curve" smooth="yes"/>
      <point x="119" y="-1"/>
      <point x="49" y="61"/>
    </contour>
  </outline>
</glyph>
<glyph name="uni0DB9" format="1">
  <advance width="636"/>
  <unicode hex="0DB9"/>
  <outline>
    <contour>
      <point x="30" y="228" type="curve" smooth="yes"/>
      <point x="30" y="333"/>
      <point x="74" y="432"/>
      <point x="148" y="432" type="curve" smooth="yes"/>
      <point x="167" y="432"/>
      <point x="173" y="428"/>
      <point x="180" y="423" type="curve" smooth="yes"/>
      <point x="191" y="415"/>
      <point x="199" y="401"/>
      <point x="199" y="371" type="curve" smooth="yes"/>
      <point x="199" y="357"/>
      <point x="199" y="343"/>
      <point x="199" y="340" type="curve" smooth="yes"/>
      <point x="199" y="287"/>
      <point x="239" y="256"/>
      <point x="295" y="256" type="curve" smooth="yes"/>
      <point x="348" y="256"/>
      <point x="386" y="284"/>
      <point x="386" y="324" type="curve" smooth="yes"/>
      <point x="386" y="325"/>
      <point x="386" y="326"/>
      <point x="386" y="328" type="curve"/>
      <point x="380" y="317"/>
      <point x="359" y="289"/>
      <point x="318" y="289" type="curve" smooth="yes"/>
      <point x="271" y="289"/>
      <point x="245" y="324"/>
      <point x="245" y="360" type="curve" smooth="yes"/>
      <point x="245" y="402"/>
      <point x="277" y="434"/>
      <point x="322" y="434" type="curve" smooth="yes"/>
      <point x="381" y="434"/>
      <point x="416" y="388"/>
      <point x="416" y="331" type="curve" smooth="yes"/>
      <point x="416" y="270"/>
      <point x="366" y="227"/>
      <point x="295" y="227" type="curve" smooth="yes"/>
      <point x="224" y="227"/>
      <point x="172" y="270"/>
      <point x="172" y="342" type="curve" smooth="yes"/>
      <point x="172" y="347"/>
      <point x="172" y="363"/>
      <point x="172" y="372" type="curve" smooth="yes"/>
      <point x="172" y="392"/>
      <point x="167" y="406"/>
      <point x="145" y="406" type="curve" smooth="yes"/>
      <point x="95" y="406"/>
      <point x="63" y="327"/>
      <point x="63" y="259" type="curve" smooth="yes"/>
      <point x="63" y="166"/>
      <point x="108" y="82"/>
      <point x="189" y="82" type="curve" smooth="yes"/>
      <point x="210" y="82"/>
      <point x="219" y="86"/>
      <point x="224" y="90" type="curve"/>
      <point x="222" y="97"/>
      <point x="222" y="110"/>
      <point x="222" y="118" type="curve" smooth="yes"/>
      <point x="224" y="184"/>
      <point x="275" y="204"/>
      <point x="310" y="204" type="curve" smooth="yes"/>
      <point x="345" y="204"/>
      <point x="396" y="184"/>
      <point x="398" y="118" type="curve" smooth="yes"/>
      <point x="398" y="110"/>
      <point x="398" y="97"/>
      <point x="396" y="90" type="curve"/>
      <point x="402" y="86"/>
      <point x="410" y="82"/>
      <point x="431" y="82" type="curve" smooth="yes"/>
      <point x="498" y="82"/>
      <point x="549" y="187"/>
      <point x="549" y="289" type="curve" smooth="yes"/>
      <point x="549" y="430"/>
      <point x="458" y="555"/>
      <point x="298" y="555" type="curve" smooth="yes"/>
      <point x="199" y="555"/>
      <point x="140" y="524"/>
      <point x="94" y="466" type="curve"/>
      <point x="62" y="466" type="line"/>
      <point x="107" y="531"/>
      <point x="173" y="579"/>
      <point x="300" y="579" type="curve" smooth="yes"/>
      <point x="488" y="579"/>
      <point x="590" y="431"/>
      <point x="590" y="254" type="curve" smooth="yes"/>
      <point x="590" y="127"/>
      <point x="529" y="0"/>
      <point x="416" y="0" type="curve" smooth="yes"/>
      <point x="392" y="0"/>
      <point x="375" y="4"/>
      <point x="352" y="16" type="curve"/>
      <point x="351" y="27"/>
      <point x="353" y="39"/>
      <point x="356" y="49" type="curve" smooth="yes"/>
      <point x="361" y="69"/>
      <point x="369" y="86"/>
      <point x="369" y="110" type="curve" smooth="yes"/>
      <point x="369" y="145"/>
      <point x="347" y="174"/>
      <point x="310" y="174" type="curve" smooth="yes"/>
      <point x="273" y="174"/>
      <point x="251" y="145"/>
      <point x="251" y="110" type="curve" smooth="yes"/>
      <point x="251" y="86"/>
      <point x="259" y="71"/>
      <point x="263" y="51" type="curve" smooth="yes"/>
      <point x="267" y="41"/>
      <point x="269" y="27"/>
      <point x="268" y="16" type="curve"/>
      <point x="245" y="4"/>
      <point x="228" y="0"/>
      <point x="204" y="0" type="curve" smooth="yes"/>
      <point x="88" y="0"/>
      <point x="30" y="118"/>
    </contour>
    <contour>
      <point x="274" y="363" type="curve" smooth="yes"/>
      <point x="274" y="337"/>
      <point x="295" y="316"/>
      <point x="321" y="316" type="curve" smooth="yes"/>
      <point x="347" y="316"/>
      <point x="368" y="337"/>
      <point x="368" y="363" type="curve" smooth="yes"/>
      <point x="368" y="389"/>
      <point x="347" y="410"/>
      <point x="321" y="410" type="curve" smooth="yes"/>
      <point x="295" y="410"/>
      <point x="274" y="389"/>
    </contour>
  </outline>
</glyph>
<glyph name="uni0DBB" format="1">
  <advance width="528"/>
  <unicode hex="0DBB"/>
  <outline>
    <contour>
      <point x="31" y="213" type="curve" smooth="yes"/>
      <point x="31" y="323"/>
      <point x="94" y="383"/>
      <point x="171" y="416" type="curve" smooth="yes"/>
      <point x="232" y="442"/>
      <point x="320" y="462"/>
      <point x="403" y="523" type="curve" smooth="yes"/>
      <point x="455" y="562"/>
      <point x="467" y="608"/>
      <point x="500" y="608" type="curve" smooth="yes"/>
      <point x="514" y="608"/>
      <point x="526" y="601"/>
      <point x="526" y="587" type="curve" smooth="yes"/>
      <point x="526" y="562"/>
      <point x="503" y="533"/>
      <point x="442" y="498" type="curve" smooth="yes"/>
      <point x="405" y="478"/>
      <point x="335" y="446"/>
      <point x="291" y="434" type="curve"/>
      <point x="338" y="432"/>
      <point x="390" y="411"/>
      <point x="430" y="366" type="curve" smooth="yes"/>
      <point x="465" y="326"/>
      <point x="482" y="281"/>
      <point x="482" y="225" type="curve" smooth="yes"/>
      <point x="482" y="102"/>
      <point x="384" y="0"/>
      <point x="248" y="0" type="curve" smooth="yes"/>
      <point x="124" y="0"/>
      <point x="31" y="89"/>
    </contour>
    <contour>
      <point x="68" y="241" type="curve" smooth="yes"/>
      <point x="68" y="154"/>
      <point x="130" y="85"/>
      <point x="238" y="85" type="curve" smooth="yes"/>
      <point x="343" y="85"/>
      <point x="426" y="157"/>
      <point x="426" y="261" type="curve" smooth="yes"/>
      <point x="426" y="357"/>
      <point x="355" y="411"/>
      <point x="263" y="411" type="curve" smooth="yes"/>
      <point x="170" y="411"/>
      <point x="68" y="341"/>
    </contour>
  </outline>
</glyph>
<glyph name="uni0DBD" format="1">
  <advance width="670"/>
  <unicode hex="0DBD"/>
  <outline>
    <contour>
      <point x="31" y="135" type="curve" smooth="yes"/>
      <point x="31" y="323"/>
      <point x="169" y="432"/>
      <point x="364" y="432" type="curve" smooth="yes"/>
      <point x="488" y="432"/>
      <point x="611" y="393"/>
      <point x="611" y="280" type="curve" smooth="yes"/>
      <point x="611" y="210"/>
      <point x="553" y="170"/>
      <point x="485" y="170" type="curve" smooth="yes"/>
      <point x="417" y="170"/>
      <point x="368" y="212"/>
      <point x="368" y="282" type="curve"/>
      <point x="265" y="282" type="line"/>
      <point x="265" y="308" type="line"/>
      <point x="518" y="308" type="line"/>
      <point x="518" y="282" type="line"/>
      <point x="396" y="282" type="line"/>
      <point x="396" y="280"/>
      <point x="396" y="279"/>
      <point x="396" y="278" type="curve" smooth="yes"/>
      <point x="396" y="242"/>
      <point x="438" y="216"/>
      <point x="486" y="216" type="curve" smooth="yes"/>
      <point x="541" y="216"/>
      <point x="575" y="245"/>
      <point x="575" y="294" type="curve" smooth="yes"/>
      <point x="575" y="373"/>
      <point x="487" y="403"/>
      <point x="375" y="403" type="curve" smooth="yes"/>
      <point x="229" y="403"/>
      <point x="120" y="302"/>
      <point x="120" y="163" type="curve" smooth="yes"/>
      <point x="120" y="-4"/>
      <point x="231" y="-108"/>
      <point x="388" y="-108" type="curve" smooth="yes"/>
      <point x="488" y="-108"/>
      <point x="594" y="-50"/>
      <point x="594" y="66" type="curve" smooth="yes"/>
      <point x="594" y="72"/>
      <point x="592" y="80"/>
      <point x="590" y="84" type="curve"/>
      <point x="624" y="84" type="line"/>
      <point x="624" y="79"/>
      <point x="624" y="75"/>
      <point x="624" y="70" type="curve" smooth="yes"/>
      <point x="624" y="-72"/>
      <point x="500" y="-154"/>
      <point x="361" y="-154" type="curve" smooth="yes"/>
      <point x="180" y="-154"/>
      <point x="31" y="-58"/>
    </contour>
  </outline>
</glyph>
<glyph name="uni0DC1" format="1">
  <advance width="631"/>
  <unicode hex="0DC1"/>
  <outline>
    <contour>
      <point x="34" y="206" type="curve" smooth="yes"/>
      <point x="34" y="334"/>
      <point x="107" y="432"/>
      <point x="234" y="432" type="curve" smooth="yes"/>
      <point x="238" y="432"/>
      <point x="248" y="432"/>
      <point x="251" y="431" type="curve"/>
      <point x="251" y="408" type="line"/>
      <point x="247" y="408"/>
      <point x="242" y="408"/>
      <point x="238" y="408" type="curve" smooth="yes"/>
      <point x="140" y="408"/>
      <point x="71" y="340"/>
      <point x="71" y="237" type="curve" smooth="yes"/>
      <point x="71" y="159"/>
      <point x="113" y="83"/>
      <point x="203" y="83" type="curve" smooth="yes"/>
      <point x="254" y="83"/>
      <point x="306" y="110"/>
      <point x="306" y="163" type="curve" smooth="yes"/>
      <point x="306" y="198"/>
      <point x="289" y="218"/>
      <point x="260" y="218" type="curve" smooth="yes"/>
      <point x="254" y="218"/>
      <point x="245" y="217"/>
      <point x="237" y="211" type="curve"/>
      <point x="235" y="206"/>
      <point x="234" y="197"/>
      <point x="233" y="192" type="curve"/>
      <point x="208" y="192" type="line"/>
      <point x="222" y="328"/>
      <point x="276" y="432"/>
      <point x="399" y="432" type="curve" smooth="yes"/>
      <point x="523" y="432"/>
      <point x="582" y="312"/>
      <point x="582" y="196" type="curve" smooth="yes"/>
      <point x="582" y="128"/>
      <point x="558" y="37"/>
      <point x="529" y="1" type="curve"/>
      <point x="502" y="1" type="line"/>
      <point x="505" y="6"/>
      <point x="506" y="10"/>
      <point x="506" y="14" type="curve" smooth="yes"/>
      <point x="506" y="21"/>
      <point x="502" y="25"/>
      <point x="495" y="25" type="curve" smooth="yes"/>
      <point x="474" y="25"/>
      <point x="465" y="-3"/>
      <point x="427" y="-3" type="curve" smooth="yes"/>
      <point x="390" y="-3"/>
      <point x="367" y="36"/>
      <point x="367" y="75" type="curve" smooth="yes"/>
      <point x="367" y="138"/>
      <point x="413" y="184"/>
      <point x="483" y="184" type="curve" smooth="yes"/>
      <point x="498" y="184"/>
      <point x="519" y="181"/>
      <point x="530" y="177" type="curve"/>
      <point x="527" y="269"/>
      <point x="472" y="361"/>
      <point x="380" y="361" type="curve" smooth="yes"/>
      <point x="308" y="361"/>
      <point x="252" y="310"/>
      <point x="240" y="238" type="curve"/>
      <point x="247" y="241"/>
      <point x="255" y="242"/>
      <point x="262" y="242" type="curve" smooth="yes"/>
      <point x="310" y="242"/>
      <point x="343" y="208"/>
      <point x="343" y="138" type="curve" smooth="yes"/>
      <point x="343" y="62"/>
      <point x="289" y="-1"/>
      <point x="198" y="-1" type="curve" smooth="yes"/>
      <point x="91" y="-1"/>
      <point x="34" y="92"/>
    </contour>
    <contour>
      <point x="398" y="79" type="curve" smooth="yes"/>
      <point x="398" y="51"/>
      <point x="408" y="27"/>
      <point x="433" y="27" type="curve" smooth="yes"/>
      <point x="458" y="27"/>
      <point x="478" y="53"/>
      <point x="499" y="53" type="curve" smooth="yes"/>
      <point x="507" y="53"/>
      <point x="514" y="50"/>
      <point x="517" y="43" type="curve"/>
      <point x="525" y="66"/>
      <point x="529" y="97"/>
      <point x="530" y="123" type="curve" smooth="yes"/>
      <point x="531" y="132"/>
      <point x="531" y="141"/>
      <point x="531" y="148" type="curve"/>
      <point x="517" y="155"/>
      <point x="501" y="158"/>
      <point x="482" y="158" type="curve" smooth="yes"/>
      <point x="433" y="158"/>
      <point x="398" y="125"/>
    </contour>
  </outline>
</glyph>
<glyph name="si_Sa" format="1">
  <advance width="677"/>
  <unicode hex="0DC3"/>
  <outline>
    <contour>
      <point x="51" y="154" type="curve" smooth="yes"/>
      <point x="51" y="226"/>
      <point x="92" y="269"/>
      <point x="144" y="285" type="curve"/>
      <point x="178" y="297"/>
      <point x="232" y="308"/>
      <point x="269" y="308" type="curve" smooth="yes"/>
      <point x="282" y="308" type="line"/>
      <point x="282" y="310"/>
      <point x="282" y="309"/>
      <point x="282" y="311" type="curve" smooth="yes"/>
      <point x="282" y="357"/>
      <point x="250" y="394"/>
      <point x="214" y="394" type="curve" smooth="yes"/>
      <point x="174" y="394"/>
      <point x="163" y="370"/>
      <point x="158" y="354" type="curve" smooth="yes"/>
      <point x="151" y="335"/>
      <point x="141" y="323"/>
      <point x="118" y="323" type="curve" smooth="yes"/>
      <point x="101" y="323"/>
      <point x="82" y="333"/>
      <point x="82" y="359" type="curve" smooth="yes"/>
      <point x="82" y="406"/>
      <point x="132" y="432"/>
      <point x="187" y="432" type="curve" smooth="yes"/>
      <point x="275" y="432"/>
      <point x="313" y="369"/>
      <point x="313" y="296" type="curve" smooth="yes"/>
      <point x="313" y="293"/>
      <point x="313" y="286"/>
      <point x="313" y="282" type="curve"/>
      <point x="219" y="282" type="line" smooth="yes"/>
      <point x="166" y="282"/>
      <point x="95" y="251"/>
      <point x="95" y="182" type="curve" smooth="yes"/>
      <point x="95" y="127"/>
      <point x="144" y="84"/>
      <point x="214" y="84" type="curve" smooth="yes"/>
      <point x="270" y="84"/>
      <point x="321" y="112"/>
      <point x="321" y="161" type="curve" smooth="yes"/>
      <point x="321" y="188" type="line"/>
      <point x="348" y="188" type="line"/>
      <point x="348" y="161" type="line" smooth="yes"/>
      <point x="348" y="107"/>
      <point x="404" y="84"/>
      <point x="466" y="84" type="curve" smooth="yes"/>
      <point x="536" y="84"/>
      <point x="586" y="124"/>
      <point x="586" y="189" type="curve" smooth="yes"/>
      <point x="586" y="259"/>
      <point x="537" y="290"/>
      <point x="450" y="290" type="curve" smooth="yes"/>
      <point x="418" y="290"/>
      <point x="391" y="288"/>
      <point x="353" y="281" type="curve"/>
      <point x="353" y="285"/>
      <point x="353" y="287"/>
      <point x="353" y="291" type="curve" smooth="yes"/>
      <point x="353" y="375"/>
      <point x="401" y="432"/>
      <point x="476" y="432" type="curve" smooth="yes"/>
      <point x="530" y="432"/>
      <point x="579" y="408"/>
      <point x="579" y="350" type="curve" smooth="yes"/>
      <point x="579" y="329"/>
      <point x="565" y="306"/>
      <point x="550" y="297" type="curve"/>
      <point x="597" y="274"/>
      <point x="628" y="221"/>
      <point x="628" y="166" type="curve" smooth="yes"/>
      <point x="628" y="58"/>
      <point x="558" y="0"/>
      <point x="460" y="0" type="curve" smooth="yes"/>
      <point x="395" y="0"/>
      <point x="352" y="31"/>
      <point x="333" y="82" type="curve"/>
      <point x="312" y="30"/>
      <point x="271" y="-1"/>
      <point x="203" y="-1" type="curve" smooth="yes"/>
      <point x="108" y="-1"/>
      <point x="51" y="76"/>
    </contour>
    <contour>
      <point x="5" y="275" type="curve"/>
      <point x="5" y="308" type="line"/>
      <point x="280" y="308" type="line"/>
      <point x="309" y="282" type="line"/>
      <point x="147" y="282" type="line" smooth="yes"/>
      <point x="76" y="281"/>
      <point x="21" y="278"/>
    </contour>
    <contour>
      <point x="383" y="310" type="curve"/>
      <point x="394" y="313"/>
      <point x="421" y="316"/>
      <point x="445" y="316" type="curve" smooth="yes"/>
      <point x="479" y="316"/>
      <point x="502" y="313"/>
      <point x="524" y="306" type="curve"/>
      <point x="536" y="318"/>
      <point x="539" y="333"/>
      <point x="539" y="345" type="curve" smooth="yes"/>
      <point x="539" y="378"/>
      <point x="506" y="392"/>
      <point x="470" y="392" type="curve" smooth="yes"/>
      <point x="418" y="392"/>
      <point x="387" y="363"/>
    </contour>
  </outline>
</glyph>
<glyph name="uni0DC4" format="1">
  <advance width="653"/>
  <unicode hex="0DC4"/>
  <outline>
    <contour>
      <point x="33" y="155" type="curve" smooth="yes"/>
      <point x="33" y="246"/>
      <point x="100" y="303"/>
      <point x="194" y="303" type="curve" smooth="yes"/>
      <point x="198" y="303"/>
      <point x="202" y="303"/>
      <point x="206" y="303" type="curve"/>
      <point x="206" y="344"/>
      <point x="182" y="382"/>
      <point x="145" y="382" type="curve" smooth="yes"/>
      <point x="126" y="382"/>
      <point x="114" y="372"/>
      <point x="107" y="355" type="curve" smooth="yes"/>
      <point x="101" y="339"/>
      <point x="88" y="326"/>
      <point x="67" y="326" type="curve" smooth="yes"/>
      <point x="47" y="326"/>
      <point x="33" y="340"/>
      <point x="33" y="364" type="curve" smooth="yes"/>
      <point x="33" y="394"/>
      <point x="62" y="432"/>
      <point x="118" y="432" type="curve" smooth="yes"/>
      <point x="197" y="432"/>
      <point x="238" y="360"/>
      <point x="239" y="278" type="curve"/>
      <point x="227" y="279"/>
      <point x="216" y="280"/>
      <point x="205" y="280" type="curve" smooth="yes"/>
      <point x="125" y="280"/>
      <point x="74" y="245"/>
      <point x="74" y="182" type="curve" smooth="yes"/>
      <point x="74" y="116"/>
      <point x="138" y="84"/>
      <point x="209" y="84" type="curve" smooth="yes"/>
      <point x="270" y="84"/>
      <point x="328" y="110"/>
      <point x="328" y="169" type="curve" smooth="yes"/>
      <point x="328" y="197"/>
      <point x="314" y="213"/>
      <point x="295" y="213" type="curve" smooth="yes"/>
      <point x="282" y="213"/>
      <point x="269" y="204"/>
      <point x="262" y="183" type="curve"/>
      <point x="239" y="193" type="line"/>
      <point x="248" y="318"/>
      <point x="329" y="432"/>
      <point x="430" y="432" type="curve" smooth="yes"/>
      <point x="542" y="432"/>
      <point x="605" y="329"/>
      <point x="605" y="211" type="curve" smooth="yes"/>
      <point x="605" y="92"/>
      <point x="516" y="-1"/>
      <point x="393" y="-1" type="curve" smooth="yes"/>
      <point x="380" y="-1"/>
      <point x="366" y="0"/>
      <point x="352" y="2" type="curve"/>
      <point x="352" y="29" type="line"/>
      <point x="364" y="27"/>
      <point x="376" y="26"/>
      <point x="388" y="26" type="curve" smooth="yes"/>
      <point x="485" y="26"/>
      <point x="546" y="97"/>
      <point x="546" y="188" type="curve" smooth="yes"/>
      <point x="546" y="277"/>
      <point x="497" y="353"/>
      <point x="407" y="353" type="curve" smooth="yes"/>
      <point x="333" y="353"/>
      <point x="291" y="308"/>
      <point x="271" y="230" type="curve"/>
      <point x="281" y="236"/>
      <point x="291" y="238"/>
      <point x="300" y="238" type="curve" smooth="yes"/>
      <point x="339" y="238"/>
      <point x="366" y="199"/>
      <point x="366" y="145" type="curve" smooth="yes"/>
      <point x="366" y="53"/>
      <point x="296" y="-1"/>
      <point x="201" y="-1" type="curve" smooth="yes"/>
      <point x="103" y="-1"/>
      <point x="33" y="61"/>
    </contour>
  </outline>
</glyph>
<glyph name="uni0DC5" format="1">
  <advance width="636"/>
  <unicode hex="0DC5"/>
  <outline>
    <contour>
      <point x="31" y="114" type="curve" smooth="yes"/>
      <point x="31" y="192"/>
      <point x="80" y="297"/>
      <point x="179" y="297" type="curve" smooth="yes"/>
      <point x="542" y="297" type="line"/>
      <point x="542" y="352"/>
      <point x="510" y="403"/>
      <point x="444" y="403" type="curve" smooth="yes"/>
      <point x="398" y="403"/>
      <point x="364" y="365"/>
      <point x="364" y="330" type="curve"/>
      <point x="333" y="330" type="line"/>
      <point x="333" y="365"/>
      <point x="302" y="404"/>
      <point x="259" y="404" type="curve" smooth="yes"/>
      <point x="203" y="404"/>
      <point x="161" y="361"/>
      <point x="161" y="280" type="curve" smooth="yes"/>
      <point x="161" y="169"/>
      <point x="244" y="110"/>
      <point x="337" y="110" type="curve" smooth="yes"/>
      <point x="417" y="110"/>
      <point x="472" y="134"/>
      <point x="498" y="174" type="curve"/>
      <point x="527" y="174" type="line"/>
      <point x="503" y="91"/>
      <point x="437" y="43"/>
      <point x="334" y="43" type="curve" smooth="yes"/>
      <point x="218" y="43"/>
      <point x="126" y="138"/>
      <point x="126" y="274" type="curve" smooth="yes"/>
      <point x="126" y="373"/>
      <point x="187" y="432"/>
      <point x="260" y="432" type="curve" smooth="yes"/>
      <point x="296" y="432"/>
      <point x="333" y="415"/>
      <point x="349" y="377" type="curve"/>
      <point x="367" y="415"/>
      <point x="409" y="432"/>
      <point x="445" y="432" type="curve" smooth="yes"/>
      <point x="532" y="432"/>
      <point x="576" y="362"/>
      <point x="576" y="271" type="curve"/>
      <point x="208" y="271" type="line" smooth="yes"/>
      <point x="166" y="271"/>
      <point x="107" y="240"/>
      <point x="107" y="148" type="curve" smooth="yes"/>
      <point x="107" y="0"/>
      <point x="228" y="-101"/>
      <point x="378" y="-101" type="curve" smooth="yes"/>
      <point x="487" y="-101"/>
      <point x="588" y="-30"/>
      <point x="591" y="74" type="curve"/>
      <point x="618" y="74" type="line"/>
      <point x="618" y="-68"/>
      <point x="472" y="-153"/>
      <point x="343" y="-153" type="curve" smooth="yes"/>
      <point x="168" y="-153"/>
      <point x="31" y="-57"/>
    </contour>
  </outline>
</glyph>
<glyph name="si_Fa" format="1">
  <advance width="607"/>
  <unicode hex="0DC6"/>
  <outline>
    <contour>
      <point x="33" y="212" type="curve" smooth="yes"/>
      <point x="33" y="316"/>
      <point x="78" y="431"/>
      <point x="186" y="431" type="curve" smooth="yes"/>
      <point x="246" y="431"/>
      <point x="280" y="398"/>
      <point x="296" y="359" type="curve"/>
      <point x="312" y="398"/>
      <point x="346" y="431"/>
      <point x="406" y="431" type="curve" smooth="yes"/>
      <point x="514" y="431"/>
      <point x="559" y="316"/>
      <point x="559" y="212" type="curve" smooth="yes"/>
      <point x="559" y="110"/>
      <point x="511" y="-1"/>
      <point x="410" y="-1" type="curve" smooth="yes"/>
      <point x="398" y="-1"/>
      <point x="385" y="1"/>
      <point x="372" y="6" type="curve"/>
      <point x="372" y="32" type="line"/>
      <point x="383" y="28"/>
      <point x="394" y="26"/>
      <point x="405" y="26" type="curve" smooth="yes"/>
      <point x="476" y="26"/>
      <point x="520" y="99"/>
      <point x="520" y="191" type="curve" smooth="yes"/>
      <point x="520" y="270"/>
      <point x="493" y="348"/>
      <point x="407" y="348" type="curve" smooth="yes"/>
      <point x="355" y="348"/>
      <point x="312" y="322"/>
      <point x="312" y="251" type="curve" smooth="yes"/>
      <point x="312" y="214" type="line"/>
      <point x="280" y="214" type="line"/>
      <point x="280" y="251" type="line" smooth="yes"/>
      <point x="280" y="322"/>
      <point x="237" y="348"/>
      <point x="185" y="348" type="curve" smooth="yes"/>
      <point x="99" y="348"/>
      <point x="72" y="269"/>
      <point x="72" y="191" type="curve" smooth="yes"/>
      <point x="72" y="99"/>
      <point x="116" y="26"/>
      <point x="187" y="26" type="curve" smooth="yes"/>
      <point x="198" y="26"/>
      <point x="209" y="28"/>
      <point x="220" y="32" type="curve"/>
      <point x="220" y="6" type="line"/>
      <point x="207" y="1"/>
      <point x="194" y="-1"/>
      <point x="182" y="-1" type="curve" smooth="yes"/>
      <point x="81" y="-1"/>
      <point x="33" y="110"/>
    </contour>
  </outline>
</glyph>
<glyph name="si_MatraAe" format="1">
  <advance width="334"/>
  <unicode hex="0DD0"/>
  <outline>
    <contour>
      <point x="3" y="313" type="line"/>
      <point x="3" y="339" type="line"/>
      <point x="249" y="339" type="line"/>
      <point x="248" y="337"/>
      <point x="247" y="331"/>
      <point x="246" y="322" type="curve"/>
      <point x="181" y="226"/>
      <point x="158" y="136"/>
      <point x="158" y="57" type="curve" smooth="yes"/>
      <point x="158" y="-39"/>
      <point x="205" y="-85"/>
      <point x="263" y="-90" type="curve" smooth="yes"/>
      <point x="276" y="-91"/>
      <point x="288" y="-90"/>
      <point x="302" y="-88" type="curve"/>
      <point x="306" y="-106" type="line"/>
      <point x="279" y="-137"/>
      <point x="246" y="-147"/>
      <point x="205" y="-147" type="curve" smooth="yes"/>
      <point x="120" y="-147"/>
      <point x="78" y="-75"/>
      <point x="78" y="15" type="curve" smooth="yes"/>
      <point x="78" y="137"/>
      <point x="156" y="253"/>
      <point x="210" y="313" type="curve"/>
    </contour>
  </outline>
</glyph>
<glyph name="si_MatraAae" format="1">
  <advance width="336"/>
  <unicode hex="0DD1"/>
  <outline>
    <contour>
      <point x="4" y="314" type="line"/>
      <point x="4" y="339" type="line"/>
      <point x="249" y="339" type="line"/>
      <point x="249" y="317" type="line"/>
      <point x="122" y="223" type="line"/>
      <point x="272" y="223" type="line"/>
      <point x="272" y="201" type="line"/>
      <point x="226" y="167"/>
      <point x="164" y="100"/>
      <point x="164" y="17" type="curve" smooth="yes"/>
      <point x="164" y="-66"/>
      <point x="219" y="-105"/>
      <point x="306" y="-105" type="curve"/>
      <point x="306" y="-130" type="line"/>
      <point x="280" y="-142"/>
      <point x="251" y="-148"/>
      <point x="225" y="-148" type="curve" smooth="yes"/>
      <point x="134" y="-148"/>
      <point x="84" y="-93"/>
      <point x="84" y="-13" type="curve" smooth="yes"/>
      <point x="84" y="81"/>
      <point x="168" y="155"/>
      <point x="234" y="198" type="curve"/>
      <point x="72" y="198" type="line"/>
      <point x="72" y="219" type="line"/>
      <point x="204" y="314" type="line"/>
    </contour>
  </outline>
</glyph>
<glyph name="si_MatraI" format="1">
  <advance width="2"/>
  <unicode hex="0DD2"/>
  <outline>
    <contour>
      <point x="-545" y="518" type="curve" smooth="yes"/>
      <point x="-545" y="626"/>
      <point x="-432" y="671"/>
      <point x="-313" y="671" type="curve" smooth="yes"/>
      <point x="-194" y="671"/>
      <point x="-81" y="626"/>
      <point x="-81" y="518" type="curve" smooth="yes"/>
      <point x="-81" y="443"/>
      <point x="-147" y="408"/>
      <point x="-224" y="405" type="curve"/>
      <point x="-224" y="426" type="line"/>
      <point x="-170" y="429"/>
      <point x="-121" y="453"/>
      <point x="-121" y="503" type="curve" smooth="yes"/>
      <point x="-121" y="569"/>
      <point x="-225" y="586"/>
      <point x="-313" y="586" type="curve" smooth="yes"/>
      <point x="-402" y="586"/>
      <point x="-506" y="569"/>
      <point x="-506" y="503" type="curve" smooth="yes"/>
      <point x="-506" y="453"/>
      <point x="-456" y="429"/>
      <point x="-402" y="426" type="curve"/>
      <point x="-402" y="405" type="line"/>
      <point x="-479" y="408"/>
      <point x="-545" y="443"/>
    </contour>
  </outline>
</glyph>
<glyph name="uni0DD3" format="1">
  <advance width="2"/>
  <unicode hex="0DD3"/>
  <outline>
    <contour>
      <point x="-250" y="514" type="curve" smooth="yes"/>
      <point x="-250" y="483"/>
      <point x="-220" y="458"/>
      <point x="-184" y="458" type="curve" smooth="yes"/>
      <point x="-148" y="458"/>
      <point x="-118" y="483"/>
      <point x="-118" y="514" type="curve" smooth="yes"/>
      <point x="-118" y="545"/>
      <point x="-148" y="570"/>
      <point x="-184" y="570" type="curve" smooth="yes"/>
      <point x="-220" y="570"/>
      <point x="-250" y="545"/>
    </contour>
    <contour>
      <point x="-587" y="517" type="curve" smooth="yes"/>
      <point x="-587" y="624"/>
      <point x="-463" y="671"/>
      <point x="-336" y="671" type="curve" smooth="yes"/>
      <point x="-219" y="671"/>
      <point x="-83" y="627"/>
      <point x="-83" y="524" type="curve" smooth="yes"/>
      <point x="-83" y="469"/>
      <point x="-128" y="429"/>
      <point x="-184" y="429" type="curve" smooth="yes"/>
      <point x="-242" y="429"/>
      <point x="-282" y="470"/>
      <point x="-282" y="515" type="curve" smooth="yes"/>
      <point x="-282" y="553"/>
      <point x="-255" y="576"/>
      <point x="-238" y="586" type="curve"/>
      <point x="-248" y="588"/>
      <point x="-287" y="593"/>
      <point x="-337" y="593" type="curve" smooth="yes"/>
      <point x="-431" y="593"/>
      <point x="-548" y="571"/>
      <point x="-548" y="496" type="curve" smooth="yes"/>
      <point x="-548" y="460"/>
      <point x="-527" y="435"/>
      <point x="-490" y="426" type="curve"/>
      <point x="-497" y="406" type="line"/>
      <point x="-550" y="411"/>
      <point x="-587" y="456"/>
    </contour>
  </outline>
</glyph>
<glyph name="uni0DD4" format="1">
  <advance width="2"/>
  <unicode hex="0DD4"/>
  <outline>
    <contour>
      <point x="-594" y="-148" type="curve" smooth="yes"/>
      <point x="-594" y="-90"/>
      <point x="-550" y="-51"/>
      <point x="-495" y="-51" type="curve" smooth="yes"/>
      <point x="-451" y="-51"/>
      <point x="-417" y="-69"/>
      <point x="-399" y="-110" type="curve"/>
      <point x="-430" y="-122" type="line"/>
      <point x="-438" y="-100"/>
      <point x="-458" y="-81"/>
      <point x="-491" y="-81" type="curve" smooth="yes"/>
      <point x="-528" y="-81"/>
      <point x="-559" y="-104"/>
      <point x="-559" y="-143" type="curve" smooth="yes"/>
      <point x="-559" y="-180"/>
      <point x="-531" y="-198"/>
      <point x="-477" y="-198" type="curve" smooth="yes"/>
      <point x="-89" y="-198" type="line"/>
      <point x="-89" y="128" type="line"/>
      <point x="-56" y="219" type="line"/>
      <point x="-56" y="-235" type="line"/>
      <point x="-483" y="-235" type="line" smooth="yes"/>
      <point x="-553" y="-235"/>
      <point x="-594" y="-200"/>
    </contour>
  </outline>
</glyph>
<glyph name="uni0DD6" format="1">
  <advance width="2"/>
  <unicode hex="0DD6"/>
  <outline>
    <contour>
      <point x="-582" y="-146" type="curve" smooth="yes"/>
      <point x="-582" y="-88"/>
      <point x="-533" y="-48"/>
      <point x="-480" y="-48" type="curve" smooth="yes"/>
      <point x="-438" y="-48"/>
      <point x="-406" y="-63"/>
      <point x="-383" y="-99" type="curve"/>
      <point x="-414" y="-110" type="line"/>
      <point x="-425" y="-92"/>
      <point x="-446" y="-77"/>
      <point x="-475" y="-77" type="curve" smooth="yes"/>
      <point x="-514" y="-77"/>
      <point x="-545" y="-101"/>
      <point x="-545" y="-135" type="curve" smooth="yes"/>
      <point x="-545" y="-172"/>
      <point x="-514" y="-195"/>
      <point x="-473" y="-195" type="curve" smooth="yes"/>
      <point x="-390" y="-195"/>
      <point x="-309" y="-125"/>
      <point x="-211" y="-125" type="curve" smooth="yes"/>
      <point x="-167" y="-125"/>
      <point x="-118" y="-144"/>
      <point x="-91" y="-176" type="curve"/>
      <point x="-91" y="144" type="line"/>
      <point x="-58" y="204" type="line"/>
      <point x="-58" y="-239" type="line"/>
      <point x="-82" y="-239" type="line"/>
      <point x="-96" y="-203"/>
      <point x="-140" y="-153"/>
      <point x="-207" y="-153" type="curve" smooth="yes"/>
      <point x="-298" y="-153"/>
      <point x="-373" y="-245"/>
      <point x="-471" y="-245" type="curve" smooth="yes"/>
      <point x="-526" y="-245"/>
      <point x="-582" y="-214"/>
    </contour>
  </outline>
</glyph>
<glyph name="uni0DD8" format="1">
  <advance width="313"/>
  <unicode hex="0DD8"/>
  <outline>
    <contour>
      <point x="33" y="249" type="curve" smooth="yes"/>
      <point x="33" y="329"/>
      <point x="69" y="393"/>
      <point x="144" y="393" type="curve" smooth="yes"/>
      <point x="231" y="393"/>
      <point x="265" y="301"/>
      <point x="265" y="203" type="curve" smooth="yes"/>
      <point x="265" y="144"/>
      <point x="248" y="52"/>
      <point x="248" y="23" type="curve" smooth="yes"/>
      <point x="248" y="16"/>
      <point x="248" y="9"/>
      <point x="249" y="3" type="curve"/>
      <point x="211" y="3" type="line"/>
      <point x="208" y="12"/>
      <point x="203" y="17"/>
      <point x="196" y="17" type="curve" smooth="yes"/>
      <point x="184" y="17"/>
      <point x="161" y="-1"/>
      <point x="128" y="-1" type="curve" smooth="yes"/>
      <point x="69" y="-1"/>
      <point x="33" y="52"/>
      <point x="33" y="106" type="curve" smooth="yes"/>
      <point x="33" y="153"/>
      <point x="55" y="186"/>
      <point x="99" y="205" type="curve" smooth="yes"/>
      <point x="124" y="216"/>
      <point x="162" y="222"/>
      <point x="194" y="222" type="curve"/>
      <point x="194" y="312"/>
      <point x="170" y="355"/>
      <point x="130" y="355" type="curve" smooth="yes"/>
      <point x="81" y="355"/>
      <point x="58" y="308"/>
      <point x="58" y="246" type="curve" smooth="yes"/>
      <point x="58" y="244"/>
      <point x="58" y="244"/>
      <point x="58" y="242" type="curve"/>
      <point x="33" y="242" type="line"/>
      <point x="33" y="245"/>
      <point x="33" y="246"/>
    </contour>
    <contour>
      <point x="63" y="107" type="curve" smooth="yes"/>
      <point x="63" y="67"/>
      <point x="89" y="28"/>
      <point x="130" y="28" type="curve" smooth="yes"/>
      <point x="155" y="28"/>
      <point x="178" y="42"/>
      <point x="188" y="42" type="curve" smooth="yes"/>
      <point x="191" y="43"/>
      <point x="194" y="42"/>
      <point x="197" y="40" type="curve"/>
      <point x="194" y="52"/>
      <point x="193" y="78"/>
      <point x="193" y="116" type="curve" smooth="yes"/>
      <point x="193" y="147"/>
      <point x="194" y="167"/>
      <point x="194" y="185" type="curve" smooth="yes"/>
      <point x="194" y="188"/>
      <point x="194" y="192"/>
      <point x="194" y="194" type="curve"/>
      <point x="181" y="194"/>
      <point x="148" y="193"/>
      <point x="123" y="185" type="curve" smooth="yes"/>
      <point x="87" y="174"/>
      <point x="63" y="151"/>
    </contour>
  </outline>
</glyph>
<glyph name="uni0DD9" format="1">
  <advance width="627"/>
  <unicode hex="0DD9"/>
  <outline>
    <contour>
      <point x="233" y="251" type="curve" smooth="yes"/>
      <point x="233" y="225"/>
      <point x="258" y="204"/>
      <point x="288" y="204" type="curve" smooth="yes"/>
      <point x="318" y="204"/>
      <point x="343" y="225"/>
      <point x="343" y="251" type="curve" smooth="yes"/>
      <point x="343" y="277"/>
      <point x="318" y="298"/>
      <point x="288" y="298" type="curve" smooth="yes"/>
      <point x="258" y="298"/>
      <point x="233" y="277"/>
    </contour>
    <contour>
      <point x="33" y="212" type="curve" smooth="yes"/>
      <point x="33" y="347"/>
      <point x="161" y="432"/>
      <point x="301" y="432" type="curve" smooth="yes"/>
      <point x="449" y="432"/>
      <point x="572" y="340"/>
      <point x="584" y="206" type="curve"/>
      <point x="555" y="206" type="line"/>
      <point x="536" y="324"/>
      <point x="430" y="404"/>
      <point x="301" y="404" type="curve" smooth="yes"/>
      <point x="187" y="404"/>
      <point x="82" y="341"/>
      <point x="82" y="243" type="curve" smooth="yes"/>
      <point x="82" y="152"/>
      <point x="163" y="83"/>
      <point x="269" y="83" type="curve" smooth="yes"/>
      <point x="358" y="83"/>
      <point x="448" y="119"/>
      <point x="448" y="199" type="curve" smooth="yes"/>
      <point x="448" y="250"/>
      <point x="406" y="284"/>
      <point x="357" y="294" type="curve"/>
      <point x="370" y="280"/>
      <point x="376" y="263"/>
      <point x="376" y="247" type="curve" smooth="yes"/>
      <point x="376" y="199"/>
      <point x="332" y="172"/>
      <point x="289" y="172" type="curve" smooth="yes"/>
      <point x="243" y="172"/>
      <point x="200" y="204"/>
      <point x="200" y="248" type="curve" smooth="yes"/>
      <point x="200" y="296"/>
      <point x="245" y="328"/>
      <point x="301" y="328" type="curve" smooth="yes"/>
      <point x="405" y="328"/>
      <point x="491" y="272"/>
      <point x="491" y="170" type="curve" smooth="yes"/>
      <point x="491" y="70"/>
      <point x="412" y="0"/>
      <point x="269" y="0" type="curve" smooth="yes"/>
      <point x="134" y="0"/>
      <point x="33" y="84"/>
    </contour>
  </outline>
</glyph>
<glyph name="uni0DDF" format="1">
  <advance width="441"/>
  <unicode hex="0DDF"/>
  <outline>
    <contour>
      <point x="33" y="321" type="curve" smooth="yes"/>
      <point x="33" y="370"/>
      <point x="49" y="404"/>
      <point x="70" y="428" type="curve"/>
      <point x="105" y="428" type="line"/>
      <point x="83" y="410"/>
      <point x="62" y="375"/>
      <point x="62" y="322" type="curve" smooth="yes"/>
      <point x="62" y="276"/>
      <point x="87" y="239"/>
      <point x="131" y="239" type="curve" smooth="yes"/>
      <point x="163" y="239"/>
      <point x="180" y="261"/>
      <point x="180" y="290" type="curve" smooth="yes"/>
      <point x="180" y="307"/>
      <point x="173" y="323"/>
      <point x="160" y="337" type="curve"/>
      <point x="159" y="342"/>
      <point x="159" y="344"/>
      <point x="159" y="349" type="curve" smooth="yes"/>
      <point x="159" y="398"/>
      <point x="190" y="432"/>
      <point x="255" y="432" type="curve" smooth="yes"/>
      <point x="361" y="432"/>
      <point x="393" y="316"/>
      <point x="393" y="220" type="curve" smooth="yes"/>
      <point x="393" y="101"/>
      <point x="350" y="-2"/>
      <point x="243" y="-2" type="curve" smooth="yes"/>
      <point x="167" y="-2"/>
      <point x="131" y="54"/>
      <point x="131" y="120" type="curve" smooth="yes"/>
      <point x="131" y="132"/>
      <point x="132" y="144"/>
      <point x="135" y="157" type="curve"/>
      <point x="161" y="157" type="line"/>
      <point x="159" y="146"/>
      <point x="158" y="136"/>
      <point x="158" y="125" type="curve" smooth="yes"/>
      <point x="158" y="72"/>
      <point x="185" y="33"/>
      <point x="232" y="33" type="curve" smooth="yes"/>
      <point x="288" y="33"/>
      <point x="310" y="102"/>
      <point x="310" y="238" type="curve" smooth="yes"/>
      <point x="310" y="349"/>
      <point x="283" y="404"/>
      <point x="239" y="404" type="curve" smooth="yes"/>
      <point x="208" y="404"/>
      <point x="188" y="388"/>
      <point x="188" y="350" type="curve" smooth="yes"/>
      <point x="188" y="348"/>
      <point x="188" y="346"/>
      <point x="188" y="344" type="curve"/>
      <point x="212" y="331"/>
      <point x="224" y="312"/>
      <point x="224" y="288" type="curve" smooth="yes"/>
      <point x="224" y="238"/>
      <point x="183" y="212"/>
      <point x="133" y="212" type="curve" smooth="yes"/>
      <point x="71" y="212"/>
      <point x="33" y="261"/>
    </contour>
  </outline>
</glyph>
<glyph name="si_kundaliya" format="1">
  <advance width="1742"/>
  <unicode hex="0DF4"/>
  <outline>
    <contour>
      <point x="1293" y="45" type="curve"/>
      <point x="1319" y="135" type="line"/>
      <point x="1170" y="43" type="line"/>
      <point x="1199" y="178" type="line"/>
      <point x="1044" y="76" type="line"/>
      <point x="1062" y="241" type="line"/>
      <point x="904" y="92" type="line"/>
      <point x="890" y="268" type="line"/>
      <point x="756" y="120" type="line"/>
      <point x="725" y="265" type="line"/>
      <point x="594" y="117" type="line"/>
      <point x="566" y="228" type="line"/>
      <point x="454" y="79" type="line"/>
      <point x="424" y="165" type="line"/>
      <point x="362" y="56" type="line"/>
      <point x="350" y="78"/>
      <point x="337" y="89"/>
      <point x="323" y="89" type="curve" smooth="yes"/>
      <point x="259" y="89"/>
      <point x="213" y="-2"/>
      <point x="126" y="-2" type="curve" smooth="yes"/>
      <point x="86" y="-2"/>
      <point x="51" y="23"/>
      <point x="51" y="66" type="curve" smooth="yes"/>
      <point x="51" y="102"/>
      <point x="74" y="124"/>
      <point x="105" y="124" type="curve" smooth="yes"/>
      <point x="135" y="124"/>
      <point x="154" y="100"/>
      <point x="154" y="73" type="curve" smooth="yes"/>
      <point x="154" y="58"/>
      <point x="149" y="41"/>
      <point x="137" y="31" type="curve"/>
      <point x="139" y="28"/>
      <point x="145" y="26"/>
      <point x="153" y="26" type="curve" smooth="yes"/>
      <point x="206" y="26"/>
      <point x="280" y="130"/>
      <point x="334" y="130" type="curve" smooth="yes"/>
      <point x="344" y="130"/>
      <point x="361" y="127"/>
      <point x="370" y="111" type="curve"/>
      <point x="449" y="250" type="line"/>
      <point x="484" y="152" type="line"/>
      <point x="610" y="320" type="line"/>
      <point x="640" y="199" type="line"/>
      <point x="776" y="356" type="line"/>
      <point x="807" y="207" type="line"/>
      <point x="954" y="375" type="line"/>
      <point x="968" y="184" type="line"/>
      <point x="1142" y="344" type="line"/>
      <point x="1118" y="153" type="line"/>
      <point x="1284" y="260" type="line"/>
      <point x="1251" y="118" type="line"/>
      <point x="1395" y="210" type="line"/>
      <point x="1364" y="122" type="line"/>
      <point x="1373" y="127"/>
      <point x="1384" y="130"/>
      <point x="1397" y="130" type="curve" smooth="yes"/>
      <point x="1451" y="130"/>
      <point x="1525" y="26"/>
      <point x="1578" y="26" type="curve" smooth="yes"/>
      <point x="1585" y="26"/>
      <point x="1591" y="28"/>
      <point x="1594" y="31" type="curve"/>
      <point x="1583" y="41"/>
      <point x="1576" y="57"/>
      <point x="1576" y="73" type="curve" smooth="yes"/>
      <point x="1576" y="99"/>
      <point x="1595" y="124"/>
      <point x="1626" y="124" type="curve" smooth="yes"/>
      <point x="1657" y="124"/>
      <point x="1680" y="102"/>
      <point x="1680" y="66" type="curve" smooth="yes"/>
      <point x="1680" y="23"/>
      <point x="1645" y="-2"/>
      <point x="1605" y="-2" type="curve" smooth="yes"/>
      <point x="1518" y="-2"/>
      <point x="1470" y="91"/>
      <point x="1402" y="91" type="curve" smooth="yes"/>
      <point x="1362" y="91"/>
      <point x="1319" y="66"/>
    </contour>
  </outline>
</glyph>
<glyph name="zwnj" format="1">
  <advance width="0"/>
  <unicode hex="200C"/>
  <outline>
    <contour>
      <point x="-24" y="5" type="line"/>
      <point x="-24" y="765" type="line"/>
      <point x="24" y="765" type="line"/>
      <point x="24" y="5" type="line"/>
    </contour>
  </outline>
</glyph>
<glyph name="afii301" format="1">
  <advance width="0"/>
  <unicode hex="200D"/>
  <outline>
    <contour>
      <point x="32" y="655" type="line"/>
      <point x="156" y="532" type="line"/>
      <point x="124" y="500" type="line"/>
      <point x="24" y="601" type="line"/>
      <point x="24" y="6" type="line"/>
      <point x="-24" y="6" type="line"/>
      <point x="-24" y="601" type="line"/>
      <point x="-124" y="500" type="line"/>
      <point x="-156" y="532" type="line"/>
      <point x="-32" y="655" type="line"/>
      <point x="-156" y="777" type="line"/>
      <point x="-124" y="808" type="line"/>
      <point x="0" y="684" type="line"/>
      <point x="124" y="808" type="line"/>
      <point x="156" y="777" type="line"/>
    </contour>
  </outline>
</glyph>
<glyph name="dottedcircle" format="1">
  <advance width="558"/>
  <unicode hex="25CC"/>
  <outline>
    <contour>
      <point x="104" y="96" type="curve" smooth="yes"/>
      <point x="105" y="112"/>
      <point x="114" y="120"/>
      <point x="129" y="120" type="curve" smooth="yes"/>
      <point x="146" y="120"/>
      <point x="154" y="112"/>
      <point x="153" y="96" type="curve" smooth="yes"/>
      <point x="153" y="80"/>
      <point x="144" y="72"/>
      <point x="129" y="72" type="curve" smooth="yes"/>
      <point x="112" y="72"/>
      <point x="104" y="80"/>
    </contour>
    <contour>
      <point x="62" y="164" type="curve" smooth="yes"/>
      <point x="63" y="179"/>
      <point x="71" y="188"/>
      <point x="86" y="188" type="curve" smooth="yes"/>
      <point x="102" y="188"/>
      <point x="110" y="179"/>
      <point x="109" y="164" type="curve" smooth="yes"/>
      <point x="108" y="147"/>
      <point x="100" y="139"/>
      <point x="85" y="139" type="curve" smooth="yes"/>
      <point x="70" y="139"/>
      <point x="61" y="147"/>
    </contour>
    <contour>
      <point x="170" y="53" type="curve" smooth="yes"/>
      <point x="170" y="69"/>
      <point x="179" y="77"/>
      <point x="194" y="77" type="curve" smooth="yes"/>
      <point x="210" y="77"/>
      <point x="218" y="69"/>
      <point x="218" y="53" type="curve" smooth="yes"/>
      <point x="217" y="37"/>
      <point x="208" y="29"/>
      <point x="193" y="29" type="curve" smooth="yes"/>
      <point x="177" y="29"/>
      <point x="169" y="37"/>
    </contour>
    <contour>
      <point x="246" y="37" type="curve" smooth="yes"/>
      <point x="247" y="53"/>
      <point x="255" y="61"/>
      <point x="270" y="61" type="curve" smooth="yes"/>
      <point x="286" y="61"/>
      <point x="294" y="53"/>
      <point x="293" y="37" type="curve" smooth="yes"/>
      <point x="292" y="21"/>
      <point x="284" y="13"/>
      <point x="269" y="13" type="curve" smooth="yes"/>
      <point x="253" y="13"/>
      <point x="245" y="21"/>
    </contour>
    <contour>
      <point x="48" y="240" type="curve" smooth="yes"/>
      <point x="48" y="256"/>
      <point x="56" y="264"/>
      <point x="72" y="264" type="curve" smooth="yes"/>
      <point x="88" y="264"/>
      <point x="97" y="256"/>
      <point x="96" y="240" type="curve" smooth="yes"/>
      <point x="95" y="224"/>
      <point x="87" y="216"/>
      <point x="72" y="216" type="curve" smooth="yes"/>
      <point x="55" y="216"/>
      <point x="47" y="224"/>
    </contour>
    <contour>
      <point x="65" y="316" type="curve" smooth="yes"/>
      <point x="66" y="333"/>
      <point x="75" y="341"/>
      <point x="90" y="341" type="curve" smooth="yes"/>
      <point x="105" y="341"/>
      <point x="113" y="333"/>
      <point x="112" y="316" type="curve" smooth="yes"/>
      <point x="111" y="301"/>
      <point x="103" y="292"/>
      <point x="90" y="292" type="curve" smooth="yes"/>
      <point x="73" y="292"/>
      <point x="64" y="301"/>
    </contour>
    <contour>
      <point x="325" y="53" type="curve" smooth="yes"/>
      <point x="325" y="69"/>
      <point x="334" y="77"/>
      <point x="349" y="77" type="curve" smooth="yes"/>
      <point x="365" y="77"/>
      <point x="373" y="69"/>
      <point x="373" y="53" type="curve" smooth="yes"/>
      <point x="372" y="37"/>
      <point x="363" y="29"/>
      <point x="348" y="29" type="curve" smooth="yes"/>
      <point x="332" y="29"/>
      <point x="324" y="37"/>
    </contour>
    <contour>
      <point x="110" y="384" type="curve" smooth="yes"/>
      <point x="111" y="399"/>
      <point x="120" y="407"/>
      <point x="135" y="407" type="curve" smooth="yes"/>
      <point x="151" y="407"/>
      <point x="159" y="399"/>
      <point x="158" y="384" type="curve" smooth="yes"/>
      <point x="157" y="368"/>
      <point x="148" y="360"/>
      <point x="133" y="360" type="curve" smooth="yes"/>
      <point x="117" y="360"/>
      <point x="109" y="368"/>
    </contour>
    <contour>
      <point x="392" y="96" type="curve" smooth="yes"/>
      <point x="393" y="112"/>
      <point x="401" y="120"/>
      <point x="416" y="120" type="curve" smooth="yes"/>
      <point x="432" y="120"/>
      <point x="440" y="112"/>
      <point x="439" y="96" type="curve" smooth="yes"/>
      <point x="438" y="80"/>
      <point x="429" y="72"/>
      <point x="415" y="72" type="curve" smooth="yes"/>
      <point x="399" y="72"/>
      <point x="391" y="80"/>
    </contour>
    <contour>
      <point x="176" y="428" type="curve" smooth="yes"/>
      <point x="177" y="443"/>
      <point x="185" y="452"/>
      <point x="201" y="452" type="curve" smooth="yes"/>
      <point x="217" y="452"/>
      <point x="225" y="443"/>
      <point x="224" y="428" type="curve" smooth="yes"/>
      <point x="224" y="411"/>
      <point x="215" y="403"/>
      <point x="200" y="403" type="curve" smooth="yes"/>
      <point x="184" y="403"/>
      <point x="176" y="411"/>
    </contour>
    <contour>
      <point x="436" y="164" type="curve" smooth="yes"/>
      <point x="437" y="179"/>
      <point x="445" y="188"/>
      <point x="461" y="188" type="curve" smooth="yes"/>
      <point x="477" y="188"/>
      <point x="486" y="179"/>
      <point x="485" y="164" type="curve" smooth="yes"/>
      <point x="484" y="147"/>
      <point x="475" y="139"/>
      <point x="459" y="139" type="curve" smooth="yes"/>
      <point x="443" y="139"/>
      <point x="435" y="147"/>
    </contour>
    <contour>
      <point x="254" y="442" type="curve" smooth="yes"/>
      <point x="255" y="459"/>
      <point x="263" y="467"/>
      <point x="278" y="467" type="curve" smooth="yes"/>
      <point x="294" y="467"/>
      <point x="302" y="459"/>
      <point x="301" y="442" type="curve" smooth="yes"/>
      <point x="301" y="427"/>
      <point x="292" y="418"/>
      <point x="277" y="418" type="curve" smooth="yes"/>
      <point x="262" y="418"/>
      <point x="254" y="427"/>
    </contour>
    <contour>
      <point x="452" y="240" type="curve" smooth="yes"/>
      <point x="453" y="256"/>
      <point x="461" y="264"/>
      <point x="477" y="264" type="curve" smooth="yes"/>
      <point x="493" y="264"/>
      <point x="502" y="256"/>
      <point x="501" y="240" type="curve" smooth="yes"/>
      <point x="500" y="224"/>
      <point x="492" y="216"/>
      <point x="477" y="216" type="curve" smooth="yes"/>
      <point x="460" y="216"/>
      <point x="452" y="224"/>
    </contour>
    <contour>
      <point x="331" y="428" type="curve" smooth="yes"/>
      <point x="332" y="443"/>
      <point x="340" y="452"/>
      <point x="356" y="452" type="curve" smooth="yes"/>
      <point x="372" y="452"/>
      <point x="380" y="443"/>
      <point x="379" y="428" type="curve" smooth="yes"/>
      <point x="379" y="411"/>
      <point x="370" y="403"/>
      <point x="355" y="403" type="curve" smooth="yes"/>
      <point x="339" y="403"/>
      <point x="331" y="411"/>
    </contour>
    <contour>
      <point x="439" y="316" type="curve" smooth="yes"/>
      <point x="440" y="333"/>
      <point x="448" y="341"/>
      <point x="464" y="341" type="curve" smooth="yes"/>
      <point x="480" y="341"/>
      <point x="489" y="333"/>
      <point x="488" y="316" type="curve" smooth="yes"/>
      <point x="487" y="301"/>
      <point x="479" y="292"/>
      <point x="463" y="292" type="curve" smooth="yes"/>
      <point x="447" y="292"/>
      <point x="438" y="301"/>
    </contour>
    <contour>
      <point x="396" y="384" type="curve" smooth="yes"/>
      <point x="396" y="399"/>
      <point x="405" y="407"/>
      <point x="421" y="407" type="curve" smooth="yes"/>
      <point x="437" y="407"/>
      <point x="446" y="399"/>
      <point x="445" y="384" type="curve" smooth="yes"/>
      <point x="444" y="368"/>
      <point x="435" y="360"/>
      <point x="420" y="360" type="curve" smooth="yes"/>
      <point x="403" y="360"/>
      <point x="395" y="368"/>
    </contour>
  </outline>
</glyph>
<glyph name="si_BI" format="1">
  <advance width="619"/>
  <outline>
    <contour>
      <point x="67" y="562" type="curve" smooth="yes"/>
      <point x="67" y="652"/>
      <point x="198" y="670"/>
      <point x="298" y="670" type="curve" smooth="yes"/>
      <point x="434" y="670"/>
      <point x="544" y="639"/>
      <point x="544" y="554" type="curve" smooth="yes"/>
      <point x="544" y="502"/>
      <point x="490" y="480"/>
      <point x="456" y="474" type="curve"/>
      <point x="406" y="490" type="line"/>
      <point x="442" y="491"/>
      <point x="492" y="506"/>
      <point x="492" y="541" type="curve" smooth="yes"/>
      <point x="492" y="593"/>
      <point x="406" y="605"/>
      <point x="298" y="605" type="curve" smooth="yes"/>
      <point x="222" y="605"/>
      <point x="112" y="600"/>
      <point x="112" y="551" type="curve" smooth="yes"/>
      <point x="112" y="509"/>
      <point x="174" y="508"/>
      <point x="276" y="504" type="curve" smooth="yes"/>
      <point x="341" y="501"/>
      <point x="435" y="499"/>
      <point x="490" y="459" type="curve" smooth="yes"/>
      <point x="539" y="423"/>
      <point x="575" y="356"/>
      <point x="575" y="275" type="curve"/>
      <point x="529" y="302" type="line"/>
      <point x="529" y="341"/>
      <point x="520" y="387"/>
      <point x="492" y="416" type="curve" smooth="yes"/>
      <point x="441" y="471"/>
      <point x="378" y="472"/>
      <point x="277" y="478" type="curve" smooth="yes"/>
      <point x="188" y="483"/>
      <point x="67" y="476"/>
    </contour>
    <contour>
      <point x="101" y="76" type="curve" smooth="yes"/>
      <point x="101" y="50"/>
      <point x="124" y="27"/>
      <point x="150" y="27" type="curve" smooth="yes"/>
      <point x="176" y="27"/>
      <point x="199" y="50"/>
      <point x="199" y="76" type="curve" smooth="yes"/>
      <point x="199" y="102"/>
      <point x="176" y="125"/>
      <point x="150" y="125" type="curve" smooth="yes"/>
      <point x="124" y="125"/>
      <point x="101" y="102"/>
    </contour>
    <contour>
      <point x="33" y="187" type="curve" smooth="yes"/>
      <point x="33" y="314"/>
      <point x="121" y="396"/>
      <point x="245" y="396" type="curve" smooth="yes"/>
      <point x="337" y="396"/>
      <point x="419" y="347"/>
      <point x="419" y="259" type="curve" smooth="yes"/>
      <point x="419" y="132"/>
      <point x="302" y="169"/>
      <point x="302" y="106" type="curve" smooth="yes"/>
      <point x="302" y="82"/>
      <point x="319" y="71"/>
      <point x="348" y="71" type="curve" smooth="yes"/>
      <point x="456" y="71"/>
      <point x="529" y="197"/>
      <point x="529" y="306" type="curve"/>
      <point x="547" y="297"/>
      <point x="558" y="290"/>
      <point x="575" y="279" type="curve"/>
      <point x="575" y="140"/>
      <point x="518" y="-2"/>
      <point x="381" y="-2" type="curve" smooth="yes"/>
      <point x="317" y="-2"/>
      <point x="270" y="38"/>
      <point x="270" y="97" type="curve" smooth="yes"/>
      <point x="270" y="187"/>
      <point x="377" y="159"/>
      <point x="377" y="236" type="curve" smooth="yes"/>
      <point x="377" y="288"/>
      <point x="309" y="312"/>
      <point x="237" y="312" type="curve" smooth="yes"/>
      <point x="146" y="312"/>
      <point x="65" y="259"/>
      <point x="65" y="158" type="curve" smooth="yes"/>
      <point x="65" y="135"/>
      <point x="70" y="106"/>
      <point x="77" y="91" type="curve"/>
      <point x="81" y="126"/>
      <point x="109" y="153"/>
      <point x="150" y="153" type="curve" smooth="yes"/>
      <point x="193" y="153"/>
      <point x="229" y="119"/>
      <point x="229" y="77" type="curve" smooth="yes"/>
      <point x="229" y="29"/>
      <point x="190" y="-1"/>
      <point x="150" y="-1" type="curve" smooth="yes"/>
      <point x="68" y="-1"/>
      <point x="33" y="91"/>
    </contour>
  </outline>
</glyph>
<glyph name="si_BRIi" format="1">
  <advance width="619"/>
  <outline>
    <contour>
      <point x="58" y="-44" type="curve"/>
      <point x="87" y="-44" type="line"/>
      <point x="122" y="-113"/>
      <point x="185" y="-149"/>
      <point x="287" y="-149" type="curve" smooth="yes"/>
      <point x="427" y="-149"/>
      <point x="538" y="-77"/>
      <point x="538" y="52" type="curve" smooth="yes"/>
      <point x="538" y="72"/>
      <point x="533" y="92"/>
      <point x="526" y="102" type="curve"/>
      <point x="542" y="133" type="line"/>
      <point x="560" y="106"/>
      <point x="568" y="75"/>
      <point x="568" y="38" type="curve" smooth="yes"/>
      <point x="568" y="-124"/>
      <point x="443" y="-219"/>
      <point x="303" y="-219" type="curve" smooth="yes"/>
      <point x="175" y="-219"/>
      <point x="94" y="-153"/>
    </contour>
    <component base="si_BIi"/>
  </outline>
</glyph>
<glyph name="si_BRa" format="1">
  <advance width="619"/>
  <outline>
    <contour>
      <point x="58" y="-44" type="curve"/>
      <point x="87" y="-44" type="line"/>
      <point x="122" y="-113"/>
      <point x="185" y="-149"/>
      <point x="287" y="-149" type="curve" smooth="yes"/>
      <point x="427" y="-149"/>
      <point x="538" y="-77"/>
      <point x="538" y="52" type="curve" smooth="yes"/>
      <point x="538" y="72"/>
      <point x="533" y="92"/>
      <point x="526" y="102" type="curve"/>
      <point x="542" y="133" type="line"/>
      <point x="560" y="106"/>
      <point x="568" y="75"/>
      <point x="568" y="38" type="curve" smooth="yes"/>
      <point x="568" y="-124"/>
      <point x="443" y="-219"/>
      <point x="303" y="-219" type="curve" smooth="yes"/>
      <point x="175" y="-219"/>
      <point x="94" y="-153"/>
    </contour>
    <contour>
      <point x="101" y="76" type="curve" smooth="yes"/>
      <point x="101" y="50"/>
      <point x="124" y="27"/>
      <point x="150" y="27" type="curve" smooth="yes"/>
      <point x="176" y="27"/>
      <point x="199" y="50"/>
      <point x="199" y="76" type="curve" smooth="yes"/>
      <point x="199" y="102"/>
      <point x="176" y="125"/>
      <point x="150" y="125" type="curve" smooth="yes"/>
      <point x="124" y="125"/>
      <point x="101" y="102"/>
    </contour>
    <contour>
      <point x="33" y="187" type="curve" smooth="yes"/>
      <point x="33" y="314"/>
      <point x="121" y="396"/>
      <point x="245" y="396" type="curve" smooth="yes"/>
      <point x="337" y="396"/>
      <point x="419" y="347"/>
      <point x="419" y="259" type="curve" smooth="yes"/>
      <point x="419" y="132"/>
      <point x="302" y="169"/>
      <point x="302" y="106" type="curve" smooth="yes"/>
      <point x="302" y="82"/>
      <point x="319" y="71"/>
      <point x="348" y="71" type="curve" smooth="yes"/>
      <point x="456" y="71"/>
      <point x="525" y="207"/>
      <point x="525" y="321" type="curve" smooth="yes"/>
      <point x="525" y="461"/>
      <point x="439" y="560"/>
      <point x="292" y="560" type="curve" smooth="yes"/>
      <point x="198" y="560"/>
      <point x="134" y="530"/>
      <point x="95" y="470" type="curve"/>
      <point x="64" y="470" type="line"/>
      <point x="99" y="542"/>
      <point x="179" y="585"/>
      <point x="292" y="585" type="curve" smooth="yes"/>
      <point x="470" y="585"/>
      <point x="575" y="465"/>
      <point x="575" y="284" type="curve" smooth="yes"/>
      <point x="575" y="141"/>
      <point x="518" y="-2"/>
      <point x="381" y="-2" type="curve" smooth="yes"/>
      <point x="317" y="-2"/>
      <point x="270" y="38"/>
      <point x="270" y="97" type="curve" smooth="yes"/>
      <point x="270" y="187"/>
      <point x="377" y="159"/>
      <point x="377" y="236" type="curve" smooth="yes"/>
      <point x="377" y="288"/>
      <point x="309" y="312"/>
      <point x="237" y="312" type="curve" smooth="yes"/>
      <point x="146" y="312"/>
      <point x="65" y="259"/>
      <point x="65" y="158" type="curve" smooth="yes"/>
      <point x="65" y="135"/>
      <point x="70" y="106"/>
      <point x="77" y="91" type="curve"/>
      <point x="81" y="126"/>
      <point x="109" y="153"/>
      <point x="150" y="153" type="curve" smooth="yes"/>
      <point x="193" y="153"/>
      <point x="229" y="119"/>
      <point x="229" y="77" type="curve" smooth="yes"/>
      <point x="229" y="29"/>
      <point x="190" y="-1"/>
      <point x="150" y="-1" type="curve" smooth="yes"/>
      <point x="68" y="-1"/>
      <point x="33" y="91"/>
    </contour>
  </outline>
</glyph>
<glyph name="si_BU" format="1">
  <advance width="619"/>
  <outline>
    <contour>
      <point x="49" y="-142" type="curve" smooth="yes"/>
      <point x="49" y="-90"/>
      <point x="96" y="-50"/>
      <point x="151" y="-50" type="curve" smooth="yes"/>
      <point x="193" y="-50"/>
      <point x="230" y="-74"/>
      <point x="245" y="-110" type="curve"/>
      <point x="214" y="-122" type="line"/>
      <point x="207" y="-102"/>
      <point x="184" y="-80"/>
      <point x="151" y="-80" type="curve" smooth="yes"/>
      <point x="114" y="-80"/>
      <point x="83" y="-108"/>
      <point x="83" y="-142" type="curve" smooth="yes"/>
      <point x="83" y="-172"/>
      <point x="106" y="-198"/>
      <point x="173" y="-198" type="curve" smooth="yes"/>
      <point x="532" y="-198" type="line"/>
      <point x="532" y="128" type="line"/>
      <point x="566" y="219" type="line"/>
      <point x="566" y="-235" type="line"/>
      <point x="155" y="-235" type="line" smooth="yes"/>
      <point x="84" y="-235"/>
      <point x="49" y="-186"/>
    </contour>
    <component base="uni0DB6"/>
  </outline>
</glyph>
<glyph name="si_BUu" format="1">
  <advance width="619"/>
  <outline>
    <contour>
      <point x="49" y="-138" type="curve" smooth="yes"/>
      <point x="49" y="-80"/>
      <point x="98" y="-40"/>
      <point x="151" y="-40" type="curve" smooth="yes"/>
      <point x="193" y="-40"/>
      <point x="226" y="-55"/>
      <point x="248" y="-91" type="curve"/>
      <point x="217" y="-102" type="line"/>
      <point x="206" y="-83"/>
      <point x="185" y="-68"/>
      <point x="156" y="-68" type="curve" smooth="yes"/>
      <point x="117" y="-68"/>
      <point x="86" y="-93"/>
      <point x="86" y="-127" type="curve" smooth="yes"/>
      <point x="86" y="-163"/>
      <point x="117" y="-187"/>
      <point x="158" y="-187" type="curve" smooth="yes"/>
      <point x="241" y="-187"/>
      <point x="314" y="-116"/>
      <point x="412" y="-116" type="curve" smooth="yes"/>
      <point x="456" y="-116"/>
      <point x="505" y="-136"/>
      <point x="532" y="-168" type="curve"/>
      <point x="532" y="152" type="line"/>
      <point x="565" y="212" type="line"/>
      <point x="565" y="-231" type="line"/>
      <point x="542" y="-231" type="line"/>
      <point x="527" y="-195"/>
      <point x="483" y="-144"/>
      <point x="416" y="-144" type="curve" smooth="yes"/>
      <point x="325" y="-144"/>
      <point x="258" y="-237"/>
      <point x="160" y="-237" type="curve" smooth="yes"/>
      <point x="105" y="-237"/>
      <point x="49" y="-206"/>
    </contour>
    <component base="si_Ba"/>
  </outline>
</glyph>
<glyph name="si_B.halant" format="1">
  <advance width="619"/>
  <outline>
    <contour>
      <point x="101" y="76" type="curve" smooth="yes"/>
      <point x="101" y="50"/>
      <point x="124" y="27"/>
      <point x="150" y="27" type="curve" smooth="yes"/>
      <point x="176" y="27"/>
      <point x="199" y="50"/>
      <point x="199" y="76" type="curve" smooth="yes"/>
      <point x="199" y="102"/>
      <point x="176" y="125"/>
      <point x="150" y="125" type="curve" smooth="yes"/>
      <point x="124" y="125"/>
      <point x="101" y="102"/>
    </contour>
    <contour>
      <point x="138" y="542" type="curve" smooth="yes"/>
      <point x="138" y="530"/>
      <point x="161" y="526"/>
      <point x="161" y="515" type="curve" smooth="yes"/>
      <point x="161" y="513"/>
      <point x="160" y="510"/>
      <point x="158" y="508" type="curve"/>
      <point x="191" y="514"/>
      <point x="231" y="519"/>
      <point x="277" y="519" type="curve" smooth="yes"/>
      <point x="385" y="519"/>
      <point x="477" y="485"/>
      <point x="525" y="422" type="curve"/>
      <point x="492" y="535"/>
      <point x="399" y="587"/>
      <point x="284" y="587" type="curve" smooth="yes"/>
      <point x="212" y="587"/>
      <point x="138" y="566"/>
    </contour>
    <contour>
      <point x="33" y="187" type="curve" smooth="yes"/>
      <point x="33" y="314"/>
      <point x="120" y="396"/>
      <point x="247" y="396" type="curve" smooth="yes"/>
      <point x="337" y="396"/>
      <point x="419" y="346"/>
      <point x="419" y="260" type="curve" smooth="yes"/>
      <point x="419" y="130"/>
      <point x="302" y="170"/>
      <point x="302" y="105" type="curve" smooth="yes"/>
      <point x="302" y="83"/>
      <point x="318" y="71"/>
      <point x="348" y="71" type="curve" smooth="yes"/>
      <point x="460" y="71"/>
      <point x="526" y="196"/>
      <point x="526" y="296" type="curve" smooth="yes"/>
      <point x="526" y="430"/>
      <point x="422" y="494"/>
      <point x="269" y="494" type="curve" smooth="yes"/>
      <point x="233" y="494"/>
      <point x="198" y="491"/>
      <point x="162" y="483" type="curve" smooth="yes"/>
      <point x="123" y="475"/>
      <point x="83" y="462"/>
      <point x="40" y="442" type="curve"/>
      <point x="40" y="473" type="line"/>
      <point x="72" y="485"/>
      <point x="124" y="499"/>
      <point x="124" y="508" type="curve" smooth="yes"/>
      <point x="124" y="520"/>
      <point x="95" y="524"/>
      <point x="95" y="546" type="curve" smooth="yes"/>
      <point x="95" y="583"/>
      <point x="161" y="629"/>
      <point x="276" y="629" type="curve" smooth="yes"/>
      <point x="484" y="629"/>
      <point x="555" y="490"/>
      <point x="567" y="356" type="curve" smooth="yes"/>
      <point x="570" y="343"/>
      <point x="575" y="300"/>
      <point x="575" y="267" type="curve" smooth="yes"/>
      <point x="574" y="138"/>
      <point x="517" y="-2"/>
      <point x="381" y="-2" type="curve" smooth="yes"/>
      <point x="320" y="-2"/>
      <point x="270" y="36"/>
      <point x="270" y="98" type="curve" smooth="yes"/>
      <point x="270" y="186"/>
      <point x="377" y="159"/>
      <point x="377" y="236" type="curve" smooth="yes"/>
      <point x="377" y="290"/>
      <point x="304" y="312"/>
      <point x="237" y="312" type="curve" smooth="yes"/>
      <point x="147" y="312"/>
      <point x="65" y="260"/>
      <point x="65" y="156" type="curve" smooth="yes"/>
      <point x="65" y="132"/>
      <point x="70" y="105"/>
      <point x="77" y="91" type="curve"/>
      <point x="81" y="126"/>
      <point x="109" y="153"/>
      <point x="150" y="153" type="curve" smooth="yes"/>
      <point x="193" y="153"/>
      <point x="229" y="119"/>
      <point x="229" y="77" type="curve" smooth="yes"/>
      <point x="229" y="29"/>
      <point x="190" y="-1"/>
      <point x="150" y="-1" type="curve" smooth="yes"/>
      <point x="68" y="-1"/>
      <point x="33" y="91"/>
    </contour>
  </outline>
</glyph>
<glyph name="si_Ba.reph" format="1">
  <advance width="619"/>
  <outline>
    <contour>
      <point x="260" y="628" type="curve" smooth="yes"/>
      <point x="260" y="641"/>
      <point x="279" y="651"/>
      <point x="301" y="651" type="curve" smooth="yes"/>
      <point x="323" y="651"/>
      <point x="342" y="641"/>
      <point x="342" y="628" type="curve" smooth="yes"/>
      <point x="342" y="615"/>
      <point x="323" y="605"/>
      <point x="301" y="605" type="curve" smooth="yes"/>
      <point x="279" y="605"/>
      <point x="260" y="615"/>
    </contour>
    <contour>
      <point x="158" y="647" type="curve" smooth="yes"/>
      <point x="158" y="613"/>
      <point x="217" y="597"/>
      <point x="280" y="597" type="curve" smooth="yes"/>
      <point x="342" y="597"/>
      <point x="382" y="610"/>
      <point x="382" y="628" type="curve" smooth="yes"/>
      <point x="382" y="652"/>
      <point x="358" y="670"/>
      <point x="321" y="667" type="curve" smooth="yes"/>
      <point x="292" y="667"/>
      <point x="260" y="646"/>
      <point x="260" y="618" type="curve" smooth="yes"/>
      <point x="262" y="603"/>
      <point x="276" y="595"/>
      <point x="282" y="596" type="curve"/>
      <point x="263" y="607"/>
      <point x="220" y="629"/>
      <point x="209" y="661" type="curve" smooth="yes"/>
      <point x="199" y="704"/>
      <point x="234" y="717"/>
      <point x="277" y="707" type="curve" smooth="yes"/>
      <point x="327" y="700"/>
      <point x="376" y="672"/>
      <point x="380" y="625" type="curve" smooth="yes"/>
      <point x="378" y="604"/>
      <point x="363" y="586"/>
      <point x="353" y="580" type="curve"/>
      <point x="353" y="587"/>
      <point x="386" y="591"/>
      <point x="393" y="591" type="curve"/>
      <point x="414" y="607"/>
      <point x="426" y="620"/>
      <point x="426" y="633" type="curve" smooth="yes"/>
      <point x="426" y="683"/>
      <point x="367" y="713"/>
      <point x="294" y="713" type="curve" smooth="yes"/>
      <point x="216" y="713"/>
      <point x="158" y="689"/>
    </contour>
    <component base="si_Ba"/>
  </outline>
</glyph>
<glyph name="si_BhI" format="1">
  <advance width="670"/>
  <outline>
    <contour>
      <point x="178" y="537" type="curve" smooth="yes"/>
      <point x="178" y="493"/>
      <point x="267" y="461"/>
      <point x="416" y="458" type="curve"/>
      <point x="436" y="458"/>
      <point x="468" y="467"/>
      <point x="468" y="449" type="curve"/>
      <point x="467" y="437"/>
      <point x="460" y="428"/>
      <point x="444" y="427" type="curve" smooth="yes"/>
      <point x="374" y="427"/>
      <point x="262" y="451"/>
      <point x="262" y="500" type="curve" smooth="yes"/>
      <point x="262" y="543"/>
      <point x="327" y="567"/>
      <point x="394" y="567" type="curve" smooth="yes"/>
      <point x="469" y="567"/>
      <point x="556" y="556"/>
      <point x="556" y="509" type="curve" smooth="yes"/>
      <point x="556" y="479"/>
      <point x="506" y="456"/>
      <point x="444" y="456" type="curve" smooth="yes"/>
      <point x="427" y="456"/>
      <point x="414" y="451"/>
      <point x="412" y="444" type="curve"/>
      <point x="412" y="435"/>
      <point x="446" y="413"/>
      <point x="462" y="413" type="curve"/>
      <point x="528" y="418"/>
      <point x="560" y="455"/>
      <point x="560" y="506" type="curve" smooth="yes"/>
      <point x="560" y="583"/>
      <point x="474" y="619"/>
      <point x="388" y="619" type="curve" smooth="yes"/>
      <point x="275" y="619"/>
      <point x="178" y="597"/>
    </contour>
    <component base="si_Bha"/>
  </outline>
</glyph>
<glyph name="si_BhIi" format="1">
  <advance width="670"/>
  <outline>
    <contour>
      <point x="420" y="520" type="curve" smooth="yes"/>
      <point x="420" y="554"/>
      <point x="450" y="582"/>
      <point x="488" y="582" type="curve" smooth="yes"/>
      <point x="527" y="582"/>
      <point x="557" y="554"/>
      <point x="557" y="520" type="curve" smooth="yes"/>
      <point x="557" y="486"/>
      <point x="527" y="458"/>
      <point x="488" y="458" type="curve" smooth="yes"/>
      <point x="450" y="458"/>
      <point x="420" y="486"/>
    </contour>
    <contour>
      <point x="178" y="537" type="curve" smooth="yes"/>
      <point x="178" y="462"/>
      <point x="265" y="411"/>
      <point x="425" y="408" type="curve"/>
      <point x="441" y="432" type="line"/>
      <point x="440" y="431"/>
      <point x="440" y="431"/>
      <point x="439" y="431" type="curve" smooth="yes"/>
      <point x="353" y="432"/>
      <point x="225" y="456"/>
      <point x="225" y="514" type="curve" smooth="yes"/>
      <point x="225" y="562"/>
      <point x="299" y="592"/>
      <point x="380" y="592" type="curve" smooth="yes"/>
      <point x="401" y="592"/>
      <point x="413" y="591"/>
      <point x="432" y="589" type="curve"/>
      <point x="418" y="584"/>
      <point x="389" y="560"/>
      <point x="389" y="519" type="curve" smooth="yes"/>
      <point x="389" y="464"/>
      <point x="442" y="431"/>
      <point x="486" y="431" type="curve" smooth="yes"/>
      <point x="529" y="431"/>
      <point x="587" y="456"/>
      <point x="587" y="525" type="curve" smooth="yes"/>
      <point x="587" y="618"/>
      <point x="485" y="667"/>
      <point x="379" y="667" type="curve" smooth="yes"/>
      <point x="277" y="667"/>
      <point x="178" y="628"/>
    </contour>
  </outline>
</glyph>
<glyph name="si_BhRIi" format="1">
  <advance width="670"/>
  <outline>
    <contour>
      <point x="419" y="520" type="curve" smooth="yes"/>
      <point x="419" y="485"/>
      <point x="449" y="458"/>
      <point x="488" y="458" type="curve" smooth="yes"/>
      <point x="527" y="458"/>
      <point x="558" y="485"/>
      <point x="558" y="520" type="curve" smooth="yes"/>
      <point x="558" y="555"/>
      <point x="527" y="582"/>
      <point x="488" y="582" type="curve" smooth="yes"/>
      <point x="449" y="582"/>
      <point x="419" y="555"/>
    </contour>
    <contour>
      <point x="178" y="537" type="curve" smooth="yes"/>
      <point x="178" y="628"/>
      <point x="277" y="667"/>
      <point x="379" y="667" type="curve" smooth="yes"/>
      <point x="485" y="667"/>
      <point x="587" y="618"/>
      <point x="587" y="525" type="curve" smooth="yes"/>
      <point x="587" y="456"/>
      <point x="529" y="431"/>
      <point x="486" y="431" type="curve" smooth="yes"/>
      <point x="442" y="431"/>
      <point x="389" y="464"/>
      <point x="389" y="519" type="curve" smooth="yes"/>
      <point x="389" y="560"/>
      <point x="418" y="584"/>
      <point x="432" y="589" type="curve"/>
      <point x="413" y="591"/>
      <point x="401" y="592"/>
      <point x="380" y="592" type="curve" smooth="yes"/>
      <point x="299" y="592"/>
      <point x="225" y="562"/>
      <point x="225" y="514" type="curve" smooth="yes"/>
      <point x="225" y="456"/>
      <point x="353" y="432"/>
      <point x="439" y="431" type="curve" smooth="yes"/>
      <point x="440" y="431"/>
      <point x="440" y="431"/>
      <point x="441" y="432" type="curve"/>
      <point x="425" y="408" type="line"/>
      <point x="265" y="411"/>
      <point x="178" y="462"/>
    </contour>
    <contour>
      <point x="76" y="-44" type="curve"/>
      <point x="103" y="-44" type="line"/>
      <point x="138" y="-114"/>
      <point x="205" y="-149"/>
      <point x="312" y="-149" type="curve" smooth="yes"/>
      <point x="457" y="-149"/>
      <point x="574" y="-79"/>
      <point x="574" y="52" type="curve" smooth="yes"/>
      <point x="574" y="72"/>
      <point x="569" y="93"/>
      <point x="562" y="102" type="curve"/>
      <point x="575" y="133" type="line"/>
      <point x="593" y="106"/>
      <point x="602" y="75"/>
      <point x="602" y="38" type="curve" smooth="yes"/>
      <point x="602" y="-124"/>
      <point x="475" y="-219"/>
      <point x="329" y="-219" type="curve" smooth="yes"/>
      <point x="195" y="-219"/>
      <point x="113" y="-153"/>
    </contour>
    <component base="si_Bha"/>
  </outline>
</glyph>
<glyph name="si_BhRa" format="1">
  <advance width="670"/>
  <outline>
    <contour>
      <point x="76" y="-44" type="curve"/>
      <point x="103" y="-44" type="line"/>
      <point x="138" y="-114"/>
      <point x="205" y="-149"/>
      <point x="312" y="-149" type="curve" smooth="yes"/>
      <point x="457" y="-149"/>
      <point x="574" y="-79"/>
      <point x="574" y="52" type="curve" smooth="yes"/>
      <point x="574" y="72"/>
      <point x="569" y="93"/>
      <point x="562" y="102" type="curve"/>
      <point x="575" y="133" type="line"/>
      <point x="593" y="106"/>
      <point x="602" y="75"/>
      <point x="602" y="38" type="curve" smooth="yes"/>
      <point x="602" y="-124"/>
      <point x="475" y="-219"/>
      <point x="329" y="-219" type="curve" smooth="yes"/>
      <point x="195" y="-219"/>
      <point x="113" y="-153"/>
    </contour>
    <component base="si_Bha"/>
  </outline>
</glyph>
<glyph name="si_BhU" format="1">
  <advance width="670"/>
  <outline>
    <contour>
      <point x="6" y="271" type="curve"/>
      <point x="6" y="303" type="line"/>
      <point x="212" y="303" type="line"/>
      <point x="171" y="278" type="line"/>
      <point x="140" y="278" type="line" smooth="yes"/>
      <point x="69" y="277"/>
      <point x="22" y="274"/>
    </contour>
    <contour>
      <point x="49" y="364" type="curve" smooth="yes"/>
      <point x="49" y="394"/>
      <point x="78" y="432"/>
      <point x="134" y="432" type="curve" smooth="yes"/>
      <point x="213" y="432"/>
      <point x="254" y="360"/>
      <point x="255" y="278" type="curve"/>
      <point x="243" y="279"/>
      <point x="233" y="280"/>
      <point x="228" y="280" type="curve" smooth="yes"/>
      <point x="160" y="280"/>
      <point x="90" y="245"/>
      <point x="90" y="181" type="curve" smooth="yes"/>
      <point x="90" y="115"/>
      <point x="154" y="84"/>
      <point x="225" y="84" type="curve" smooth="yes"/>
      <point x="286" y="84"/>
      <point x="344" y="110"/>
      <point x="344" y="169" type="curve" smooth="yes"/>
      <point x="344" y="197"/>
      <point x="330" y="213"/>
      <point x="311" y="213" type="curve" smooth="yes"/>
      <point x="298" y="213"/>
      <point x="285" y="204"/>
      <point x="278" y="183" type="curve"/>
      <point x="255" y="193" type="line"/>
      <point x="264" y="318"/>
      <point x="345" y="432"/>
      <point x="446" y="432" type="curve" smooth="yes"/>
      <point x="558" y="432"/>
      <point x="621" y="329"/>
      <point x="621" y="211" type="curve" smooth="yes"/>
      <point x="621" y="96"/>
      <point x="541" y="0"/>
      <point x="459" y="0" type="curve" smooth="yes"/>
      <point x="447" y="0"/>
      <point x="427" y="-2"/>
      <point x="414" y="-8" type="curve"/>
      <point x="404" y="19" type="line"/>
      <point x="422" y="26"/>
      <point x="439" y="28"/>
      <point x="448" y="28" type="curve" smooth="yes"/>
      <point x="510" y="30"/>
      <point x="562" y="101"/>
      <point x="562" y="188" type="curve" smooth="yes"/>
      <point x="562" y="277"/>
      <point x="513" y="353"/>
      <point x="423" y="353" type="curve" smooth="yes"/>
      <point x="349" y="353"/>
      <point x="307" y="308"/>
      <point x="287" y="230" type="curve"/>
      <point x="297" y="236"/>
      <point x="307" y="238"/>
      <point x="316" y="238" type="curve" smooth="yes"/>
      <point x="355" y="238"/>
      <point x="382" y="199"/>
      <point x="382" y="145" type="curve" smooth="yes"/>
      <point x="382" y="53"/>
      <point x="312" y="-1"/>
      <point x="217" y="-1" type="curve" smooth="yes"/>
      <point x="119" y="-1"/>
      <point x="49" y="61"/>
      <point x="49" y="155" type="curve" smooth="yes"/>
      <point x="49" y="252"/>
      <point x="146" y="303"/>
      <point x="217" y="303" type="curve" smooth="yes"/>
      <point x="221" y="303"/>
      <point x="218" y="303"/>
      <point x="222" y="303" type="curve"/>
      <point x="222" y="344"/>
      <point x="198" y="382"/>
      <point x="161" y="382" type="curve" smooth="yes"/>
      <point x="142" y="382"/>
      <point x="130" y="372"/>
      <point x="123" y="355" type="curve" smooth="yes"/>
      <point x="117" y="339"/>
      <point x="104" y="326"/>
      <point x="83" y="326" type="curve" smooth="yes"/>
      <point x="63" y="326"/>
      <point x="49" y="340"/>
    </contour>
    <contour>
      <point x="341" y="-79" type="curve" smooth="yes"/>
      <point x="341" y="-29"/>
      <point x="370" y="9"/>
      <point x="412" y="22" type="curve"/>
      <point x="419" y="-6" type="line"/>
      <point x="398" y="-13"/>
      <point x="380" y="-33"/>
      <point x="380" y="-60" type="curve" smooth="yes"/>
      <point x="380" y="-105"/>
      <point x="429" y="-127"/>
      <point x="480" y="-127" type="curve" smooth="yes"/>
      <point x="541" y="-127"/>
      <point x="588" y="-92"/>
      <point x="588" y="-45" type="curve" smooth="yes"/>
      <point x="588" y="-42"/>
      <point x="588" y="-39"/>
      <point x="588" y="-36" type="curve"/>
      <point x="618" y="-36" type="line"/>
      <point x="620" y="-45"/>
      <point x="620" y="-60"/>
      <point x="620" y="-70" type="curve" smooth="yes"/>
      <point x="620" y="-122"/>
      <point x="576" y="-192"/>
      <point x="476" y="-192" type="curve" smooth="yes"/>
      <point x="409" y="-192"/>
      <point x="341" y="-151"/>
    </contour>
  </outline>
</glyph>
<glyph name="si_BhUu" format="1">
  <advance width="670"/>
  <outline>
    <contour>
      <point x="373" y="-129" type="curve" smooth="yes"/>
      <point x="373" y="-93"/>
      <point x="404" y="-72"/>
      <point x="437" y="-67" type="curve"/>
      <point x="382" y="-39" type="line"/>
      <point x="469" y="-14" type="line"/>
      <point x="375" y="1" type="line"/>
      <point x="425" y="13" type="line"/>
      <point x="546" y="-7" type="line"/>
      <point x="440" y="-44" type="line"/>
      <point x="499" y="-76" type="line"/>
      <point x="471" y="-83"/>
      <point x="415" y="-85"/>
      <point x="415" y="-113" type="curve" smooth="yes"/>
      <point x="415" y="-141"/>
      <point x="455" y="-150"/>
      <point x="497" y="-150" type="curve" smooth="yes"/>
      <point x="551" y="-150"/>
      <point x="597" y="-128"/>
      <point x="597" y="-82" type="curve" smooth="yes"/>
      <point x="597" y="-77"/>
      <point x="596" y="-69"/>
      <point x="591" y="-59" type="curve"/>
      <point x="624" y="-59" type="line"/>
      <point x="628" y="-71"/>
      <point x="628" y="-83"/>
      <point x="628" y="-94" type="curve" smooth="yes"/>
      <point x="628" y="-161"/>
      <point x="577" y="-205"/>
      <point x="495" y="-205" type="curve" smooth="yes"/>
      <point x="437" y="-205"/>
      <point x="373" y="-187"/>
    </contour>
    <component base="uni0DB7"/>
  </outline>
</glyph>
<glyph name="si_Bh.halant" format="1">
  <advance width="670"/>
  <outline>
    <contour>
      <point x="468" y="389" type="line"/>
      <point x="468" y="681" type="line"/>
      <point x="522" y="639"/>
      <point x="618" y="634"/>
      <point x="618" y="542" type="curve" smooth="yes"/>
      <point x="618" y="498"/>
      <point x="583" y="468"/>
      <point x="540" y="468" type="curve" smooth="yes"/>
      <point x="525" y="468"/>
      <point x="510" y="471"/>
      <point x="495" y="478" type="curve"/>
      <point x="495" y="373" type="line"/>
    </contour>
    <contour>
      <point x="495" y="503" type="line"/>
      <point x="504" y="498"/>
      <point x="515" y="496"/>
      <point x="528" y="496" type="curve" smooth="yes"/>
      <point x="565" y="496"/>
      <point x="580" y="521"/>
      <point x="580" y="545" type="curve" smooth="yes"/>
      <point x="580" y="587"/>
      <point x="542" y="607"/>
      <point x="495" y="638" type="curve"/>
    </contour>
    <component base="uni0DB7"/>
  </outline>
</glyph>
<glyph name="si_Bha.reph" format="1">
  <advance width="670"/>
  <outline>
    <contour>
      <point x="296" y="511" type="curve" smooth="yes"/>
      <point x="296" y="490"/>
      <point x="315" y="474"/>
      <point x="337" y="474" type="curve" smooth="yes"/>
      <point x="359" y="474"/>
      <point x="378" y="490"/>
      <point x="378" y="511" type="curve" smooth="yes"/>
      <point x="378" y="532"/>
      <point x="359" y="548"/>
      <point x="337" y="548" type="curve" smooth="yes"/>
      <point x="315" y="548"/>
      <point x="296" y="532"/>
    </contour>
    <contour>
      <point x="194" y="530" type="curve" smooth="yes"/>
      <point x="194" y="594"/>
      <point x="252" y="631"/>
      <point x="334" y="631" type="curve" smooth="yes"/>
      <point x="411" y="631"/>
      <point x="475" y="588"/>
      <point x="475" y="517" type="curve" smooth="yes"/>
      <point x="475" y="493"/>
      <point x="467" y="471"/>
      <point x="450" y="452" type="curve"/>
      <point x="416" y="452" type="line"/>
      <point x="429" y="464"/>
      <point x="445" y="489"/>
      <point x="445" y="516" type="curve" smooth="yes"/>
      <point x="445" y="573"/>
      <point x="394" y="604"/>
      <point x="333" y="604" type="curve" smooth="yes"/>
      <point x="280" y="604"/>
      <point x="225" y="582"/>
      <point x="225" y="530" type="curve" smooth="yes"/>
      <point x="225" y="491"/>
      <point x="267" y="472"/>
      <point x="290" y="470" type="curve"/>
      <point x="282" y="476"/>
      <point x="269" y="491"/>
      <point x="269" y="512" type="curve" smooth="yes"/>
      <point x="269" y="547"/>
      <point x="300" y="572"/>
      <point x="336" y="572" type="curve" smooth="yes"/>
      <point x="377" y="572"/>
      <point x="405" y="545"/>
      <point x="405" y="510" type="curve" smooth="yes"/>
      <point x="405" y="471"/>
      <point x="370" y="445"/>
      <point x="312" y="445" type="curve" smooth="yes"/>
      <point x="253" y="445"/>
      <point x="194" y="474"/>
    </contour>
    <component base="si_Bha"/>
  </outline>
</glyph>
<glyph name="si_CI" format="1">
  <advance width="621"/>
  <outline>
    <contour>
      <point x="70" y="562" type="curve" smooth="yes"/>
      <point x="70" y="476"/>
      <point x="190" y="483"/>
      <point x="279" y="478" type="curve" smooth="yes"/>
      <point x="380" y="472"/>
      <point x="446" y="471"/>
      <point x="497" y="414" type="curve" smooth="yes"/>
      <point x="525" y="384"/>
      <point x="534" y="338"/>
      <point x="534" y="302" type="curve"/>
      <point x="577" y="274" type="line"/>
      <point x="577" y="356"/>
      <point x="541" y="423"/>
      <point x="492" y="459" type="curve" smooth="yes"/>
      <point x="437" y="499"/>
      <point x="343" y="501"/>
      <point x="278" y="504" type="curve" smooth="yes"/>
      <point x="176" y="508"/>
      <point x="115" y="509"/>
      <point x="115" y="551" type="curve" smooth="yes"/>
      <point x="115" y="600"/>
      <point x="224" y="605"/>
      <point x="300" y="605" type="curve" smooth="yes"/>
      <point x="408" y="605"/>
      <point x="494" y="593"/>
      <point x="494" y="541" type="curve" smooth="yes"/>
      <point x="494" y="506"/>
      <point x="444" y="491"/>
      <point x="408" y="490" type="curve"/>
      <point x="458" y="474" type="line"/>
      <point x="492" y="480"/>
      <point x="546" y="502"/>
      <point x="546" y="554" type="curve" smooth="yes"/>
      <point x="546" y="639"/>
      <point x="436" y="670"/>
      <point x="300" y="670" type="curve" smooth="yes"/>
      <point x="200" y="670"/>
      <point x="70" y="652"/>
    </contour>
    <contour>
      <point x="64" y="165" type="curve" smooth="yes"/>
      <point x="64" y="196"/>
      <point x="74" y="228"/>
      <point x="97" y="248" type="curve" smooth="yes"/>
      <point x="113" y="262"/>
      <point x="132" y="273"/>
      <point x="158" y="278" type="curve"/>
      <point x="192" y="290"/>
      <point x="233" y="302"/>
      <point x="270" y="302" type="curve" smooth="yes"/>
      <point x="286" y="302" type="line"/>
      <point x="286" y="304"/>
      <point x="286" y="306"/>
      <point x="286" y="308" type="curve" smooth="yes"/>
      <point x="286" y="361"/>
      <point x="254" y="394"/>
      <point x="216" y="394" type="curve" smooth="yes"/>
      <point x="172" y="394"/>
      <point x="164" y="371"/>
      <point x="160" y="355" type="curve" smooth="yes"/>
      <point x="154" y="336"/>
      <point x="143" y="322"/>
      <point x="120" y="322" type="curve" smooth="yes"/>
      <point x="103" y="322"/>
      <point x="83" y="334"/>
      <point x="83" y="360" type="curve" smooth="yes"/>
      <point x="83" y="404"/>
      <point x="133" y="432"/>
      <point x="188" y="432" type="curve" smooth="yes"/>
      <point x="276" y="432"/>
      <point x="319" y="376"/>
      <point x="319" y="290" type="curve" smooth="yes"/>
      <point x="319" y="287"/>
      <point x="319" y="279"/>
      <point x="319" y="276" type="curve"/>
      <point x="254" y="276" type="line" smooth="yes"/>
      <point x="208" y="276"/>
      <point x="169" y="265"/>
      <point x="145" y="250" type="curve" smooth="yes"/>
      <point x="118" y="233"/>
      <point x="106" y="209"/>
      <point x="106" y="185" type="curve" smooth="yes"/>
      <point x="106" y="106"/>
      <point x="208" y="84"/>
      <point x="298" y="84" type="curve" smooth="yes"/>
      <point x="451" y="84"/>
      <point x="534" y="168"/>
      <point x="534" y="309" type="curve"/>
      <point x="537" y="305"/>
      <point x="572" y="280"/>
      <point x="577" y="275" type="curve"/>
      <point x="577" y="114"/>
      <point x="478" y="0"/>
      <point x="295" y="0" type="curve" smooth="yes"/>
      <point x="174" y="0"/>
      <point x="64" y="46"/>
    </contour>
    <contour>
      <point x="14" y="269" type="curve"/>
      <point x="14" y="302" type="line"/>
      <point x="284" y="302" type="line"/>
      <point x="315" y="276" type="line"/>
      <point x="148" y="276" type="line" smooth="yes"/>
      <point x="77" y="275"/>
      <point x="30" y="272"/>
    </contour>
  </outline>
</glyph>
<glyph name="si_CIi" format="1">
  <advance width="621"/>
  <outline>
    <contour>
      <point x="394" y="552" type="curve" smooth="yes"/>
      <point x="394" y="582"/>
      <point x="421" y="606"/>
      <point x="454" y="606" type="curve" smooth="yes"/>
      <point x="487" y="606"/>
      <point x="514" y="582"/>
      <point x="514" y="552" type="curve" smooth="yes"/>
      <point x="514" y="522"/>
      <point x="487" y="498"/>
      <point x="454" y="498" type="curve" smooth="yes"/>
      <point x="421" y="498"/>
      <point x="394" y="522"/>
    </contour>
    <contour>
      <point x="70" y="562" type="curve" smooth="yes"/>
      <point x="70" y="476"/>
      <point x="190" y="483"/>
      <point x="279" y="478" type="curve" smooth="yes"/>
      <point x="380" y="472"/>
      <point x="446" y="472"/>
      <point x="497" y="415" type="curve" smooth="yes"/>
      <point x="525" y="384"/>
      <point x="534" y="336"/>
      <point x="534" y="293" type="curve"/>
      <point x="577" y="274" type="line"/>
      <point x="577" y="358"/>
      <point x="541" y="423"/>
      <point x="492" y="459" type="curve" smooth="yes"/>
      <point x="437" y="499"/>
      <point x="343" y="501"/>
      <point x="278" y="504" type="curve" smooth="yes"/>
      <point x="176" y="508"/>
      <point x="114" y="509"/>
      <point x="114" y="551" type="curve" smooth="yes"/>
      <point x="114" y="601"/>
      <point x="224" y="607"/>
      <point x="300" y="607" type="curve" smooth="yes"/>
      <point x="341" y="607"/>
      <point x="373" y="605"/>
      <point x="380" y="604" type="curve"/>
      <point x="374" y="596"/>
      <point x="362" y="580"/>
      <point x="362" y="555" type="curve" smooth="yes"/>
      <point x="362" y="502"/>
      <point x="410" y="471"/>
      <point x="454" y="471" type="curve" smooth="yes"/>
      <point x="498" y="471"/>
      <point x="546" y="502"/>
      <point x="546" y="555" type="curve" smooth="yes"/>
      <point x="546" y="639"/>
      <point x="436" y="670"/>
      <point x="300" y="670" type="curve" smooth="yes"/>
      <point x="200" y="670"/>
      <point x="70" y="652"/>
    </contour>
    <contour>
      <point x="64" y="165" type="curve" smooth="yes"/>
      <point x="64" y="196"/>
      <point x="74" y="228"/>
      <point x="97" y="248" type="curve" smooth="yes"/>
      <point x="113" y="262"/>
      <point x="132" y="273"/>
      <point x="158" y="278" type="curve"/>
      <point x="192" y="290"/>
      <point x="233" y="302"/>
      <point x="270" y="302" type="curve" smooth="yes"/>
      <point x="286" y="302" type="line"/>
      <point x="286" y="304"/>
      <point x="286" y="306"/>
      <point x="286" y="308" type="curve" smooth="yes"/>
      <point x="286" y="361"/>
      <point x="254" y="394"/>
      <point x="216" y="394" type="curve" smooth="yes"/>
      <point x="172" y="394"/>
      <point x="164" y="371"/>
      <point x="160" y="355" type="curve" smooth="yes"/>
      <point x="154" y="336"/>
      <point x="143" y="322"/>
      <point x="120" y="322" type="curve" smooth="yes"/>
      <point x="103" y="322"/>
      <point x="83" y="334"/>
      <point x="83" y="360" type="curve" smooth="yes"/>
      <point x="83" y="404"/>
      <point x="133" y="432"/>
      <point x="188" y="432" type="curve" smooth="yes"/>
      <point x="276" y="432"/>
      <point x="319" y="376"/>
      <point x="319" y="290" type="curve" smooth="yes"/>
      <point x="319" y="287"/>
      <point x="319" y="279"/>
      <point x="319" y="276" type="curve"/>
      <point x="254" y="276" type="line" smooth="yes"/>
      <point x="208" y="276"/>
      <point x="169" y="265"/>
      <point x="145" y="250" type="curve" smooth="yes"/>
      <point x="118" y="233"/>
      <point x="106" y="209"/>
      <point x="106" y="185" type="curve" smooth="yes"/>
      <point x="106" y="106"/>
      <point x="208" y="84"/>
      <point x="298" y="84" type="curve" smooth="yes"/>
      <point x="451" y="84"/>
      <point x="534" y="168"/>
      <point x="534" y="309" type="curve"/>
      <point x="537" y="305"/>
      <point x="572" y="280"/>
      <point x="577" y="275" type="curve"/>
      <point x="577" y="114"/>
      <point x="478" y="0"/>
      <point x="295" y="0" type="curve" smooth="yes"/>
      <point x="174" y="0"/>
      <point x="64" y="46"/>
    </contour>
    <contour>
      <point x="14" y="269" type="curve"/>
      <point x="14" y="302" type="line"/>
      <point x="284" y="302" type="line"/>
      <point x="315" y="276" type="line"/>
      <point x="148" y="276" type="line" smooth="yes"/>
      <point x="77" y="275"/>
      <point x="30" y="272"/>
    </contour>
  </outline>
</glyph>
<glyph name="si_CRI" format="1">
  <advance width="617"/>
  <outline>
    <contour>
      <point x="54" y="-44" type="curve"/>
      <point x="83" y="-44" type="line"/>
      <point x="118" y="-113"/>
      <point x="182" y="-149"/>
      <point x="288" y="-149" type="curve" smooth="yes"/>
      <point x="430" y="-149"/>
      <point x="542" y="-79"/>
      <point x="542" y="52" type="curve" smooth="yes"/>
      <point x="542" y="72"/>
      <point x="536" y="99"/>
      <point x="524" y="112" type="curve"/>
      <point x="540" y="140" type="line"/>
      <point x="563" y="108"/>
      <point x="571" y="75"/>
      <point x="571" y="38" type="curve" smooth="yes"/>
      <point x="571" y="-124"/>
      <point x="448" y="-219"/>
      <point x="304" y="-219" type="curve" smooth="yes"/>
      <point x="171" y="-219"/>
      <point x="92" y="-153"/>
    </contour>
    <component base="si_CI"/>
  </outline>
</glyph>
<glyph name="si_CU" format="1">
  <advance width="597"/>
  <outline>
    <contour>
      <point x="70" y="-142" type="curve" smooth="yes"/>
      <point x="70" y="-90"/>
      <point x="117" y="-50"/>
      <point x="172" y="-50" type="curve" smooth="yes"/>
      <point x="214" y="-50"/>
      <point x="251" y="-74"/>
      <point x="266" y="-110" type="curve"/>
      <point x="235" y="-122" type="line"/>
      <point x="228" y="-102"/>
      <point x="205" y="-80"/>
      <point x="172" y="-80" type="curve" smooth="yes"/>
      <point x="135" y="-80"/>
      <point x="104" y="-108"/>
      <point x="104" y="-142" type="curve" smooth="yes"/>
      <point x="104" y="-172"/>
      <point x="127" y="-198"/>
      <point x="194" y="-198" type="curve" smooth="yes"/>
      <point x="532" y="-198" type="line"/>
      <point x="532" y="128" type="line"/>
      <point x="566" y="219" type="line"/>
      <point x="566" y="-235" type="line"/>
      <point x="176" y="-235" type="line" smooth="yes"/>
      <point x="105" y="-235"/>
      <point x="70" y="-186"/>
    </contour>
    <component base="uni0DA0"/>
  </outline>
</glyph>
<glyph name="si_CUu" format="1">
  <advance width="597"/>
  <outline>
    <contour>
      <point x="70" y="-138" type="curve" smooth="yes"/>
      <point x="70" y="-80"/>
      <point x="120" y="-40"/>
      <point x="172" y="-40" type="curve" smooth="yes"/>
      <point x="214" y="-40"/>
      <point x="247" y="-55"/>
      <point x="270" y="-91" type="curve"/>
      <point x="239" y="-102" type="line"/>
      <point x="227" y="-83"/>
      <point x="206" y="-68"/>
      <point x="178" y="-68" type="curve" smooth="yes"/>
      <point x="138" y="-68"/>
      <point x="107" y="-93"/>
      <point x="107" y="-127" type="curve" smooth="yes"/>
      <point x="107" y="-163"/>
      <point x="139" y="-187"/>
      <point x="179" y="-187" type="curve" smooth="yes"/>
      <point x="262" y="-187"/>
      <point x="326" y="-116"/>
      <point x="421" y="-116" type="curve" smooth="yes"/>
      <point x="470" y="-116"/>
      <point x="506" y="-136"/>
      <point x="533" y="-168" type="curve"/>
      <point x="533" y="152" type="line"/>
      <point x="566" y="212" type="line"/>
      <point x="566" y="-231" type="line"/>
      <point x="542" y="-231" type="line"/>
      <point x="528" y="-195"/>
      <point x="490" y="-144"/>
      <point x="425" y="-144" type="curve" smooth="yes"/>
      <point x="335" y="-144"/>
      <point x="280" y="-237"/>
      <point x="182" y="-237" type="curve" smooth="yes"/>
      <point x="126" y="-237"/>
      <point x="70" y="-206"/>
    </contour>
    <component base="uni0DA0"/>
  </outline>
</glyph>
<glyph name="si_C.halant" format="1">
  <advance width="621"/>
  <outline>
    <contour>
      <point x="140" y="542" type="curve" smooth="yes"/>
      <point x="140" y="565"/>
      <point x="212" y="587"/>
      <point x="284" y="587" type="curve" smooth="yes"/>
      <point x="400" y="587"/>
      <point x="494" y="537"/>
      <point x="526" y="423" type="curve"/>
      <point x="477" y="486"/>
      <point x="387" y="519"/>
      <point x="279" y="519" type="curve" smooth="yes"/>
      <point x="233" y="519"/>
      <point x="193" y="514"/>
      <point x="160" y="508" type="curve"/>
      <point x="162" y="510"/>
      <point x="163" y="513"/>
      <point x="163" y="515" type="curve" smooth="yes"/>
      <point x="163" y="526"/>
      <point x="140" y="530"/>
    </contour>
    <contour>
      <point x="42" y="442" type="line"/>
      <point x="123" y="480"/>
      <point x="196" y="494"/>
      <point x="272" y="494" type="curve" smooth="yes"/>
      <point x="446" y="494"/>
      <point x="535" y="412"/>
      <point x="535" y="303" type="curve" smooth="yes"/>
      <point x="535" y="299"/>
      <point x="535" y="294"/>
      <point x="535" y="286" type="curve"/>
      <point x="577" y="268" type="line"/>
      <point x="577" y="299"/>
      <point x="573" y="340"/>
      <point x="569" y="356" type="curve"/>
      <point x="557" y="490"/>
      <point x="486" y="629"/>
      <point x="278" y="629" type="curve" smooth="yes"/>
      <point x="163" y="629"/>
      <point x="98" y="583"/>
      <point x="98" y="546" type="curve" smooth="yes"/>
      <point x="98" y="523"/>
      <point x="126" y="520"/>
      <point x="126" y="508" type="curve" smooth="yes"/>
      <point x="126" y="499"/>
      <point x="74" y="485"/>
      <point x="42" y="473" type="curve"/>
    </contour>
    <contour>
      <point x="64" y="165" type="curve" smooth="yes"/>
      <point x="64" y="196"/>
      <point x="74" y="228"/>
      <point x="97" y="248" type="curve" smooth="yes"/>
      <point x="113" y="262"/>
      <point x="132" y="273"/>
      <point x="158" y="278" type="curve"/>
      <point x="192" y="290"/>
      <point x="233" y="302"/>
      <point x="270" y="302" type="curve" smooth="yes"/>
      <point x="286" y="302" type="line"/>
      <point x="286" y="304"/>
      <point x="286" y="306"/>
      <point x="286" y="308" type="curve" smooth="yes"/>
      <point x="286" y="361"/>
      <point x="254" y="394"/>
      <point x="216" y="394" type="curve" smooth="yes"/>
      <point x="172" y="394"/>
      <point x="164" y="371"/>
      <point x="160" y="355" type="curve" smooth="yes"/>
      <point x="154" y="336"/>
      <point x="143" y="322"/>
      <point x="120" y="322" type="curve" smooth="yes"/>
      <point x="103" y="322"/>
      <point x="83" y="334"/>
      <point x="83" y="360" type="curve" smooth="yes"/>
      <point x="83" y="404"/>
      <point x="133" y="432"/>
      <point x="188" y="432" type="curve" smooth="yes"/>
      <point x="276" y="432"/>
      <point x="319" y="376"/>
      <point x="319" y="290" type="curve" smooth="yes"/>
      <point x="319" y="287"/>
      <point x="319" y="279"/>
      <point x="319" y="276" type="curve"/>
      <point x="254" y="276" type="line" smooth="yes"/>
      <point x="208" y="276"/>
      <point x="169" y="265"/>
      <point x="145" y="250" type="curve" smooth="yes"/>
      <point x="118" y="233"/>
      <point x="106" y="209"/>
      <point x="106" y="185" type="curve" smooth="yes"/>
      <point x="106" y="106"/>
      <point x="208" y="84"/>
      <point x="298" y="84" type="curve" smooth="yes"/>
      <point x="451" y="84"/>
      <point x="535" y="167"/>
      <point x="535" y="307" type="curve"/>
      <point x="538" y="303"/>
      <point x="572" y="280"/>
      <point x="577" y="275" type="curve"/>
      <point x="577" y="114"/>
      <point x="478" y="0"/>
      <point x="295" y="0" type="curve" smooth="yes"/>
      <point x="174" y="0"/>
      <point x="64" y="46"/>
    </contour>
    <contour>
      <point x="14" y="269" type="curve"/>
      <point x="14" y="302" type="line"/>
      <point x="284" y="302" type="line"/>
      <point x="315" y="276" type="line"/>
      <point x="148" y="276" type="line" smooth="yes"/>
      <point x="77" y="275"/>
      <point x="30" y="272"/>
    </contour>
  </outline>
</glyph>
<glyph name="si_Ca.reph" format="1">
  <advance width="597"/>
  <outline>
    <contour>
      <point x="274" y="535" type="curve" smooth="yes"/>
      <point x="274" y="522"/>
      <point x="292" y="511"/>
      <point x="314" y="511" type="curve" smooth="yes"/>
      <point x="337" y="511"/>
      <point x="355" y="522"/>
      <point x="355" y="535" type="curve" smooth="yes"/>
      <point x="355" y="548"/>
      <point x="337" y="559"/>
      <point x="314" y="559" type="curve" smooth="yes"/>
      <point x="292" y="559"/>
      <point x="274" y="548"/>
    </contour>
    <contour>
      <point x="172" y="553" type="curve" smooth="yes"/>
      <point x="172" y="595"/>
      <point x="230" y="621"/>
      <point x="308" y="621" type="curve" smooth="yes"/>
      <point x="381" y="621"/>
      <point x="439" y="590"/>
      <point x="439" y="540" type="curve" smooth="yes"/>
      <point x="439" y="527"/>
      <point x="427" y="514"/>
      <point x="407" y="498" type="curve"/>
      <point x="400" y="498"/>
      <point x="366" y="493"/>
      <point x="366" y="487" type="curve"/>
      <point x="377" y="493"/>
      <point x="391" y="510"/>
      <point x="393" y="531" type="curve" smooth="yes"/>
      <point x="389" y="579"/>
      <point x="341" y="606"/>
      <point x="290" y="614" type="curve" smooth="yes"/>
      <point x="248" y="623"/>
      <point x="213" y="610"/>
      <point x="223" y="567" type="curve" smooth="yes"/>
      <point x="234" y="535"/>
      <point x="277" y="515"/>
      <point x="295" y="503" type="curve"/>
      <point x="289" y="503"/>
      <point x="276" y="510"/>
      <point x="273" y="524" type="curve" smooth="yes"/>
      <point x="273" y="553"/>
      <point x="306" y="573"/>
      <point x="335" y="573" type="curve" smooth="yes"/>
      <point x="371" y="577"/>
      <point x="395" y="559"/>
      <point x="395" y="535" type="curve" smooth="yes"/>
      <point x="395" y="517"/>
      <point x="355" y="504"/>
      <point x="294" y="504" type="curve" smooth="yes"/>
      <point x="230" y="504"/>
      <point x="172" y="520"/>
    </contour>
    <component base="si_Ca"/>
  </outline>
</glyph>
<glyph name="si_ChI" format="1">
  <advance width="598"/>
  <outline>
    <contour>
      <point x="233" y="490" type="curve" smooth="yes"/>
      <point x="233" y="577"/>
      <point x="303" y="657"/>
      <point x="382" y="657" type="curve" smooth="yes"/>
      <point x="429" y="657"/>
      <point x="461" y="626"/>
      <point x="461" y="583" type="curve" smooth="yes"/>
      <point x="461" y="579"/>
      <point x="460" y="576"/>
      <point x="460" y="572" type="curve"/>
      <point x="430" y="544" type="line"/>
      <point x="434" y="550"/>
      <point x="436" y="565"/>
      <point x="436" y="576" type="curve" smooth="yes"/>
      <point x="436" y="603"/>
      <point x="424" y="620"/>
      <point x="395" y="620" type="curve" smooth="yes"/>
      <point x="338" y="620"/>
      <point x="280" y="549"/>
      <point x="280" y="485" type="curve" smooth="yes"/>
      <point x="280" y="453"/>
      <point x="294" y="429"/>
      <point x="333" y="429" type="curve" smooth="yes"/>
      <point x="347" y="429"/>
      <point x="357" y="431"/>
      <point x="374" y="436" type="curve"/>
      <point x="370" y="425" type="line"/>
      <point x="357" y="417"/>
      <point x="329" y="408"/>
      <point x="327" y="407" type="curve"/>
      <point x="326" y="407"/>
      <point x="324" y="407"/>
      <point x="323" y="407" type="curve" smooth="yes"/>
      <point x="260" y="407"/>
      <point x="233" y="439"/>
    </contour>
    <component base="uni0DA1"/>
  </outline>
</glyph>
